<svg xmlns="http://www.w3.org/2000/svg" viewBox="0 0 1925.87 1701.23"><title>GHM Logo</title><g id="Layer_2" data-name="Layer 2"><g id="Layer_1-2" data-name="Layer 1"><path d="M554.62,1625c-21.12-1.14-40.57-2.16-60-3.24-61-3.39-122-6.71-183.07-3.38-79.76,4.34-156.5,22.51-231,50.65-26.48,10-52.6,21-80.54,32.17,8.33-7.94,15.3-15.11,22.81-21.64,28.06-24.4,55.29-49.92,84.74-72.54,40.38-31,86.12-51.22,137.23-58.62-78.21-16.92-155.37-39.82-237.22-37.15,2-1.24,4-2.54,6.12-3.71,36.64-20.65,76.42-31.73,117.65-38.27,64.46-10.22,129.29-9.52,194.2-6.37,1.59.08,3.2,0,5.44,0-1.56-19.88-19.07-33.42-20.16-53.76,18.4-3,36.19-6.07,54.06-8.67,55.45-8.07,110.84-16.73,166.43-23.67,49-6.12,98.14-11.21,147.35-15,61.34-4.72,122.78-8.54,184.25-11.06,51.24-2.11,102.58-2.65,153.87-2.36,82.34.47,164.57,4.9,246.34,14.63,102.06,12.15,203.92,26,305.85,39.12,9.92,1.28,19.77,3,30.45,4.65.51,18.44-12.7,33.33-13.35,52.15h11.27c40.76.1,81.6-1.38,122.26.68,50.34,2.56,97.19,18.41,140.35,44.7a7.57,7.57,0,0,1,2.82,3c-68.3-8.18-129,17.82-191.86,40.7,14.83,3.27,28.3,5.59,41.4,9.24,47.17,13.13,88.88,37.08,126.72,67.47,29.71,23.87,58,49.57,86.85,74.46l-1.35,1.89c-12-5.07-23.9-10.24-35.91-15.21-59.59-24.63-120.48-45-184.07-56.74a731,731,0,0,0-153.83-12c-57.68,1.68-115.32,5-173,7.55-1.41.06-2.83,0-5.88,0,1.69-3.87,2.52-7.57,4.64-10.26,6-7.68,12.75-14.81,18.87-22.41,4.76-5.92,9.77-11.83,13.35-18.46,5-9.31,1.8-15.18-8.42-16.34-53.09-6-106.15-12.39-159.32-17.61q-72.62-7.14-145.45-12.08-55.66-3.88-111.49-5.38c-77.13-2-154,3.33-230.79,9.93-72.72,6.26-145.35,13.58-218,20.46-12.36,1.17-18.84,10.39-13.94,21.91,3.39,7.94,9.13,15,14.26,22,4.32,6,9.5,11.35,13.83,17.32C551.49,1616.76,552.53,1620.45,554.62,1625Zm-209.91-59.64c3.58-.4,5.68-.6,7.78-.87,23.89-3.08,47.75-6.4,71.67-9.2,51.65-6.06,103.27-12.41,155-17.59,57.43-5.75,114.91-11.44,172.5-15.11,64.48-4.11,129.1-6.45,193.69-8.62,80.23-2.7,160.31,1,240.17,8.81,55.54,5.44,111,11.82,166.47,17.94,63.3,7,126.58,14.17,189.87,21.17,12.72,1.41,25.49,2.35,40.12,3.68-25-51.08-20.54-100.48,3.42-149.4-2.68-.65-4-1.08-5.39-1.29-37.43-6-74.75-12.9-112.34-17.59-62.47-7.79-125.05-14.9-187.73-20.85-50.08-4.75-100.34-8-150.59-10.71-59.06-3.18-118.2-7.3-177.28-6.89-68.88.48-137.81,4.18-206.56,8.8-61.36,4.13-122.63,10.52-183.74,17.59-60.17,7-120.09,16-180.1,24.21-13.38,1.84-26.68,4.22-40.81,6.47,10.52,24.34,19,48.36,20.15,74.18C362.16,1516.11,355.07,1540.54,344.71,1565.39Zm1536.76,110.54c.17-.36.35-.72.53-1.08a51.74,51.74,0,0,0-4.12-3.73c-25.75-18.88-50.76-38.92-77.49-56.31-40.14-26.12-83.17-46.55-130.65-55.9-11.66-2.3-23.61-3.16-35-4.64,15-6.51,30.41-12.75,45.43-19.84,37.12-17.51,75.44-30.79,116.61-34.43,10.45-.93,20.93-1.47,32.62-2.27-46.05-27.27-155.06-38.32-247.33-25.63-3,35.71,7,69.65,15.35,104.29-56.59,10.76-110.89,29.38-167.92,35.6a46.31,46.31,0,0,0,9.3.5c39.08-1.37,78.14-3.1,117.23-4.09,48.47-1.23,96.8.48,144.7,9.1,59.69,10.74,116.49,30.41,171.86,54.67C1875.52,1673.47,1878.5,1674.68,1881.47,1675.93Zm-1832-175.75c20.57,2.65,41.22,4.72,61.66,8.12s40.74,7.69,60.92,12.4c20.41,4.77,40.65,10.32,60.86,15.91,19.67,5.43,39.22,11.35,58.82,17.05-93.36,1.18-204.51,78.28-241.18,115.2,13.06-5.45,25.3-10.62,37.6-15.66,78.84-32.31,160.58-49.88,246.07-47.5,34.08,1,68.14,2.93,102.2,4.44l59.95,2.67c-60.23-7.54-118.13-25.54-177.53-37.11a30,30,0,0,1,0-4.91c3.84-19.36,7.94-38.67,11.55-58.07,2.06-11,3.37-22.24,5-33.13C237.28,1466,143,1478,49.47,1500.18Z"/><path d="M1757.37,829.7c-14.12,10-15.89,24-15.11,39.06q4.07,79,8.09,157.92c.17,3.34.21,6.68.32,10,.25,7.63,3.35,13.41,10.92,15.92s10.25,7.69,9.58,15.4c-1.2,13.77-2,27.58-3.23,41.36-.16,2-1,4.79-2.4,5.41s-4.09-.79-5.46-2.09c-17.28-16.36-34.69-14.67-53.28-2.46-14.5,9.53-31,13.67-48,14.83-16.63,1.14-30.74-5.79-40.2-19.28a281.7,281.7,0,0,1-23.4-40,40.2,40.2,0,0,0-55.54-18.2c2.31,2.57,4.44,5,6.67,7.4,45.6,48.55,46.28,116,1.63,164.72-46,50.22-133.28,52.35-182.23,4.64-18.54-18.07-30.73-39.37-34.75-65-.91-5.78-3.32-7.7-9.1-6.43-30.47,6.65-61.44,8.31-92.49,8.1-98.58-.67-197,3.23-295.42,8.74-67.63,3.78-135.24,7.81-202.88,11.36-22.86,1.2-45.79,1.91-68.68,1.67-28.48-.3-52.82-9.82-68.71-35.24-.2-.33-.75-.44-2-1.11-.88,50.56-21.4,90-65.49,115.37-31.48,18.09-65.31,23.13-100.83,14.43-25-6.12-46.29-18.72-64.1-37.17a123.18,123.18,0,0,1-33.44-65.19c-4.52-25.38-.36-49.75,8.91-74-14.14-.44-26.64,3.27-38.7,8.51-2,.88-3.38,3.8-4.51,6-3.76,7.43-6.77,15.29-11,22.42-6,10-14.93,16-27,16.12q-12.51.16-25-.18c-7.2-.18-13.83-3.24-16.58-9.56-4.41-10.11-7.33-20.91-10.35-31.57-1-3.55-.18-7.57-.53-11.35-1-11.13,1.33-20.73,11-27.76,5.38-3.94,4.32-18-1.82-19.47-18-4.14-19.38-19.06-20.83-32.57-1.28-11.92.62-24.23,1.74-36.31a13,13,0,0,1,4.75-8.17c5.85-4.34,7.59-9.89,7.64-16.76.09-10-.12-20.08,1.24-29.93,2.13-15.36,10.65-27,24.51-34.06,5.9-3,7.72-6.65,6.91-13a125,125,0,0,1,3-47.55c5.48-21.08,19.1-33.4,40.66-35.58,42-4.25,84-8.53,126.11-11.49,68-4.78,136.16-8.39,204.23-12.73,25-1.6,49.93-4,74.91-5.75,10.21-.73,16.49-6,20.8-15,18-37.62,36.4-75,54.3-112.7,9.86-20.73,25.65-33.82,47.54-40.19,31.36-9.12,63.45-13.38,96-14.17,38-.92,76-1.32,113.09,8.5a214.9,214.9,0,0,1,38.67,14.43c15.85,7.69,23.54,21.52,24.51,39.2,3,55,6.27,110,9.19,165,.35,6.47,3.22,8,9,7.85q57.58-1.7,115.17-3,76.2-1.74,152.42-3.2c55.82-1,111.64-1.8,167.46-3,10.2-.21,18.28,1.48,22.12,12.45,2.29,6.57,8.36,8.06,14.69,7.9,28.37-.73,56.74-1.64,85.12-2.3,32.44-.76,64.88-1.32,97.32-1.93A15.57,15.57,0,0,1,1757.37,829.7ZM720.12,1101.09c2.45,14.55,1.5,26.89-7.49,36.13-7.47,7.68-16.77,13.79-25.94,19.5-5.1,3.19-11.56,4.23-17.46,6.09-5.58,1.77-8.49,5.35-7.45,11.24s5.51,5.67,10,5.34c4.76-.35,9.52-.62,14.28-.88,64.3-3.48,128.6-7.09,192.9-10.37,65-3.33,130-7.08,195.09-9.23,60.55-2,121.18-1.7,181.75-3.34,20.66-.56,41.27-3.75,61.86-6.12,8.5-1,15.49-5.19,19-13.39,7-16.42,14.19-32.8,20.44-49.51,6.75-18,15.21-35,27.87-49.59,14.77-17,33.21-28.41,55.76-30.57,23-2.19,46.17-3.75,69.2-3.18,43.38,1.06,72.29,24.13,90.35,62.78a228.81,228.81,0,0,0,21,35.61c12.08,17,29.52,23.15,49.21,16.89,18.06-5.73,35.22-14.25,52.87-21.3,6-2.39,8.12-6.78,8.65-12.69,2.8-31.2,3.7-62.43.06-93.59-4.48-38.3-24.2-64.64-61.41-77.57-50.06-17.39-101.93-22-154.3-22.31-33.61-.19-67.24,1.3-100.83,2.81-30.74,1.38-61.39,3.95-91.48,11.11-40.11,9.54-65.8,32.87-72.68,74.76-2,12-5.42,23.76-7,35.78-2.57,19.57-5.62,39.26-5.8,58.92-.22,24.4,10.1,36.22,33,44.38A153.64,153.64,0,0,1,1296.2,1130c8.48,4.86,8.93,11.41,1.51,20.75,3.21-13.55-4.71-18.44-14.19-22.19q-11-4.33-21.93-8.7c-14.17-5.63-22.89-15.78-25.94-30.83-2-9.82-3.36-10.93-13.4-10.79-33.16.49-66.31,1.15-99.47,1.62-12.92.18-14-.76-14.34-13.54q-2.51-82.24-4.81-164.49c-.41-14.31-.62-28.62-1-42.93-.16-6-1.33-11.46-10-11.93q3.45,115.37,6.87,230l-2.44.51c-.75-2.37-2.06-4.72-2.14-7.12-1.47-40.51-2.78-81-4.15-121.55-2.22-65.54-4-131.1-6.87-196.62-1.58-36.43-4.87-72.8-7.52-109.18-.63-8.7-4.1-16.74-11.22-21.58-9-6.09-18.5-11.91-28.61-15.64-29.17-10.78-59.82-13.8-90.69-14.52-45-1-89.63,1.65-133.26,14-21.2,6-36.74,18.35-46.33,38.38-18.51,38.68-37.44,77.17-55.83,115.92-4.16,8.77-9.91,13.2-19.74,13.56-9.12.34-18.18,2-28.93,3.28C674,787.64,680.38,800.24,682,814.89c2.28,20.79,1.16,41.46-4.4,61.73-4.63,16.9-12.62,30.87-32.49,34.71,6.68,3.54,12.83,6.1,18.21,9.78,15.48,10.56,22.62,26.65,27.53,43.91,13,45.83,19.16,92.86,24.34,140.06a13.08,13.08,0,0,0,.49,1.87Zm-476.19-15.45c-9,4.11-12.71,3.31-21.66-3.38-7.92-5.92-11.18-4.93-13.09,4.81-3.63,18.46-1,36.2,8.66,52.38a22.37,22.37,0,0,0,10.78,8.63c22.24,8.21,45.4-1.71,55.42-23.63,5.64-12.35,10.6-25,15.65-37.62,21.55-53.81,61.17-84.38,118.78-89.36,48.52-4.19,90.92,10.12,123.71,48A241.07,241.07,0,0,1,589,1126.7c9.19,27.15,27.81,43.85,56.52,48.45,4.42.7,10,2,11.17-4.21,1.73-9.2,7.94-12.06,15.86-14a71.87,71.87,0,0,0,31.38-16.38c7-6.33,9.3-13.87,8-23.17-2.09-14.63-3.55-29.35-5.32-44-4.83-40-10.93-79.82-24.13-118.17-6.14-17.84-17.81-29.84-35.65-36.38-45-16.52-91.91-23.2-139.16-27.89-75.31-7.47-150.54-5.1-225.66,3.26-1.7.19-3.5-.57-5.25-.88,0-.68,0-1.36,0-2,2.12-.68,4.21-1.8,6.37-2,26.15-2.06,52.28-4.37,78.47-5.86a916.73,916.73,0,0,1,171.4,5.85c30.19,4,60,10.87,90,16.32,21,3.81,42.43-.73,49.35-28.77,1.89-7.63,4.08-15.26,5.06-23,2.28-17.87,2.32-35.8-3.72-53-6.14-17.5-16.47-24.21-34.61-23.24-17.15.92-34.27,2.14-51.41,3.22-58.31,3.67-116.65,6.9-174.92,11.14-42.8,3.12-85.54,7.16-128.23,11.55-23,2.36-33.51,12.76-39.35,35.26-4.09,15.76-3.82,31.65-2.18,47.62.47,4.54.51,8.31-4.7,10.56-20.5,8.88-29.77,25.73-28.37,46.94,2.41,36.37,6.66,72.61,10.27,108.89C221.6,1067.68,224,1082.24,243.93,1085.64ZM1746.12,833.52c-5.21,0-8.77-.07-12.33,0l-204.55,5.22q-84,2.16-168.09,4.27-121.61,3-243.21,5.75c-9.63.22-11.23,1.85-11,11.36,1,33.85,1.86,67.71,2.87,101.56,1.05,34.79,2.27,69.58,3.27,104.38.18,6.05,2.24,9.42,8.84,9.32q51.88-.86,103.77-1.45c5.35-.07,7.54-2.48,7.86-7.86.72-12.12.89-24.43,3.19-36.29,4.85-25,9.84-50.09,16.77-74.58,7.63-26.94,28.65-42.17,54-49.79,20.37-6.14,41.78-9.48,63-12.12,64.56-8,129.42-8.21,194.31-4.83,38,2,75.35,8,111.07,21.93,34,13.22,54.83,37.15,59.65,73.79,4.41,33.5,4,67.08,1,100.68-.22,2.47-.52,6.32.84,7.32,8.08,5.93,16.64,11.22,25.56,17.06,1.34-14.24,2.51-26.8,3.72-39.35.67-6.91-2.41-11.71-8.68-14-8.09-3-11.25-8.64-11.67-16.91-2.43-46.92-5.24-93.81-7.51-140.73C1737.7,876.8,1733.15,854.87,1746.12,833.52ZM484.81,1048.87c-63.13-.06-116.74,57.32-112.65,120.27,3.48,53.44,43.71,93.27,97.58,91.92,62.52-1.57,111-53.51,110.8-116.38C580.37,1092.24,537.08,1048.92,484.81,1048.87Zm878.47,93.91c2.65,11.78,4.19,23.94,8.14,35.27,16.35,46.89,65.65,74.85,111.77,64.13,65.76-15.29,98.4-91.89,64.56-151.53-20.13-35.5-59.39-56.1-96-50.4C1400.89,1048.15,1364.75,1090.65,1363.28,1142.78Zm190.8-309.27c-1.4-10.26-6.22-15.29-15-16a120.26,120.26,0,0,0-12.16-.08q-96.59,1.83-193.17,3.7c-39.35.76-78.7,1.35-118,2.3-38.62.94-77.23,2.2-115.84,3.52-2.59.08-7.38,2.05-7.31,2.83.32,3.89.78,9.16,3.36,11.15,3.41,2.63,8.83,3.72,13.37,3.66,29.57-.4,59.13-1.29,88.69-2,34.82-.82,69.63-1.55,104.45-2.42q102.27-2.55,204.54-5.22C1522.63,834.53,1538.31,834,1554.08,833.51ZM538.74,1050.91c-15.52-28.09-74.31-58.76-133.61-46.9-60,12-96.63,55.7-104.65,97.14,8.39-1.89,16.67-5.18,25-5.29,11.22-.14,17.65-5.2,23.75-13.9,43.78-62.36,116.94-64.68,163.05-45C521.29,1040.88,529.73,1046.14,538.74,1050.91Zm1036.48-12.25c-5.35-10.61-19.87-22-36.16-25.94-38.08-9.27-76.19-6.91-114,1.85-5.29,1.23-10,4.92-15,7.47,1.48,1.48,2.21,1.58,2.86,1.39,40.74-12.35,79.1-7.5,115,15.77a13.17,13.17,0,0,0,7.34,2.3C1548.65,1040.78,1562,1039.64,1575.22,1038.66ZM205.81,975.07c-6.16,4.71-10.37,7.69-4.83,13.62a11.53,11.53,0,0,1,2.33,5.14c3.41,14.48,5.29,29,1.85,43.83-1.73,7.45.25,9.44,9.29,8.85C211.64,1023.25,208.83,1000.05,205.81,975.07Zm-6,59.43,2.63-.22q-1.66-22.32-3.31-44.64l-2.38.18C194.1,1005,194.56,1019.9,199.78,1034.5Z"/><path d="M358.58,339.27c-.48,2.31-.24,4.75-1.34,5.87a19.93,19.93,0,0,0-1,27.05q27.47,31.15,54.86,62.35c6.8,7.74,14.88,9.56,24.46,5.79,1.74-.68,3.91-.27,6.26,1.34-1.2,1-2.33,2.12-3.61,3-13.72,9.84-27.42,19.74-41.28,29.39-1.81,1.27-4.5,1.27-6.89,1.89,2.74-6.26,5.37-10.86,6.8-15.81,2.4-8.27-.86-14.59-6.81-20.89-17.65-18.7-34.57-38.09-51.77-57.21l-2.26.77q14.58,59.07,29.2,118.36L251.37,457.83a44.45,44.45,0,0,0,2.62,3.9Q277.18,490.4,300.42,519c6.18,7.64,13.61,9.22,22.55,5,3.15-1.49,6.95-5.72,8.75-1-12,12.12-23.22,23.63-34.75,34.79-1.25,1.21-4.39.47-7.16-.37,6.36-5.84,8.18-12.35,6.33-19.82-.77-3.11-1.59-6.49-3.4-9-15.67-21.93-31.58-43.7-47.41-65.52-6.18-8.51-19.08-11.6-28.2-6.33-3.83,2.22-6.51,2.84-8-2.19l37.57-32.12c6.26,1.37,2.72,5.49,1.27,9.27L349.63,475c-2.76-9-6.41-18.52-8.5-28.33-4.71-22.14-8.76-44.43-12.83-66.71-.83-4.57-2.15-8-7-9.65a7,7,0,0,1-3.94-4.07c-.25-.91,2-2.89,3.46-3.81C332.71,355,344.67,347.77,358.58,339.27Z"/><path d="M233,606.74Q23.74,995.83,199.61,1399.87c-5.15,2-7.8-.68-10.12-5.84a871.18,871.18,0,0,1-77-377.39c2.91-125.24,30.91-244.59,85.44-357.52,7.66-15.88,16.33-31.26,24.17-47C224.63,606.91,227.78,604.86,233,606.74Z"/><path d="M1728.62,606.8c5.42-2.09,8.25.57,10.93,5.41,51.3,92.72,85.08,191.32,100.46,296.24a854.87,854.87,0,0,1,9.29,126.18c-.28,125.45-25.62,245.62-77.59,360-2.35,5.19-5.16,6.8-9.78,5.23Q1937.18,995.3,1728.62,606.8Z"/><path d="M205.27,607.09q-101.36,184-109.86,392.79Q87.16,1208.4,173,1399.32c-5.86,2.28-8.55.35-10.76-4.72-33.89-77.61-57.32-158.22-67.12-242.35-4.4-37.84-7.48-76-7.71-114.12q-1.2-204.56,87.52-389.39c6-12.45,12.73-24.54,18.66-37C196,606.61,199.22,605.11,205.27,607.09Z"/><path d="M1757.41,606.79c4.58-1.62,7.76-.43,10.43,4.58,48.46,90.84,81,187,96.37,288.85a905,905,0,0,1,6.67,214.77c-8.48,97.25-32.6,190.56-71.69,280-2.2,5-5.1,6.36-9.66,4.8Q1959.53,995.77,1757.41,606.79Z"/><path d="M701.23,323.83c-15,8.91-29.59,9.68-44.5,5.19a13.83,13.83,0,0,1-5.64-3.89c-6.21-6.6-12.38-13.25-18.25-20.15-13.77-16.14-23.79-16.38-42.85-6.79,4.81,11.68,9.22,23.66,14.65,35.16,4,8.43,11.86,9.79,20.56,9,2.78-.26,5.73,1.28,10.16,2.38l-59.72,24.22c1.22-2.34,1.8-5,3.47-6.42,10.73-8.95,11.9-13.38,6.29-26.18Q569.07,299,552.76,261.69c-3.7-8.44-11.62-12.31-20.58-10a21.37,21.37,0,0,1-9.2.72c1.27-1.78,2.17-4.51,3.89-5.21,22.25-9,44.39-18.47,67.1-26.19,6.56-2.23,14.85,1,22.36,1.12,12.65.27,19.28,6.49,22.56,18.73,2.93,11,.34,23.87-8.62,30.93a74.32,74.32,0,0,0-8.9,7.95c9.89-2.65,15,3.45,20.66,9.37,9.87,10.35,20.12,20.35,30.45,30.25a11.4,11.4,0,0,0,6.87,2.6c5,.25,10-.48,15-.27C696.67,321.74,698.94,323.07,701.23,323.83ZM562.41,237.06c1.85,2.36,4.09,4.27,5.13,6.69,6.87,16.14,13.49,32.38,20.35,49,10.26-5.65,20.2-9.32,27.07-19.6,6.29-9.42,7.39-17.1,2-26.44-1.85-3.23-2.54-7.84-5.23-9.76C597.29,226.57,576,227.3,562.41,237.06Z"/><path d="M847.45,294.61c-21.74,5-39.22,2.1-56.08-9.1-18.39-12.21-38-22.62-58.4-34.63,2.42,18.16,6.15,33.81,16.22,46.94,2.07,2.7,7.43,3.05,11.38,4.09,3.58,1,8,.56,7.33,5.34l-59.33,14.17c2.67-2.46,4-4.24,5.71-5.17a18.89,18.89,0,0,0,9.56-21.82q-10.73-38.19-21.47-76.36c-3.29-11.67-10.51-17.62-22.28-18.72-1.77-.17-3.45-1.22-5.17-1.87,0-.73.07-1.46.11-2.19,3.31-.76,6.66-1.36,9.92-2.3,13.7-3.92,27.34-8,41.09-11.79,2-.56,4.51.5,7.49.91-5.43,5.21-9.89,8.57-13,12.89-1.59,2.19-1.64,6.31-.93,9.21,2.52,10.41,5.81,20.63,8.49,31,.91,3.49.87,7.24,1.37,11.88,8-9.19,16.72-18,24-27.82,6.78-9.15,12-19.43,18-29.19,3.7-6.07,1.45-10.65-5.73-11.7-1.63-.24-3.2-.82-5.92-1.54,10.19-5.14,48.6-10.34,53-7.12C778.23,181.15,766.3,213.56,747,238c4.36,1.7,8.74,2.55,12.12,4.86,14.17,9.69,27.63,20.48,42.14,29.59,12.55,7.88,25,16.78,40.57,18.24C843.29,290.83,844.6,292.56,847.45,294.61Z"/><path d="M1694.06,527.11c3.45,3.45,3.68,6.07-.4,8.34-10.18,5.65-20.26,11.46-30.55,16.89-1.31.7-4.21.19-5.36-.86-25.58-23.61-50.56-47.94-80.33-66.55l.19-2.54c2.61,0,5.45-.68,7.79.12,12,4.07,20.59,1.78,28.68-8.07q24.75-30.15,49.55-60.28c9.15-11.11,8.39-19.78-3.07-29.11l3.76-4.91,90.75,77.54-24.89,20.57c-.35-1.58-.78-3.33-1.08-5.11-.06-.38.42-.83.6-1.27,2.46-5.89,9.67-10.67,4.06-18.41-4-5.5-7-12-11.81-16.56-9-8.45-19-15.78-28.85-23.74l-35.77,41.19c13.35,7.71,21.44,22.62,38,24.06,5.26.46,10.74-1.52,17.84-2.67-.34,1.64,0,4.68-1.39,5.95-9.45,8.92-19.25,17.47-29.9,27-.45-1.5-1.85-3.9-1.69-6.19.19-2.86,3-6.09,2.29-8.34-1.76-5.31-4-11.08-7.82-15-7.47-7.64-16.13-14.12-23.88-20.72-1.44,3-2.24,6.14-4.13,8.34-6.21,7.24-12.83,14.13-19.27,21.17-4.46,4.88-5.27,19.29-1.44,24.58,7.44,10.27,17.17,18.77,28.47,23.21,8.82,3.47,19.89,5.15,29.29-1.66C1687,531.76,1690.43,529.57,1694.06,527.11Z"/><path d="M963.62,243.19c1.18,1.95,3.66,4.17,3.33,5.82-2.32,11.39-5.07,22.7-8.13,33.91-.39,1.42-3.36,2.93-5.21,3-20.23,1.15-40.5,1.64-60.7,3.12-12.54.92-25,3.23-38.91,3.86,1.65-1.83,3-4.3,5-5.38,11.29-5.95,15.17-12.61,13.61-25.6-3.22-27-6.37-54-10.31-80.86-.64-4.33-4.53-9.05-8.24-11.8-3.3-2.43-8.44-2.37-14.09-3.72-1.47-3,.67-4,4.85-4.32,24.72-1.75,49.43-3.75,74.16-5.5,11.6-.82,23.23-1.25,34.19-1.82-.66,10.32-1.28,19.89-2,30.4a35.33,35.33,0,0,1-4-2c-.47-.3-.43-1.33-.72-2-2.54-5.65-1-13.87-10-15.39-6.48-1.09-12.93-3.58-19.35-3.44-11.61.24-23.19,2-35.31,3.14,1.74,17.79,3.43,35,5.23,53.43,14.14-3.23,29.26,1.22,41.27-8.82,4-3.35,6.39-8.65,10.52-14.49.89,1.86,2.67,3.9,2.72,6,.26,12.29.13,24.59.13,37.81-2.37,1-4.87,1.95-6.55-2.84-2.33-6.63-11.84-12.72-19.38-12.34-10,.5-19.91,1.54-29.62,2.33.94,3.22,2.24,6.06,2.55,9,.93,9,1.1,18.11,2.36,27.06.5,3.61,2.64,7.21,4.75,10.33,6.32,9.33,16.23,10.46,26.07,9.45,11.7-1.2,23.46-2.38,31.59-13.54,3.53-4.84,6.33-9.16,6.78-15.07.23-3,1-6,1.55-9Z"/><path d="M1623.71,402.43c-4.86-2.25-6.19-5-3.83-9.34a35.56,35.56,0,0,0,3.42-8.62c2.33-9.71,3.16-18-4.4-27.55-12.29-15.54-29.46-20.43-46.25-26.46-4.91-1.76-11.54,1.27-17.39,2.06-23.84,3.21-35.85,19.88-46.93,39-9.72,16.8-5.48,33.33,1.1,47.74,7.28,15.95,19.61,31.49,38.58,34.24,13.6,2,28.55.75,40.72-9,4-3.19,4.36-2.74,7.31,1.61-9.4,6.48-18.75,13-28.25,19.37a6.83,6.83,0,0,1-5.17,1c-20.9-7.4-40.83-15.78-56.4-33.14a112.21,112.21,0,0,1-25-44.91c-.69-2.41-1.25-5.24-.67-7.58,2.26-9.25,4.21-18.73,7.87-27.44,2.29-5.42,7.78-9.41,11.26-14.43,10.67-15.38,27.89-18.18,44-22.58,4.77-1.31,10.63,1.79,16,2.37,24.34,2.62,43.47,16.64,62.37,30,7.66,5.43,11.76,15.91,17.3,24.22.58.85.34,2.79-.25,3.8C1634.09,385.43,1628.88,393.91,1623.71,402.43Z"/><path d="M1154.74,242.46c-2.07,11.7-5.46,22.68-5.46,33.65,0,7.78,3.36,16.31,13,19.28,1.86.57,3.13,3.08,4.67,4.69-2.08.18-4.32,1-6.21.44-15-4.09-30.2-6.73-45.85-6.32-3.47.09-7.82,0-5-6.48,7.35,1.45,13.25-1.58,17.42-7.67,2-3,4.16-6.34,4.7-9.77,4.31-27.32,8.23-54.69,12.32-82,1.14-7.61-6-17.86-13.65-19.63a6.51,6.51,0,0,1-4.17-3.82c28.41,4.56,57.89,2.53,84,15.44,8.54,4.21,15.61,12.44,21.64,20.18,2.22,2.84-.89,9.55-.92,14.5-.06,16-13.37,22.77-24,27-11.44,4.57-25.65,2.41-38.67,2.73C1164.49,244.73,1160.25,243.36,1154.74,242.46Zm1.13-5.84c15.24,7.88,28.89,1.64,42.68-1.21a4.67,4.67,0,0,0,2.58-2.24c5.89-10.21,13.46-20.07,7.18-33-1.5-3.07-1.9-7.42-4.29-9.21-12.06-9-25.11-16.25-39.49-17.26.34,3.16,1.45,6.56.93,9.69C1162.47,201.23,1159.09,219,1155.87,236.62Z"/><path d="M1075.79,115.89l-45.39-2.45c2.11-1.73,3.14-3.21,4.48-3.58,6.73-1.83,12.69-8,13.23-15.11.86-11.38,1.18-22.79,1.77-34.94l-60.13-2.56c.56,11.08,1,21.94,1.7,32.77.84,12.33,1,12.33,13.43,22.49H958.73c3.16-2.3,4.6-4.09,6.36-4.48,8.16-1.82,10.46-8.39,10.6-14.92.51-23.61.28-47.23.16-70.85A18.52,18.52,0,0,0,964.4,5.56c-1.55-.63-2.48-2.8-4.77-5.56,17,0,32,0,46.85.16.38,0,.72,2.34,1.09,3.62-9.66,1.73-15.7,8.88-16.14,18.64-.39,8.33-.81,16.66-1.17,25a17,17,0,0,0,.46,2.77l60.11,2.15c-.06-6.54-.17-13.06-.15-19.58,0-3.09.38-6.18.39-9.27,0-12.52-1.65-14.7-14.6-19.37,2-2.28,2-2,22.15.45,7.94,1,16.08.16,25.52.16-1.38,1.45-2.16,3.07-3.26,3.32-6.16,1.43-12.65,7.94-13.26,14.37-2.26,24-4.58,47.93-6.31,71.93a16.92,16.92,0,0,0,8.23,16.32C1071.55,111.89,1073.21,113.7,1075.79,115.89Z"/><path d="M440.14,277.74c34.12,28.43,67.77,56.57,101.56,84.54,7.61,6.3,16.31,9.45,27.9,7.16-1.17,1.79-1.92,4.4-3.58,5.25q-18.12,9.24-36.6,17.74c-1.92.88-4.7-.11-6.44-.2,2.26-4.78,4.34-8.25,5.59-12,1.82-5.45-3.11-7.35-6.18-10-6.67-5.78-13.58-11.28-20.21-17.09-2-1.72-3.33-4.09-5.46-6.79l-44.14,24.1c2.59,11.63,4.41,22.85,7.77,33.59,1.5,4.79,5.68,9.09,9.56,12.59,1.19,1.08,5.42-1.24,8.27-2s5.51-1.34,8.27-2c.13.58.27,1.16.4,1.74l-41.19,24.79c0-1.75-.78-4.89.13-5.49,8.52-5.67,6.87-14.21,5.79-21.88-4.16-29.73-9-59.36-13.43-89.06-1.6-10.84-2.3-21.82-3.93-32.65C433.35,284.34,435,280.42,440.14,277.74Zm9.68,85.57L491.74,342l-49.28-36.22C444.86,324.5,447.26,343.26,449.82,363.31Z"/><path d="M1468.75,408.77c-2.14-.15-4.6.33-6.37-.55-12.13-6.07-24.18-12.3-36.08-18.8-1.88-1-2.83-3.73-4.34-5.83,4.9-.36,8.4-.16,11.66-1,5-1.23,6.86-4.94,7.22-10,.63-9,1.72-18,2.8-27,.32-2.65,1.26-5.21,2.18-8.83L1401,316c-8.07,8.42-16,15.84-22.83,24.22-3.35,4.13-5.18,9.89-6.3,15.21-.32,1.55,4.18,4.11,6.46,6.21,2,1.83,4,3.67,4.65,6.51l-43.48-18c1.28-1,3.16-3.43,4.19-3.11,11.32,3.49,17.87-4.23,24.72-10.49,20.76-19,41.17-38.39,61.89-57.44,8.78-8.06,18.18-15.46,27-23.54,4.13-3.82,8.3-5.18,14.77-2.93-.86,8.5-1.73,17.39-2.65,26.27-3.6,34.38-7.31,68.75-10.75,103.15-1,9.74,1.87,18.27,10.22,24.32Zm-19.25-138-44.09,39,41.76,20.81C1448,310.45,1448.7,291.35,1449.5,270.73Z"/><path d="M1035.12,162.6c-14.88-2.68-29.73-.66-44.49,2-1.64.29-3.24,2.55-4.23,4.26-3,5.13-5.65,10.44-8.56,15.91-4.48-.23-6.46-1.47-5.44-6.54,2-9.73,3.24-19.61,5-30.79,11.33,11.32,24.72,7,37,7.91,28.06,2.11,56.17,3.53,84.28,4.74,5.23.22,10.55-1.88,16.53-3-.48,10-.91,21.12-1.68,32.19-.09,1.29-2,2.45-3.1,3.68-.94-1.09-2.36-2-2.74-3.3-4.2-14.07-14.14-22.41-29.2-24.12-7.31-.83-14.63-1.5-22.87-2.33-.59,6.58-1.17,12.65-1.66,18.73-2.07,25.67-4.21,51.34-6.1,77-.8,10.75,4.4,18.27,14.29,22.24,3.69,1.48,7.14,3.52,10.7,5.3l-1,1.67-69-4.13c-.15-.42-.31-.83-.46-1.25,3.84-1.25,7.64-2.65,11.53-3.73,10-2.8,16.26-10.49,16.66-20.8q1.67-44,3.38-87.94A70,70,0,0,1,1035.12,162.6Z"/><path d="M1328,209.27c-2.47.52-5,1.53-7.42,1.44-4.44-.17-9.12-2.21-13.2-1.29-6.78,1.52-11.46,5.4-13.83,13.3-8.14,27.14-17.48,53.93-26.31,80.87-3.28,10-.54,15.18,9.36,18.13,6.39,1.91,13.05,3.23,19.11,5.89,17.26,7.56,31.9,4.63,44-9.84,3.65-4.37,6.63-3.43,10,.4-7.42,8.83-14.68,17.67-22.24,26.24-1,1.19-4,2.07-5.3,1.47-31.45-14.1-64.33-23.57-98.15-30.09-.2-.84-.39-1.68-.59-2.52,1.9-.82,3.88-2.49,5.68-2.31,9,.92,17.52-4.27,19.91-12.76q11.73-41.61,23.42-83.25c2.81-10-1.91-18-12.13-20.75-1.59-.42-3.15-1-5-1.61.77-2.23,1.44-4.18,1.93-5.58l70,20.43Z"/><path d="M1148.36,125.75c-24,0-40.73-11.32-52-30.06-3.64-6-2.46-14.84-4.35-22.16-5-19.54,6.45-34.27,14-50.19.2-.43.46-1,.84-1.14,11.81-4.56,22.21-13.32,35.86-12.45,5.95.38,11.86,1.59,17.79,1.67,9.62.14,16.11,6.37,23.38,11.12,17.29,11.29,19.77,28.67,19,47.18A62.68,62.68,0,0,1,1186,110.34c-2.46,2.7-5.38,5.5-8.67,6.83C1167.66,121.11,1158.9,128.85,1148.36,125.75Zm-40.85-59.09,1.67.53a30.47,30.47,0,0,1,.17,3.57c-1,15.12,6.11,27.5,13.56,39.73a7.63,7.63,0,0,0,3.49,3.27c10.42,3.44,20.22,8.54,32.06,2.38,6.51-3.39,11.76-6.35,15.88-12.78,5.7-8.92,8.36-18.43,10.3-28.55,3.49-18.19.27-34.84-10.22-50.09a15.27,15.27,0,0,0-3.15-3.82c-14.42-10.65-42.44-6.75-51.19,9C1113.88,41,1111.56,54.33,1107.51,66.66Z"/><path d="M853.89,30c2,19.89,4.2,39.75,5.88,59.65.55,6.5,2,12.25,7.12,16.46,2.3,1.88,5.13,3.1,7.58,4.83a62.51,62.51,0,0,1,5.2,4.6l-42.18,5.84-2.15-2.73c1.53-.49,3.07-.94,4.58-1.46,12.46-4.34,14.75-14.77,14-25.79-1.38-20.7-3.71-41.33-5.74-62-.76-7.79-10.47-16.5-18.28-16.7-1.86-.05-3.71-.29-7.29-.59,2.06-1.94,2.92-3.46,4-3.68,7-1.43,14-3.19,21.12-3.48,2.83-.11,6.3,2.74,8.62,5.09,24.93,25.25,49.7,50.67,74.68,76.22-.33-6.84-.65-14.22-1.05-21.59-.7-13.34-1.36-26.68-2.26-40a45.88,45.88,0,0,0-2-8.94C923.25,6.54,916,4.57,907.25,5c-.1-.58-.2-1.16-.29-1.74,1.13-1,2.25-2.74,3.39-2.76C923.57.29,936.8.36,950.44,1.89c-7.92,1.66-12.75,5.74-14.75,13-.44,1.58-1.2,3.18-1.16,4.75.63,28.38,1.29,56.75,2.13,85.12.12,4.19,1.12,8.36,1.82,13.23Z"/><path d="M571.72,125.3c3.09,10,5.7,19.6,9.11,29,2.48,6.82,7.08,11.61,15.34,11.33a8.3,8.3,0,0,1,6.4,3.29l-44.81,15.19c2.24-3,3.18-5.34,4.91-6.38,7-4.22,8-10.54,5.79-17.32-7.75-23.75-15.88-47.38-23.92-71a13.28,13.28,0,0,0-14.45-8.62c-1.61.2-3.23.33-7.35.75,2.58-3,3.54-5.11,5.06-5.63,15.28-5.23,30.49-10.79,46.06-15,10.43-2.86,21.24,1.5,28.75,7.33,10.71,8.3,8,30.24-2.52,39-1.58,1.31-3,2.81-3.33,3.11,4,3.26,8.17,5.85,11.26,9.4,7.34,8.45,14.39,17.18,21.07,26.16,3.34,4.49,7,6.3,12.58,6.05,4-.17,9.13-1.59,11.51,4.08-10.67,4.86-21,5.71-31.39,1a16.21,16.21,0,0,1-5.94-4.66c-5-6.4-9.71-13-14.36-19.62C593.49,121.24,585.67,118.27,571.72,125.3Zm-1.61-5.64c14-2.71,22.25-12.08,24.23-23.88,1.14-6.8-1.21-16.55-8.88-22-10.8-7.66-21.88-9.66-31.78-3.23Z"/><path d="M499.27,162.4c2.21-2.86,3.17-5.44,4.87-6.09,10-3.76,20.07-7.06,31-10.83,2.51,6-10.08,10.46-3.52,18.18,4.51,5.32,7.4,12,11.55,19-5.68,8.43-15.42,15.12-26.75,19.36-9.46,3.54-18.35,8-29.13,8.7-15.18,1-27.25-5.05-39.52-11.89a13.86,13.86,0,0,1-4.45-4.34c-2.11-3.16-3.5-6.84-5.8-9.83-9.43-12.26-12.64-26.06-9.38-40.94,1.48-6.75,4.91-13.09,7.66-19.54,4.81-11.32,13.89-17.64,24.52-23.49,14.72-8.09,30.43-10,45.79-12.39,2.95,9.85,5.7,19,9.14,30.45-3.25-2.62-5.61-3.68-6.63-5.49-5.79-10.3-15.69-15-26.13-14.19a54,54,0,0,0-26.75,9.65c-15.64,11.53-18.15,28-11.56,45.93,2.05,5.57,3.9,11.23,6.14,16.73,5.41,13.29,16.23,21.3,29,25.75,13.81,4.82,28.3,3.84,41.76-2.15A7.8,7.8,0,0,0,525,184.09c-1.17-2.33-1.9-4.88-2.85-7.32C517.26,164.15,514.59,162.27,499.27,162.4Z"/><path d="M1392.77,185.19c2.37-.82,4.48-2.34,6.33-2.07,9.37,1.4,14-5,16.59-11.62,9-22.81,17.17-45.95,25.42-69.06,2.29-6.41-.69-13.35-6.09-16.9-1-.67-1.34-2.42-2-3.66,1.24-.24,2.63-.95,3.69-.61,3.4,1.08,6.67,2.53,10,3.87q28.5,11.49,57,23c2.14.87,4.22,1.92,5.92,2.7-4.09,7.89-8,15.35-11.82,22.81l-1.48.07c0-2.43-.35-4.93.07-7.29,1.55-8.87-2.39-17-10.7-20.5-6.36-2.67-13-4.8-19.47-7.12-2-.71-4-1.22-6.68-2-5.41,14.13-10.72,28-16,41.9,20.38,8.49,28.64,14.08,42.25-.74,0,1.78.56,3.8-.09,5.3-3.84,8.92-7.9,17.75-12.05,26.54-.59,1.24-2,2.08-3.11,3.1-.65-1.5-2.09-3.17-1.83-4.49,1.48-7.58-3.39-12-8.53-15-6.24-3.66-13.49-5.62-19.19-7.87-4,9.92-7.91,19.16-11.27,28.61a18.2,18.2,0,0,0-.72,10.1c3.89,14.65,22.62,22.2,36.94,16.92,9.14-3.37,12.39-11.08,19.15-17.4,0,1.91.77,4.34-.12,5.65q-8,11.78-16.82,23c-.93,1.18-3.94,1.92-5.38,1.34C1439.79,204.56,1416.93,195.11,1392.77,185.19Z"/><path d="M750,133c1.32-1.74,2.23-4.18,3.9-4.93,8.83-4,9.46-11.94,8.31-19.32-3.77-24-8.33-47.91-12.82-71.8-1.36-7.27-8.29-11.81-18.73-11.13,2.5-2.53,3.54-4.56,4.85-4.76,25.39-3.9,50.82-7.58,76.21-11.31.42,9,.82,17.54,1.21,26l-1.44.65a48.55,48.55,0,0,1-3.14-6C805,21.24,798.25,17,788.29,18c-1.42.15-2.85.32-4.25.59-7,1.34-14,2.71-21.86,4.24,2.44,15,4.83,29.63,7.21,44.28,21.52-2.63,30.1-1.18,36-21.46.73,1.9,1.87,3.74,2.12,5.71q1.72,13.77,3,27.6c.13,1.5-.91,3.11-1.41,4.66-1.16-.9-2.77-1.55-3.41-2.73-3.84-7.1-10-10.37-17.84-9.14l-17.26,2.7c1.52,9.69,3.78,19.17,4.32,28.74.7,12.24,14.19,20.51,26.54,17.12,17.32-4.76,23.28-12.12,23.85-30.11,0-1.39.33-2.77.74-6.07,1.87,2.56,3.69,3.9,3.6,5.11-.72,10.19-1.65,20.37-3,30.5-.16,1.18-2.95,2.64-4.67,2.9C798.44,126.16,774.87,129.46,750,133Z"/><path d="M630.75,48.2c2.2-2.66,3.12-4.93,4.48-5.25,25-5.77,50.12-11.31,75.21-16.9,1.16,9.1,2.25,17.55,3.33,26l-1.54.76a69,69,0,0,1-3.75-6.49C705,38.43,697.23,33.94,688.7,35.7c-7.22,1.5-14.29,3.67-21.42,5.58-1.59.43-3.12,1-5.21,1.73,3.58,14.71,7.11,29.17,10.82,44.4,13.59-5.31,32.16-2.37,32.27-26,2.15,1.9,3.89,2.67,4.06,3.7,1.86,11.2,3.47,22.44,5.46,35.76C708.37,96.05,704.2,87.92,696.05,89c-7.73,1-15.29,3.22-21.8,4.66,2.26,9.5,4.5,18.34,6.45,27.24,2.8,12.73,10.41,18.35,23.16,17,15.94-1.7,28.82-13.74,26.4-30.56a40.23,40.23,0,0,1,0-5.6l2-1c.93,1.9,2.62,3.77,2.67,5.69.28,9.95.13,19.91.13,29.57l-76.79,17.92c1.23-2.1,1.82-4.58,3.32-5.4,8.35-4.56,8.82-12.41,7.08-19.75-5.6-23.63-12-47.07-18.26-70.54C648.29,50.45,641.63,46.72,630.75,48.2Z"/><path d="M1222.34,23.74c4.24.78,7.17,1.34,10.11,1.87,10.06,1.83,20.13,3.56,30.16,5.57,2,.4,3.75,1.85,5.61,2.81-1.89.72-3.76,1.95-5.68,2-4.13.21-11.93,6.62-13.14,12.15-4.55,20.7-9,41.43-13.12,62.23-1.44,7.26,7.89,21.81,14.83,24.3,3.59,1.28,7.13,2.68,10.74,3.9a28.42,28.42,0,0,0,37-19.9q6.51-24.88,12.88-49.79c2.45-9.6,2.08-18.35-7.76-24.07-.67-.39-1-1.38-.77-3.81l35.34,9.3,1.73,2.44a18.1,18.1,0,0,1-4,1.13c-9.4.51-12.46,7.32-14.93,14.78-6.72,20.29-13.14,40.69-20.29,60.83-3.46,9.74-19.84,18.61-30,19.18-13.63.76-24.88-5.25-36.53-10.57-.84-.39-2-.92-2.25-1.65-3.78-10.4-12.19-19-9-32,4.49-18.49,7.23-37.4,10.7-56.14,1.83-9.93-.42-14.76-9.1-20.27C1223.94,27.51,1223.61,26,1222.34,23.74Z"/><path d="M1785.42,426.13a15.87,15.87,0,0,1-2.32-2.07c-29.76-38.46-66.55-69.49-104.91-98.77-50.85-38.81-104.54-73.37-159.93-105.32-2.23-1.29-4.39-2.7-7.12-4.38,2.4-4.17,4.61-8,7.3-12.7,12.28,7.8,24.39,15.27,36.28,23.07C1614.57,265.28,1673,306.58,1725,356c20.66,19.63,38.73,42,57.91,63.15,1.58,1.74,2.61,4,3.9,6Z"/><path d="M430.65,200.94l7.28,12.44c-50.45,29.09-99.45,59.76-146.18,93.89s-91.91,70.38-127.93,116.55l-1.53-1.09c1.42-2.14,2.76-4.35,4.28-6.42,23.32-31.71,51.51-58.78,81.27-84.25,55.92-47.86,116.1-89.86,178.48-128.78C427.5,202.54,428.77,202,430.65,200.94Z"/><path d="M1331.28,129.05c-1.48,11.61,1.88,21.68,8.37,30.95,3.88,5.55,16.34,8.82,22.73,7.22,11-2.75,13.53-10.69,14.33-20a12.59,12.59,0,0,0-2.07-7.18c-6.82-10.91-13.42-22-21.07-32.33-6.56-8.82-5.14-18.34-1.73-26.43,10.42-24.75,36.46-24.09,54-11,1.52,1.13,2.71,2.74,4.29,3.77,4.43,2.88,4.91,6.24,2.44,10.84-2.82,5.27-5,10.87-7.5,16.33l-1.88-.46c0-4.79-.2-9.59,0-14.36.38-7.29-6.76-16.69-13.94-18-13.18-2.41-15.26-1.41-22.66,10.9-2.65,4.41-.57,16.56,3.72,22,9.12,11.6,18.74,22.85,23.13,37.42,1.52,5.07-1.74,21.92-5.73,25.29-17.68,15-36.48,13.65-54.63.64-7.68-5.51-10-11.62-7.63-20.47,1.35-5,1.73-10.2,2.54-15.31Z"/><path d="M915.49,1587.11c1.29,21.49-16.87,37.35-39.48,37-20.89-.37-38.93-17-37.11-37.58,2.07-23.38,13.31-37.37,45.43-36.3C900.63,1550.73,915.8,1562.46,915.49,1587.11Zm-11.79,1.67c.65-11-3.28-20.35-9.59-29.13-6.14-8.56-20.71-7.73-28.52-2.86-15.5,9.65-16.6,34-10.26,46.75,2.78,5.58,7.87,11.75,13.38,13.9,13.53,5.29,28.95-.19,33.2-16.78C902.9,1596.8,903.13,1592.75,903.7,1588.78Z"/><path d="M681.55,1629.2c-6.53-16.69-12.5-31.9-18.69-47.7l-21.46,48.9c-1.89-4.36-3.37-7.6-4.7-10.9-4.45-11.06-8.62-22.23-13.38-33.15-1.71-3.92-4.79-7.25-7.51-11.24l25.36-3.84c-10.09,6.4-10.08,6.4-6.09,16.69,3.16,8.14,6.27,16.29,10.1,26.25,7.21-16.64,13.7-31.65,20.2-46.65l2.15-.15c5.47,14.24,10.94,28.48,16.94,44.12,4.89-13.41,9.67-25.48,13.43-37.86.67-2.21-2.89-5.71-4.52-8.67l22-2.71c-16.49,10.67-16.86,28.19-23.79,42.23C688,1612,685.3,1619.9,681.55,1629.2Z"/><path d="M1096.73,1554.12c-.38,5.55-.72,10.49-1.06,15.43-3.3-5.16-5.16-12.06-12.57-12.73-6.31-.57-12.72-.12-19.45-.12v27.49c9.81.17,20.29,3.82,26.21-8.57v22.8c-4.3-3.27-7.59-7.17-11.71-8.52s-9.31-.31-14.87-.31c0,6.63-.93,13.44.36,19.8.75,3.72,4.41,8.49,7.87,9.74,14.29,5.14,24.39-1,27.73-15.52.13-.57.7-1,2.09-3,1.91,9.42-1.48,16.19-4,22.72h-54.2c-.46-.69-.92-1.39-1.39-2.08a24,24,0,0,1,3.3-1.16c7.22-1.42,8.48-6.74,8.49-12.86,0-11.93,0-23.86,0-35.79,0-7.86.63-16-10.51-18.38l1.32-1.77Z"/><path d="M1109.79,1555.11l26.3,2c-8,3.73-4.33,8-2,12.17,2.49,4.56,5,9.11,7.53,13.72,11.23-11.17,13.28-17.91,7-24.67l21.67,1.68c-12.58,3.16-16.73,14.54-23.18,23.44-1.19,1.64-1.55,5.11-.62,6.83a289.24,289.24,0,0,0,15.07,25.09c2.31,3.38,6.33,5.59,10.41,9h-25.26c6.32-4.38,3.51-8.56.7-13-3.19-5-6.07-10.2-9.58-16.16-3.79,6.13-7.94,11.66-10.66,17.83-1.06,2.41,1.11,6.24,1.91,9.9H1108c14.43-5.35,19.94-18.91,28.32-31.19C1126.79,1580.47,1125.71,1563,1109.79,1555.11Z"/><path d="M834.94,1601.75c-1.64,5.61-3.19,11.25-5,16.8a5.18,5.18,0,0,1-2.79,2.75c-20,7.7-41.75,4.13-55.77-11.38-4-4.38-6-12.58-5.34-18.65,2.16-20.49,10.19-30.87,30.5-36.17,8.83-2.3,18.42-4.39,28-.19,4.89,2.15,7.19,4.54,6.89,9.86-.18,3.2.51,6.45.8,9.68l-1.88.67a43.66,43.66,0,0,1-2.86-5.88c-3.09-9.9-5.8-12.17-16-13-13-1-28.11,9.89-30.62,22.59-1.12,5.7-2.15,11.79-1.37,17.45,2.25,16.31,17.54,27.1,33.83,24.79,8.48-1.2,12.7-7.54,16.8-13.93a41.18,41.18,0,0,0,2.69-6.1Z"/><path d="M973.08,1547.29c8.45,4.36,57.37,5,64.22,1,.51,6.66,1,13.11,1.49,19.55l-1.53,1.33c-4.61-13-14.18-15.84-27.23-14,0,4.22.05,8.63,0,13-.14,11.21-.37,22.42-.45,33.64-.07,11.86.95,13.31,11.64,17.93.71.3,1.25,1,2.94,2.43h-38.9c3.25-1.62,4.6-2.66,6.1-3,7-1.45,9-6.53,9.07-12.65.15-17.17.05-34.35.05-52.85-6.14.56-12.2-.15-17.06,1.93-4.31,1.85-7.28,6.8-12.11,11.65C971.92,1560.33,972.47,1554.18,973.08,1547.29Z"/><path d="M745.15,1623.64c12.38-9.78-2.37-16.94-.53-25.26-8.11,0-15.17-.09-22.21.09a4.22,4.22,0,0,0-3.14,2,140,140,0,0,0-5.4,14.75c-2,7.22,4.39,7.08,8.38,9.63H699c7.61-3.12,9.64-10.16,12.33-16.79q9.54-23.49,19.33-46.88c1-2.38,2.76-4.44,5.27-8.36,4.52,12,8.07,22,12,31.87s8.2,19.26,12.52,28.78c2,4.33,4.42,8.44,6.66,12.64l3.66-2.52ZM720.9,1594h21.81c-4-8.67-7.53-16.48-11.55-25.27C727.57,1577.55,724.32,1585.57,720.9,1594Z"/><path d="M1244.46,1626h-23.71c2-3.14,5.49-6.13,5-8-1.72-6.07-3.41-14.47-7.86-16.87-5.84-3.14-14.33-2-21.62-1.55-3.42.2-8.69,18.91-6.16,21.28,1.83,1.7,4.85,2.13,9.13,3.84h-25.27c9.25-3.94,10.88-12.77,14.29-20.27,5.9-13,11.61-26.07,17.64-39,1.07-2.29,3.35-4,5.08-6,1.42,2.24,3.21,4.33,4.2,6.75,6.31,15.38,12.07,31,18.85,46.18C1236.3,1617.51,1241,1621.61,1244.46,1626Zm-26.27-28.9-11.4-25.87L1196.12,1595Z"/><path d="M1250.15,1609.85c4,4.11,7.46,8.88,12,12.18,6.17,4.46,13.14,4.85,19.9.39,5-3.32,5.36-8.91.3-12.59-6.17-4.47-12.47-8.81-19-12.78-6-3.66-8.71-8.81-7.23-15.44,1.56-7,7.58-11.29,15.27-11.3a47.39,47.39,0,0,1,12.71,1.72c10.78,3,11.28,4.18,8.59,17a47.32,47.32,0,0,1-3-5.18c-3-7.6-12-12.67-19.4-9.94-2.32.85-5.09,4.51-5,6.81.1,3.09,2.11,6.76,4.44,9,3,2.91,7.22,4.56,10.78,6.93s6.84,5.16,10.45,7.42c9.86,6.16,7.17,17.54-3.65,21.72-11,4.25-22.42,4-32.44-1.79-3.59-2.09-4.43-8.91-6.52-13.58Z"/><path d="M916.67,1641.78c2.89-4.06,8-8.29,9.05-13.38,1.77-8.17-9.77-5.1-12.23-12.12l7.63-5.8c8.24,4.61,12.39,12.56,10.14,20.26A14.91,14.91,0,0,1,916.67,1641.78Z"/><path d="M548.25,1475.17c3.11-15.62,5.81-29.2,8.61-43.25l10.67-1c-5.58,10.12,0,45,8.55,52l-16.43,2.3c4.91-8.85,4.91-8.85-2.19-40-2.87,13.93-5.74,27.86-8.9,43.17l-18.47-35.54c.74,11.8-4.29,24.52,5.72,34.32-4.92,1.1-10.08,2.49-15.33,3.38-6.67,1.14-11.57-1.35-14.19-7.88-1.32-3.31-2.79-6.58-4.41-9.75-2-3.86-4.85-5.79-9.25-3.62,0,14.86.75,16.87,8.95,22.44l-18.52,2.9c7.7-9.29,3.33-45.65-7.22-52.49,8.35-1,15.75-3.62,22.46-2.42,12.22,2.18,13.89,18.18,5.25,24.21,3.27,6.3,6.15,12.82,10,18.73,1.49,2.3,5.43,4.78,7.67,4.32s4.81-4.56,4.9-7.16a265.41,265.41,0,0,0-.49-32.16c-.33-3.87-3.58-7.48-5.64-11.5l9.83-1C535.87,1448.38,541.66,1460.92,548.25,1475.17Zm-56.54-9c9.18-2.78,11.82-7.25,10-15.65-1.23-5.83-6-8.85-13.13-7.91Z"/><path d="M1442.61,1441.58c6.76-1.72,10.75,1.33,13.85,8,5.57,12,12.09,23.57,19,36.9,1.53-11.31,3.36-20.85,3.84-30.45.18-3.49-2.86-7.14-4.42-10.68l12.56,2.08c-2,4.77-4.73,9.39-5.68,14.36-2.4,12.6-4,25.34-6.15,39.77-8.5-15.85-16.22-30.22-24.12-44.94-5.44,16.55-5.37,29.64.54,39.58l-31.53-4.4c7.65-7.06,2.32-14.35,2.18-21.93l-12.56-1.95c-7.38,12.69-7.88,16.81-2,21.95l-13-1.67c2.46-3.81,5.24-7.2,7-11.06,5.6-12.09,10.82-24.37,16.23-36.55.91-2.06,2-4,3.07-6l2.07.19c1.13,8.71,2.14,17.44,3.44,26.13,1.2,8,2.32,16.06,4.28,23.88.68,2.73,3.8,4.84,5.8,7.23,2.1-2,5.61-3.75,6.06-6.08a301,301,0,0,0,5-34.53C1448.43,1448.33,1444.66,1445,1442.61,1441.58Zm-23.26,6.42-1.68-.14-7.42,16.9,12.54,1.83C1421.53,1459.75,1420.44,1453.88,1419.35,1448Z"/><path d="M897.71,1462.21c8.43-8,8.15-45-.58-52.26,13.44-1.35,26.25-4.23,36.86,7.08,8.29,8.82,8.48,19.47,5.18,29.34a22.45,22.45,0,0,1-21,15.79C911.59,1462.43,905,1462.21,897.71,1462.21ZM909.3,1412c0,13-.39,26,.28,39,.16,3.06,3.42,7.73,6.09,8.42,3.17.82,8.25-.81,10.74-3.21,8.81-8.49,7.7-19.35,4.91-30C928.82,1416.78,919.85,1411.19,909.3,1412Z"/><path d="M873.33,1462.81H855.59c8.21-7.7,7.56-44.57-2.43-52.78,8.46,0,15.58-.9,22.27.38,3.39.65,7.6,4.75,8.66,8.16,2.07,6.6,1,13.37-5.57,16.43,2.08,5.31,3.64,10.52,6.12,15.25,2.32,4.42,5.63,8.33,8.31,12.18-5.6,1.63-10.62-.5-12.82-6.5-1.38-3.79-2.33-7.75-3.78-11.51s-3.64-6.81-9.39-5.25C867.71,1447.21,862.92,1456.47,873.33,1462.81Zm-6.77-27.08c9.53-1.38,12.86-5.83,11.72-14.27-.88-6.51-5.55-9.94-11.72-8.89Z"/><path d="M1074.42,1411.18c7.69,0,14.71-1,21.17.42,3.49.79,7.58,5.45,8.62,9.14,1.83,6.54-.56,12.7-7.59,16.21,6.88,8.17,2.73,22.12,15.48,27-7.26,2.48-12.35.12-14.38-6.54-1.19-3.85-1.85-7.87-3.07-11.72-1.32-4.19-3.69-7.26-8.85-6-2.56,13.76-1.9,17.21,5,23.62h-17.88C1081.24,1454.11,1082.68,1418.33,1074.42,1411.18Zm11.69,24.67c7.22.49,11.3-2.94,11.73-9.64.56-8.69-2.91-12.88-11.73-13.5Z"/><path d="M1289.36,1449.85c5.87,8.8,1.42,22,13.45,27.29-6.4,2.41-11.74-.17-13.48-6.51-1.13-4.13-1.67-8.42-2.71-12.58s-3-7-8.83-6c-.61,8.09-5.32,16.72,5.53,24.09l-19.8-1.82c9.17-7,12.76-44.24,4-52.63,8.53.82,16.29-.06,22.61,2.55C1300.68,1428.61,1300.87,1442.5,1289.36,1449.85ZM1280,1425c-.7,8.18-1.36,15.88-2,23.72,9.91-.83,13.19-4.3,13.06-13C1291,1429.4,1287.25,1425.52,1280,1425Z"/><path d="M992.53,1424.25c2.69,12.17-4.74,25.76,6.6,37.47l-18.44.85c8.09-4.27,9.55-10,9.39-16.63-.18-7.14,0-14.3.16-21.44.17-6.52-.58-12.41-9.17-14.22,7.67-3.32,12.17-1.88,16.2,4.58,7,11.28,15,21.94,22.76,33.05,4.56-12.64,1.51-33.52-5.92-38.73h14.15c-1.33,4.73-3.55,9.29-3.73,13.93-.5,13.29-.18,26.61-.18,39.92l-1.81.49-28.28-39.66Z"/><path d="M629,1454.15c1.2,7.62-2.25,16.78,9.79,22.14l-19.71,2.21c7.72-8.34,4.63-45-4.65-52.61,7.51-.74,14.54-2.88,21-1.74,10.91,1.94,15.39,15,4.77,25.51,7.32,7.43,5.39,21.33,18.86,24.92-8.32,2.68-13,.83-15.82-5.66-1.52-3.48-2.34-7.39-4.4-10.49-1.78-2.65-4.89-4.42-7.4-6.58Zm-.37-3.65c10-1.89,12-8.18,10.58-15.53-1.1-5.83-5.84-8.91-12.85-8.08C627.14,1434.57,627.87,1442.26,628.67,1450.5Z"/><path d="M803.71,1414.54v14.84c-1.4-3.06-1.68-4.52-2.55-5.4-3.14-3.21-6.23-8.37-9.8-8.77-4.47-.51-10.76,1.66-13.84,5-9.34,9.95-4.5,34.82,7.77,40.86,3.82,1.88,9.74,2.29,13.51.64,3.35-1.45.06-11.18-4.66-15-.26-.21-.17-.84-.33-1.72l12.54-.9c-.27,5.57-.54,11.2-.89,18.54-5.87,5.7-21.07,6.71-29.8.13-8.95-6.74-13.65-24-6.25-37.81C774.84,1414.75,785.5,1408.41,803.71,1414.54Z"/><path d="M613.25,1463.93a130.7,130.7,0,0,1-1.42,13.16c-.26,1.31-2.39,3-3.84,3.2-9.15,1.11-18.36,1.84-27.66,2.71,7.11-10.21,3.63-45.73-5.74-53.11l31.19-3v11.43c-4.94-8.85-7.58-9.71-19-5.88.7,6.37,1.41,12.88,2.14,19.62,7.15.72,12.37-.56,14.74-8.13q.68,8.22,1.36,16.42c-4.17-5.86-9.4-5.85-15.54-3.5.35,3.63.89,7.35,1,11.1.19,5.67,2.18,10,8.38,10.38s10.25-3.11,11.72-9.23a51.17,51.17,0,0,0,.73-5.42Z"/><path d="M1065.86,1410.62c-.49,4-.9,7.23-1.21,9.74-2.06-2.3-3.91-6-6.77-7.13-3.2-1.29-7.32-.3-11.53-.3v20.6c6,.44,12,1.49,15.17-6.2-.26,5.43-.53,10.86-.74,15.19l-14.35-7c-.47,6-.89,9.68-1,13.41-.17,5.22.34,10.28,6.77,11.58s11.28-2.07,13.34-8.86c.4-1.31.59-2.69.87-4l1.75.32c-1,5.11-2,10.23-2.93,15.11h-33.32c11.58-7.34,7.61-17.76,7.86-26.53s4.25-19-5.82-27.36Z"/><path d="M945.68,1462.12c8.7-8.09,9-45.58.82-53.08h30.3v10.4c-2.6-2.73-4.54-6.3-7.43-7.41-3.24-1.25-7.34-.29-11.07-.29v21.19c6.53.07,12.33.52,14.76-6.9v14.72l-15.09-6.1c0,5.77.26,9.49-.06,13.17-.49,5.51.46,10.12,6.63,11.44,6.33,1.36,11.1-1.65,13.22-7.92.57-1.69.78-3.5,2.86-5-.71,4.21-1.09,8.52-2.3,12.59-.42,1.37-2.92,3-4.52,3C964.78,1462.27,955.74,1462.12,945.68,1462.12Z"/><path d="M1393.21,1448.77c-.52-2.34-1-3.89-1.19-5.46-.7-5.16-3.47-9.52-8.6-7.31-2.8,1.21-4.88,6.85-5,10.57-.1,2.85,3.1,6,5.28,8.7,4.63,5.68,10.19,10.7,9.08,19.21-.84,6.45-4.28,11.37-10.29,11.85-5.11.4-11.4-1-15.36-4-2.45-1.86-1.52-8.17-.89-12.71a98.53,98.53,0,0,0,3.91,9.41c2.59,4.79,6.45,7,11.68,3.88,4.56-2.7,5.71-8.93,2.38-13.6-3-4.26-6.62-8.12-9.8-12.28-4.74-6.21-3.28-12.77.12-18.71,2.6-4.56,7.09-6.66,12.76-5.58C1396,1434.38,1397,1436.73,1393.21,1448.77Z"/><path d="M441.34,1500.75c1.52-7.91,3.19-15.61,4.44-23.37,1.67-10.35,3-20.75,4.54-31.12.23-1.5,1-2.91,2.16-6.26,1.72,3.63,2.71,5.61,3.6,7.63,4.76,10.9,9.28,21.92,14.35,32.68,2.44,5.18,5.9,9.88,9,15l-13.8,2c6.13-9.14-2.73-14.31-3.2-22.39-5.21,3.16-12.39-1.93-14.34,6.32-2.41,10.17-1.4,14.3,4.56,17.7-2.51.3-4.51.46-6.48.79S442.09,1500.59,441.34,1500.75ZM461.27,1473c-3.31-6.76-6-12.2-8.65-17.63l-1.46.36-2.61,18Z"/><path d="M1245.18,1414.32c6,20.88,4.76,41.55,15.38,59.88l-14.6-.94c7.13-7.58,1.24-14.63.85-22.29l-13.88-.75c.08,7.4-9.44,13.78.06,21.73l-12.67-1c2.22-3.88,4.79-7.41,6.38-11.34,5.08-12.59,9.76-25.35,14.68-38C1242.15,1419.63,1243.35,1417.8,1245.18,1414.32Zm-3.41,12.43c-2.91,7.68-5,13.33-7.53,19.9l12.48,1.51C1245.09,1441.08,1243.67,1435,1241.77,1426.75Z"/><path d="M437.75,1485.36c-5.08-8.12-5.63-8.3-15.82-6.13,1.91,7.84-.37,17.31,11.7,22.52l-18.81,3.36c6.19-9.44.05-46.68-9.11-52.17l30.49-5.48c.4,4.41.76,8.3,1.15,12.48-2.74-2.94-4.79-6.84-7.86-8s-7.27.42-11.39.84c1.23,7.81,2.32,14.77,3.44,21.92,6.54.73,11.82.19,14-7.25C436.23,1472.82,436.88,1478.16,437.75,1485.36Z"/><path d="M1516.28,1465.47a17.51,17.51,0,0,1-.56-3c.1-4.68-1.09-8.82-6.15-9.89a7.12,7.12,0,0,0-6,2.17c-3.13,4.35-3.56,9.28-.19,13.9s7.28,8.79,10.2,13.62c3.87,6.42,1.45,15.17-4.69,19.46-5.41,3.78-15.94,3-19.49-2.54-2.07-3.25-1.61-8.11-2.29-12.25l1.71-.29c1.27,3.08,2.34,6.28,3.87,9.23,2.63,5.09,6.65,6.83,11.7,3.42s5.41-8.24,2.39-13c-2.92-4.62-6.69-8.69-9.7-13.25-4.07-6.17-2.66-12.85,1.19-18,2.25-3,7.48-5.28,11.36-5.26C1518.94,1449.81,1521,1455,1516.28,1465.47Z"/><path d="M829.1,1407.15c9.33,18.44,10.76,39.23,23.2,56.32H838.13c6.23-7.66-1.37-13.84-1.65-21.06h-13c-5.35,13-5.17,17.42,1.41,22.09H812.08c7.84-13.67,8.79-29.77,13.47-44.74C826.85,1415.6,827.92,1411.36,829.1,1407.15Zm6.56,31.83L829,1421.09l-1.51.23c-1.43,5.75-2.85,11.5-4.38,17.66Z"/><path d="M660.31,1459.05c2.43,3.67,3.88,6.65,6,9,4.71,5,8.89,5.2,12.68,1,3.53-3.88,3.07-9.93-1.27-13.78-3.91-3.48-8.17-6.57-12-10.1-5.51-5-5.57-11.82-3-17.71,1.51-3.45,6-6.93,9.77-7.8,9-2.08,12.06,2.16,10.3,14.15-1-2.39-1.63-3.77-2.09-5.21-1.51-4.76-4.52-7.49-9.58-5.85-5.34,1.74-5.37,6.93-3.85,10.57s5.49,6.14,8.2,9.31c4,4.72,9.74,9,11.47,14.52,3.24,10.27-5.12,18.66-15.84,17.63C663.1,1474,661.67,1472.06,660.31,1459.05Z"/><path d="M1116.33,1450.29c1.26,2.72,2.24,5.63,3.85,8.12,3,4.65,6.9,7.54,12.39,3.63,4.94-3.51,5.11-9.71.55-14.78-3.35-3.72-7.1-7.11-10.23-11-4.6-5.7-4.12-12.54-.59-18,2.14-3.27,7.35-5.93,11.41-6.27,9.21-.78,10.81,2.7,7.62,14.9-.69-2.38-1.34-4.06-1.66-5.81-1-5.26-4.58-8.14-9-6-2.56,1.22-5.08,6.59-4.46,9.39.87,4,4.29,7.63,7.29,10.8,5,5.25,11.21,10.3,9,18.18-1.31,4.61-5.18,10.27-9.28,11.81s-11,.11-15-2.57c-2.71-1.83-2.49-8-3.58-12.23Z"/><path d="M1343.19,1441.28c-2.5-7.56-7-10.94-15.89-10.33-1.16,13.77-2.6,27.62-3.23,41.51-.11,2.45,3.21,5.06,5.31,8.12l-21.28-1.86c11.83-3.78,9.93-12.63,10.78-20.2,1-9.21,1.7-18.47,2.52-27.56-8.65-3-10.52-2.25-17.44,6,.78-4.24,1.56-8.48,2.1-11.46l37.91,3.6C1343.76,1432.35,1343.48,1436.82,1343.19,1441.28Z"/><path d="M1360.12,1484.41l-16.33-2.49c1.54-4.77,3.7-9.7,4.67-14.86a143.14,143.14,0,0,0,2.5-21.92c.16-5.07-1.19-10.18-1.84-15.11l16,2.28c-10.19,5.78-7.65,16.43-8.54,25.39C1355.68,1466.38,1349.33,1476.14,1360.12,1484.41Z"/><path d="M1175,1440.83c0-6.75,4-12,9.37-11.56,6.8.6,7.53,6.08,7.76,11.34.25,5.84-3.87,11-8.37,11C1177.51,1451.62,1175,1448.5,1175,1440.83Z"/><path d="M717.86,1441.32c-.19-6,3.52-10.78,8.52-10.94,4.59-.16,8.6,5.16,8.83,11.7.22,6-3.47,10.42-8.85,10.62C720.76,1452.9,718.11,1449.36,717.86,1441.32Z"/><path d="M887.41,779.92c-26.45.84-52.91,2.33-79.37,2.23-12.74,0-25.69-2.13-38.16-5-20.75-4.75-28.28-19.12-20.2-38.87,9.38-22.92,19.84-45.4,30.22-67.89,4.21-9.14,12.32-14.35,21.54-17.76,20.81-7.68,42.51-11,64.52-11.2,39.59-.25,79.19-.08,118.77.78,19.44.42,26,7.1,29.9,26.11,5.81,28.55,6.07,57.29,3.18,86.17-1.13,11.3-7,19.08-17.86,21.49a182,182,0,0,1-34.54,4.79c-26,.7-52,.22-78,.22C887.43,780.64,887.42,780.28,887.41,779.92Zm2.56-3.26v-.15c14.79,0,29.58-.2,44.36.06,12.9.22,17.09-2.65,20.19-15.2,5.87-23.83,3.54-47.37-3.12-70.6-3.7-12.92-13.22-20.26-26.26-20.68-24.73-.8-49.51-.67-74.26-.28-11,.18-12.75,2.67-13.19,13.33-1.19,28.82-2.26,57.64-3.57,86.46-.23,5,1.64,7.08,6.46,7.07Q865.28,776.63,890,776.66Zm66.13-.2c15.33.46,31.42.06,46.71-6.46,5.62-2.39,9.38-6.67,10.09-12.9,3.48-30.28,3.57-60.45-3.51-90.32-3.51-14.79-9.22-19.27-24.49-19.72-17.4-.51-34.81-1.64-52.2-1.48-28.83.27-57.65,1.36-86.47,2.08-6.83.17-9,3.86-8.48,10.27.52,6.75,4.49,8.31,10.27,7.74,2.38-.24,4.74-.53,7.11-.79,26.45-2.84,52.84-3.3,79,2.3,7.56,1.62,14.12,4.86,17.3,12.4,7.5,17.77,12.07,36.34,10.73,55.65C961.26,748.89,958.26,762.41,956.1,776.46ZM814.27,731.13c1-18.6,1.89-32.61,2.58-46.63.41-8.29-.93-9.12-9-6.24-9.36,3.34-17.18,9-21.29,18-8,17.44-15.37,35.2-22.48,53-4,9.92-1.78,14.47,7.68,20,10.91,6.34,23,7.08,35.17,7.52,5.5.19,7.56-1.69,7.43-7.38C814,755.1,814.27,740.82,814.27,731.13Zm-57.43,33c.45-4,.2-7.94,1.4-11.37,5.66-16.17,11.09-32.48,17.79-48.23,7.61-17.91,21.25-29.61,40.52-34.13,3-.71,6.17-.91,9.1-1.86,6.38-2.06,9.6-6.7,9.85-13.39.15-3.91-1.47-5.94-5.61-5-8.37,1.81-17.21,2.56-24.95,5.87-6.68,2.85-14.05,7.42-17.75,13.34-15.05,24.1-26.18,50.2-35.15,77.19C749.78,753.28,751.43,759.07,756.84,764.1Zm75.52-90.88c-12.13-.36-12.66.16-12.35,11.79.13,5,.57,10,.43,15-.62,23.12-1.37,46.23-2.12,69.35-.15,4.31.31,7.39,6.09,7.06,5-.29,7-1.59,7-7.15-.15-11.88.84-23.77.95-35.66C832.5,713.66,832.36,693.7,832.36,673.22Z"/><path d="M903.6,1090.48q63.58-1.23,127.17-2.51c9.53-.2,10.71-1.5,10.79-9.25.27-26.22.87-52.45.89-78.67,0-42.45.21-84.92-.6-127.36q-1.36-70.8-4.54-141.56a477.52,477.52,0,0,0-5.86-56.87c-4.6-27.81-17-40.23-44.71-44.56-19.88-3.1-40.1-3.94-55.52-5.37,14.21-2.63,33.24-2.44,52.08,1.2,43.49,8.4,49.31,20,53.72,54.63,3.91,30.64,4.58,61.74,6,92.66,1.88,42.41,3.84,84.83,4.33,127.26.49,42.21-.76,84.44-1.33,126.66-.25,18.36-.72,36.72-1.08,55.08-.16,8.6-.82,9.29-9.57,9.29H903.6Z"/><path d="M733.28,737.59c-3.65,18.65-9.12,37.17-10.57,56-2.42,31.57-3,63.33-3.06,95-.06,62.26.79,124.52,1.27,186.78,0,2.39-.08,4.78.06,7.16.47,8,3.14,10.51,11.17,10.67,2.37,0,4.75-.39,7.13-.39q34.68,0,69.35,0c0,.88,0,1.75,0,2.62-14.72,0-29.45,0-44.17,0-11.21,0-22.43.19-33.64.22-10.46,0-12.32-1.74-12.73-12.49-.64-16.44-1.47-32.88-1.66-49.32q-.95-84.09-1.46-168.18c-.21-33.41,0-66.82,8.85-99.42,2.68-9.82,5.69-19.55,8.55-29.33Z"/><path d="M750.59,1156.61c154.85-12.53,309.92-23,451.87-21.14Z"/><path d="M1681.16,942.84c-22.13-4.55-44.72-11.19-67.74-13.45-32.68-3.21-65.73-5.14-98.51-4.11-51.19,1.6-102.29,6.15-153.44,9.43-1.63.11-3.28,0-4.92,0-.06-.6-.11-1.21-.17-1.81,33.72-3.59,67.36-8.56,101.17-10.4,38.28-2.08,76.71-2.15,115.06-1.61,33.23.47,66,5.4,97.52,16.83C1674.31,939.25,1678.22,941.46,1681.16,942.84Z"/><path d="M783.69,1116.21,1180.87,1100l.12,3.13-397,16.23C783.89,1118.31,783.79,1117.26,783.69,1116.21Z"/><path d="M1668.3,973.05l-319.11,13.19c0-1.1-.09-2.2-.14-3.3l319.21-13.55C1668.27,970.61,1668.28,971.83,1668.3,973.05Z"/><path d="M743.54,806.56c88.48-4.42,177-5.85,265.59-3.59l0,2.43-265.59,3.51C743.57,808.13,743.55,807.34,743.54,806.56Z"/><path d="M333.15,858.25c99-7.9,198.05-9.64,297.21-3.57A2674.19,2674.19,0,0,1,333.15,858.25Z"/><path d="M629.25,948.37c-17.47-4.22-34.84-9.18-52.52-12.51-39.07-7.35-78.64-8.54-118.27-7.44-31.45.88-62.91,1.83-94.31,3.66-27.83,1.62-55.59,4.5-83.39,6.81a15.81,15.81,0,0,1-7.92-.92c14.4-1.91,28.77-4,43.18-5.69a1271.39,1271.39,0,0,1,183.5-8.46C539,925,578,928.93,615.58,942.05c4,1.41,7.93,3.23,11.85,4.94A8.5,8.5,0,0,1,629.25,948.37Z"/><path d="M593.84,799.08,326.92,822.29C392.26,810.15,568.19,795.15,593.84,799.08Z"/><path d="M1721.61,870.47c-.28-4.64-.7-9.27-.81-13.92-.2-8.6-2-10.42-10.68-10.12-17.15.6-34.3,1.41-51.45,1.93q-66.48,2-133,3.76c-70.54,1.82-141.08,3.91-211.63,5.09-46,.78-92,.15-134.74.15,6.77-.29,16.91-.84,27.06-1.15q92.92-2.79,185.85-5.46c47.91-1.29,95.82-2.29,143.73-3.36q89-2,178.06-3.84c9-.19,9.33.14,9.36,9,0,5.95,0,11.91,0,17.87Z"/><path d="M470.3,1230.71c-37.49-1.4-63.23-26.44-68.39-65-5.2-38.78,19.84-78.5,57.1-90.61,39.11-12.71,78.32,10.57,87.37,51.85,10.19,46.49-18.75,92.74-64.21,102.43A108.69,108.69,0,0,1,470.3,1230.71Zm73.23-82.38,1.86-.51c-3.15-11.38-5-23.29-9.68-34-14.1-32.59-49.65-46-81.78-31.83-38.58,17-58,64.06-42.62,103.26,9.53,24.27,32.18,40.34,57.14,40.54C508.52,1226.07,543.71,1189.79,543.53,1148.33Z"/><path d="M1461,1211.68c-38.38,0-69.36-31.57-69.42-70.69s31-70.55,69.49-70.64,69.2,31.24,69.21,70.68C1530.26,1180.29,1499.46,1211.71,1461,1211.68Zm0-4.54c35.21,0,64.54-29.72,64.71-65.65.18-36.4-28.9-66.61-64.33-66.83s-65,29.94-65.05,66.13C1396.28,1177.21,1425.43,1207.11,1461,1207.14Z"/><path d="M525.28,1154.89c-.85,25.56-18.09,47.43-41.07,52.1-29.25,5.94-55.26-14.64-57-45.09-2-36.09,28.37-64,61.68-56.51C510.28,1110.18,526.05,1131.63,525.28,1154.89Z"/><path d="M1461.44,1093.74c25.13.07,44.74,20.7,44.61,46.94s-19.85,46.67-45,46.63-45-20.46-45.08-46.7C1415.84,1114.21,1435.78,1093.67,1461.44,1093.74Z"/><path d="M787.47,932c-.07.34,0,.69-.19.85a2.86,2.86,0,0,0-.14,3.9l7.91,9a2.87,2.87,0,0,0,3.53.83,1,1,0,0,1,.9.2c-.17.14-.33.3-.52.44-2,1.42-4,2.84-6,4.24a3.25,3.25,0,0,1-1,.27,18.79,18.79,0,0,0,1-2.28,3,3,0,0,0-1-3c-2.55-2.69-5-5.49-7.47-8.25l-.33.11q2.12,8.52,4.22,17.08L772,949.12a5.59,5.59,0,0,0,.38.56l6.7,8.27a2.43,2.43,0,0,0,3.25.72c.46-.22,1-.83,1.26-.15-1.73,1.75-3.35,3.41-5,5-.18.18-.63.07-1,0a2.73,2.73,0,0,0,.91-2.86,3.77,3.77,0,0,0-.49-1.3c-2.26-3.17-4.56-6.31-6.84-9.46a3.23,3.23,0,0,0-4.07-.91c-.55.32-.94.41-1.15-.32l5.42-4.63c.9.19.39.79.18,1.34l14.67,6.25c-.4-1.31-.93-2.67-1.23-4.09-.68-3.2-1.26-6.41-1.85-9.63a1.51,1.51,0,0,0-1-1.39,1,1,0,0,1-.57-.59c0-.13.29-.41.5-.55Z"/><path d="M836.91,929.78a7.59,7.59,0,0,1-6.42.75,2,2,0,0,1-.81-.56c-.9-1-1.79-1.91-2.64-2.91-2-2.33-3.43-2.36-6.18-1,.7,1.69,1.33,3.42,2.11,5.08.58,1.21,1.72,1.41,3,1.29a5.8,5.8,0,0,1,1.47.35l-8.62,3.49c.18-.33.26-.72.5-.92,1.55-1.29,1.72-1.93.91-3.78l-4.71-10.77a2.43,2.43,0,0,0-3-1.45,3.15,3.15,0,0,1-1.33.1c.19-.25.32-.65.56-.75,3.21-1.3,6.41-2.66,9.69-3.78.94-.32,2.14.14,3.22.16a3.14,3.14,0,0,1,3.26,2.71,4.3,4.3,0,0,1-1.25,4.46,11.84,11.84,0,0,0-1.28,1.15c1.43-.39,2.17.49,3,1.35,1.42,1.49,2.9,2.94,4.39,4.36a1.69,1.69,0,0,0,1,.38c.71,0,1.44-.07,2.16,0A3.66,3.66,0,0,1,836.91,929.78Zm-20-12.52a4.9,4.9,0,0,1,.74,1c1,2.33,2,4.67,2.94,7.06,1.48-.81,2.91-1.34,3.9-2.82a3.24,3.24,0,0,0,.3-3.82c-.27-.47-.37-1.13-.76-1.41A6.39,6.39,0,0,0,816.88,917.26Z"/><path d="M858,925.57a9.73,9.73,0,0,1-8.09-1.31c-2.65-1.77-5.48-3.27-8.43-5a13.61,13.61,0,0,0,2.34,6.77c.3.39,1.08.44,1.65.59s1.15.08,1,.77L838,929.44a4.87,4.87,0,0,1,.83-.75,2.74,2.74,0,0,0,1.38-3.15q-1.56-5.5-3.1-11a3.39,3.39,0,0,0-3.22-2.7,2.65,2.65,0,0,1-.74-.27v-.31c.48-.11,1-.2,1.43-.34,2-.56,4-1.16,5.93-1.7a3.46,3.46,0,0,1,1.08.13,18.44,18.44,0,0,0-1.88,1.86,1.83,1.83,0,0,0-.13,1.33c.36,1.51.84,3,1.22,4.48a11,11,0,0,1,.2,1.71c1.16-1.33,2.41-2.59,3.47-4s1.73-2.81,2.59-4.22c.54-.87.21-1.53-.82-1.68-.24,0-.47-.12-.86-.23,1.47-.74,7-1.49,7.65-1-5,1.65-6.71,6.32-9.49,9.85a9.39,9.39,0,0,1,1.75.7c2,1.4,4,3,6.08,4.27,1.81,1.14,3.6,2.42,5.85,2.63C857.41,925,857.6,925.27,858,925.57Z"/><path d="M980.18,959.12c.49.5.53.87-.06,1.2-1.47.82-2.93,1.65-4.41,2.44a.83.83,0,0,1-.77-.13c-3.7-3.4-7.3-6.91-11.59-9.6l0-.37a3.86,3.86,0,0,1,1.13,0,3.33,3.33,0,0,0,4.13-1.16l7.15-8.7c1.33-1.6,1.22-2.86-.44-4.2l.54-.71L989,949.1l-3.59,3c0-.23-.11-.48-.16-.74,0-.06.06-.12.09-.18.35-.85,1.39-1.54.59-2.66a16.65,16.65,0,0,0-1.71-2.39c-1.3-1.22-2.75-2.28-4.16-3.43l-5.16,6c1.92,1.11,3.09,3.26,5.48,3.47a11.47,11.47,0,0,0,2.58-.39c-.05.24,0,.68-.2.86-1.37,1.29-2.78,2.52-4.32,3.9a2.68,2.68,0,0,1-.24-.89c0-.41.44-.88.33-1.21a5.55,5.55,0,0,0-1.13-2.15c-1.08-1.11-2.33-2-3.44-3a5.84,5.84,0,0,1-.6,1.2c-.9,1-1.85,2-2.78,3.05a3.74,3.74,0,0,0-.21,3.55,9.51,9.51,0,0,0,4.11,3.35,4.34,4.34,0,0,0,4.23-.24C979.16,959.79,979.65,959.47,980.18,959.12Z"/><path d="M874.78,918.15c.17.28.52.6.48.84-.34,1.64-.74,3.27-1.18,4.89-.05.21-.48.42-.75.44-2.92.16-5.84.23-8.76.45-1.81.13-3.6.46-5.61.56.24-.27.43-.63.72-.78a3.15,3.15,0,0,0,2-3.69c-.46-3.9-.91-7.79-1.48-11.67a3.08,3.08,0,0,0-1.19-1.71,6.14,6.14,0,0,0-2-.53c-.21-.44.1-.58.7-.63,3.57-.25,7.14-.54,10.71-.79,1.67-.12,3.35-.18,4.93-.26-.1,1.49-.19,2.87-.28,4.38a4.26,4.26,0,0,1-.58-.28c-.07,0-.06-.19-.1-.28-.37-.82-.15-2-1.45-2.23a16.28,16.28,0,0,0-2.8-.49c-1.67,0-3.34.28-5.09.45.25,2.57.49,5,.75,7.71,2-.47,4.23.18,6-1.27a11.69,11.69,0,0,0,1.52-2.09c.12.27.38.56.39.86,0,1.77,0,3.55,0,5.45-.34.16-.71.29-1-.4a3.15,3.15,0,0,0-2.79-1.79c-1.44.08-2.88.23-4.28.34a7.15,7.15,0,0,1,.37,1.3c.13,1.3.16,2.61.34,3.9a3.71,3.71,0,0,0,4.45,2.86c1.69-.17,3.38-.34,4.56-2a4,4,0,0,0,1-2.17c0-.44.15-.87.23-1.31Z"/><path d="M970,941.13c-.7-.33-.89-.72-.55-1.35a5.63,5.63,0,0,0,.5-1.25,4.09,4.09,0,0,0-.64-4c-1.77-2.24-4.25-2.95-6.67-3.82-.71-.25-1.67.18-2.51.3-3.44.46-5.17,2.87-6.77,5.63-1.41,2.42-.79,4.81.15,6.89,1.05,2.3,2.83,4.54,5.57,4.94a7.45,7.45,0,0,0,5.88-1.3c.57-.46.63-.39,1,.24-1.35.93-2.7,1.88-4.07,2.79a1,1,0,0,1-.75.14c-3-1.06-5.89-2.27-8.14-4.78a16.17,16.17,0,0,1-3.6-6.48,2.27,2.27,0,0,1-.1-1.09,26.45,26.45,0,0,1,1.14-4,13.58,13.58,0,0,1,1.62-2.08c1.54-2.22,4-2.63,6.35-3.26.68-.19,1.53.26,2.31.34,3.51.38,6.27,2.4,9,4.33,1.11.79,1.7,2.3,2.5,3.5a.64.64,0,0,1,0,.55C971.52,938.67,970.77,939.9,970,941.13Z"/><path d="M902.35,918a28,28,0,0,0-.78,4.86,2.71,2.71,0,0,0,1.88,2.78c.27.08.45.44.67.68a2.77,2.77,0,0,1-.9.06,22.69,22.69,0,0,0-6.61-.91c-.5,0-1.13,0-.72-.94a2.34,2.34,0,0,0,2.51-1.1,3.83,3.83,0,0,0,.68-1.41c.62-3.94,1.19-7.89,1.78-11.84a2.89,2.89,0,0,0-2-2.83,1,1,0,0,1-.61-.56c4.1.66,8.36.37,12.13,2.23a9.93,9.93,0,0,1,3.12,2.91c.32.42-.12,1.38-.13,2.1,0,2.31-1.93,3.28-3.45,3.89s-3.71.35-5.58.4A12.79,12.79,0,0,1,902.35,918Zm.17-.84c2.2,1.14,4.17.24,6.16-.17a.69.69,0,0,0,.37-.33c.85-1.47,1.94-2.89,1-4.75-.21-.45-.27-1.08-.62-1.33a10.9,10.9,0,0,0-5.69-2.49,5,5,0,0,1,.13,1.39C903.47,912.09,903,914.65,902.52,917.2Z"/><path d="M891,899.78l-6.55-.36c.31-.24.46-.46.65-.51a2.6,2.6,0,0,0,1.91-2.18c.12-1.64.17-3.29.25-5l-8.67-.37c.08,1.6.13,3.16.24,4.73.12,1.78.14,1.77,1.94,3.24h-6.66c.46-.33.66-.59.92-.65a2,2,0,0,0,1.53-2.15c.07-3.4,0-6.81,0-10.22a2.67,2.67,0,0,0-1.65-2.41c-.23-.09-.36-.41-.69-.8,2.46,0,4.61,0,6.76,0,0,0,.1.34.16.52a2.71,2.71,0,0,0-2.33,2.69c-.06,1.2-.12,2.41-.17,3.61a1.66,1.66,0,0,0,.07.4l8.67.31c0-1,0-1.89,0-2.83,0-.44,0-.89,0-1.34,0-1.8-.23-2.12-2.1-2.79.29-.33.28-.28,3.19.06a32,32,0,0,0,3.69,0c-.2.21-.32.44-.48.48a2.66,2.66,0,0,0-1.91,2.07c-.32,3.46-.66,6.92-.91,10.38a2.43,2.43,0,0,0,1.19,2.35A8.29,8.29,0,0,1,891,899.78Z"/><path d="M799.24,923.13c4.92,4.11,9.78,8.17,14.65,12.2a4.51,4.51,0,0,0,4,1c-.17.26-.28.64-.52.76-1.74.89-3.5,1.75-5.28,2.56-.28.13-.68,0-.93,0a16.75,16.75,0,0,0,.81-1.73c.26-.78-.45-1.06-.89-1.44-1-.83-2-1.63-2.92-2.47a7.43,7.43,0,0,1-.79-1L801,936.51c.38,1.68.64,3.3,1.12,4.85a4.65,4.65,0,0,0,1.38,1.82c.18.15.79-.18,1.2-.29l1.19-.29.06.25L800,946.43c0-.25-.12-.71,0-.79,1.23-.82,1-2,.84-3.16-.6-4.29-1.31-8.57-1.94-12.85-.23-1.57-.33-3.15-.57-4.71A1.53,1.53,0,0,1,799.24,923.13Zm1.4,12.35,6-3.08-7.11-5.23C799.92,929.88,800.27,932.59,800.64,935.48Z"/><path d="M947.66,942a2.46,2.46,0,0,1-.91-.08c-1.76-.87-3.49-1.77-5.21-2.71-.27-.15-.41-.54-.63-.84a11.64,11.64,0,0,0,1.68-.14,1.39,1.39,0,0,0,1-1.45c.09-1.3.24-2.6.4-3.9a11.3,11.3,0,0,1,.32-1.28l-6.47-3c-1.16,1.21-2.31,2.28-3.29,3.49a5.18,5.18,0,0,0-.91,2.2c-.05.22.6.59.93.89a2,2,0,0,1,.67.94L929,933.59c.19-.14.46-.49.61-.45,1.63.51,2.58-.61,3.57-1.51,3-2.74,5.94-5.54,8.93-8.29,1.26-1.16,2.62-2.23,3.89-3.4a1.87,1.87,0,0,1,2.13-.42c-.13,1.23-.25,2.51-.39,3.79-.51,5-1,9.92-1.55,14.89a3.62,3.62,0,0,0,1.48,3.51Zm-2.77-19.92-6.37,5.62,6,3C944.66,927.85,944.77,925.1,944.89,922.12Z"/><path d="M885.09,906.52a18,18,0,0,0-6.42.28c-.23,0-.46.37-.61.62-.43.74-.81,1.5-1.23,2.29-.65,0-.94-.21-.79-.94.29-1.4.47-2.83.73-4.44,1.63,1.63,3.56,1,5.33,1.14,4,.3,8.11.51,12.16.68a11.15,11.15,0,0,0,2.39-.44c-.07,1.45-.14,3-.25,4.65,0,.19-.29.35-.44.53-.14-.16-.34-.29-.4-.48a4.64,4.64,0,0,0-4.21-3.48c-1.06-.12-2.11-.21-3.3-.33-.09.95-.17,1.82-.24,2.7-.3,3.7-.61,7.41-.88,11.12a3,3,0,0,0,2.06,3.2c.53.22,1,.51,1.54.77l-.14.24-10-.6-.06-.18c.55-.18,1.1-.38,1.66-.54a3.11,3.11,0,0,0,2.4-3c.17-4.23.32-8.46.49-12.69C884.94,907.27,885,906.92,885.09,906.52Z"/><path d="M927.35,913.25a4.41,4.41,0,0,1-1.07.21,7.88,7.88,0,0,0-1.9-.18,2.49,2.49,0,0,0-2,1.91c-1.17,3.92-2.52,7.79-3.79,11.67-.48,1.45-.08,2.19,1.35,2.62a23.06,23.06,0,0,1,2.75.85,4.93,4.93,0,0,0,6.35-1.42c.53-.63,1-.49,1.44.06-1.07,1.27-2.12,2.55-3.21,3.78a.85.85,0,0,1-.76.22,64.27,64.27,0,0,0-14.16-4.35l-.09-.36c.27-.12.56-.36.82-.33a2.65,2.65,0,0,0,2.87-1.84q1.69-6,3.38-12a2.26,2.26,0,0,0-1.75-3c-.23-.06-.45-.15-.73-.23l.28-.81,10.1,3Z"/><path d="M901.43,901.2a8.27,8.27,0,0,1-7.5-4.34c-.53-.87-.36-2.14-.63-3.19-.73-2.82.93-4.95,2-7.25,0-.06.07-.14.12-.16,1.71-.66,3.21-1.92,5.18-1.8.86.06,1.71.23,2.57.24,1.38,0,2.32.92,3.37,1.61,2.49,1.63,2.85,4.14,2.74,6.81a9.1,9.1,0,0,1-2.42,5.86,3.77,3.77,0,0,1-1.25,1C904.22,900.53,903,901.65,901.43,901.2Zm-5.89-8.52.24.07a3,3,0,0,1,0,.52c-.14,2.18.88,4,2,5.73a1.13,1.13,0,0,0,.5.47c1.51.5,2.92,1.23,4.63.35a5.24,5.24,0,0,0,2.29-1.85,11.42,11.42,0,0,0,1.49-4.12,9.19,9.19,0,0,0-1.48-7.23,2.17,2.17,0,0,0-.45-.55c-2.08-1.53-6.13-1-7.39,1.3A30.19,30.19,0,0,0,895.54,892.68Z"/><path d="M858.94,887.38c.29,2.87.61,5.74.85,8.61a3.14,3.14,0,0,0,1,2.38c.33.27.74.44,1.09.69a8,8,0,0,1,.75.67l-6.08.84-.31-.39.66-.22c1.79-.62,2.12-2.13,2-3.72-.2-3-.54-6-.83-8.94a3.13,3.13,0,0,0-2.64-2.41c-.27,0-.53,0-1.05-.09.3-.27.42-.49.58-.53a20,20,0,0,1,3-.5,2.09,2.09,0,0,1,1.24.74c3.6,3.64,7.18,7.31,10.78,11-.05-1-.09-2-.15-3.11-.1-1.93-.2-3.85-.33-5.77a6.32,6.32,0,0,0-.28-1.29c-.37-1.33-1.42-1.61-2.68-1.55l0-.26c.16-.14.32-.39.49-.39a45,45,0,0,1,5.78.2,2.52,2.52,0,0,0-2.13,1.88,2.32,2.32,0,0,0-.16.68c.09,4.1.18,8.19.3,12.28a18.6,18.6,0,0,0,.27,1.91Z"/><path d="M818.23,901.14c.44,1.43.82,2.83,1.31,4.18a2.16,2.16,0,0,0,2.21,1.63,1.21,1.21,0,0,1,.93.48l-6.47,2.19c.32-.43.46-.77.71-.92a2,2,0,0,0,.84-2.5c-1.12-3.43-2.3-6.84-3.46-10.25a1.91,1.91,0,0,0-2.08-1.25l-1.06.11c.37-.43.51-.74.73-.81,2.2-.76,4.4-1.56,6.64-2.17a4.86,4.86,0,0,1,4.15,1.06c1.55,1.19,1.16,4.36-.36,5.62a6.51,6.51,0,0,0-.48.45,13.07,13.07,0,0,1,1.62,1.36c1.06,1.22,2.08,2.48,3,3.77a2,2,0,0,0,1.82.88c.57,0,1.32-.23,1.66.58a5.19,5.19,0,0,1-4.53.15,2.34,2.34,0,0,1-.86-.67c-.71-.92-1.4-1.87-2.07-2.83C821.37,900.55,820.24,900.12,818.23,901.14Zm-.24-.82a4.12,4.12,0,0,0,3.5-3.44,3.38,3.38,0,0,0-1.28-3.18c-1.56-1.1-3.16-1.39-4.59-.46Z"/><path d="M807.77,906.49c.32-.41.46-.79.7-.88,1.44-.54,2.9-1,4.48-1.56.36.86-1.45,1.51-.51,2.62a20.47,20.47,0,0,1,1.67,2.74,8,8,0,0,1-3.86,2.8,14.49,14.49,0,0,1-4.2,1.25,10.07,10.07,0,0,1-5.71-1.71,2.26,2.26,0,0,1-.64-.63c-.3-.46-.5-1-.84-1.42a6.91,6.91,0,0,1-1.35-5.91,16,16,0,0,1,1.11-2.82,7.17,7.17,0,0,1,3.54-3.39,19.26,19.26,0,0,1,6.6-1.78l1.32,4.39c-.47-.38-.81-.53-1-.79a3.87,3.87,0,0,0-3.77-2,7.88,7.88,0,0,0-3.86,1.39c-2.25,1.67-2.62,4-1.66,6.63.29.8.56,1.62.88,2.41a6.6,6.6,0,0,0,4.18,3.72,8.08,8.08,0,0,0,6-.31,1.12,1.12,0,0,0,.56-1.57c-.16-.34-.27-.7-.41-1.06C810.37,906.74,810,906.47,807.77,906.49Z"/><path d="M936.7,909.78c.34-.12.65-.34.91-.3a2.17,2.17,0,0,0,2.4-1.68c1.3-3.29,2.48-6.63,3.67-10a2.11,2.11,0,0,0-.88-2.44c-.15-.1-.2-.35-.29-.53.18,0,.38-.14.53-.09.49.16,1,.37,1.44.56l8.23,3.32c.31.13.61.28.85.39l-1.7,3.29h-.22a6.13,6.13,0,0,1,0-1.05,2.59,2.59,0,0,0-1.54-3c-.92-.38-1.87-.69-2.81-1-.29-.1-.58-.18-1-.29l-2.31,6c2.94,1.23,4.13,2,6.1-.11a2.2,2.2,0,0,1,0,.77c-.56,1.29-1.14,2.56-1.74,3.83-.09.18-.3.3-.45.45-.1-.22-.3-.46-.27-.65a2,2,0,0,0-1.23-2.17,18.9,18.9,0,0,0-2.77-1.14c-.57,1.44-1.14,2.77-1.62,4.13a2.61,2.61,0,0,0-.11,1.46c.57,2.11,3.27,3.2,5.33,2.44,1.32-.48,1.79-1.6,2.77-2.51,0,.28.11.63,0,.82-.77,1.13-1.58,2.24-2.43,3.32a.86.86,0,0,1-.77.19C943.48,912.57,940.19,911.21,936.7,909.78Z"/><path d="M843.94,902.25c.2-.25.33-.6.57-.71a2.32,2.32,0,0,0,1.2-2.79c-.55-3.47-1.21-6.91-1.85-10.36-.2-1-1.2-1.7-2.71-1.61.37-.36.51-.65.7-.68,3.67-.57,7.34-1.1,11-1.63.06,1.3.12,2.53.18,3.75l-.21.09a5.93,5.93,0,0,1-.46-.86,2.51,2.51,0,0,0-2.88-1.79,6.17,6.17,0,0,0-.62.08l-3.15.61,1,6.39c3.1-.38,4.34-.17,5.19-3.09a3.72,3.72,0,0,1,.31.82c.17,1.33.31,2.65.43,4a1.84,1.84,0,0,1-.21.68c-.16-.13-.4-.23-.49-.4a2.35,2.35,0,0,0-2.57-1.32l-2.49.39c.22,1.4.54,2.77.62,4.15a3,3,0,0,0,3.83,2.47c2.5-.69,3.36-1.75,3.44-4.34,0-.2.05-.4.11-.88.27.37.53.56.52.74-.11,1.47-.24,2.94-.43,4.4,0,.17-.42.38-.67.42C850.94,901.26,847.54,901.74,843.94,902.25Z"/><path d="M826.74,890c.32-.38.45-.71.65-.76,3.61-.83,7.23-1.63,10.85-2.43.17,1.31.33,2.53.48,3.75l-.22.11c-.18-.31-.39-.61-.54-.94a2.51,2.51,0,0,0-2.85-1.53c-1.05.21-2.07.53-3.1.8-.22.06-.45.15-.75.25l1.56,6.41c2-.77,4.64-.34,4.66-3.76.31.28.56.39.59.54.26,1.61.5,3.24.78,5.16-.91-.69-1.51-1.87-2.68-1.72s-2.21.47-3.15.68c.33,1.37.65,2.64.93,3.93a2.77,2.77,0,0,0,3.34,2.45c2.3-.25,4.16-2,3.81-4.41a5.48,5.48,0,0,1,0-.81l.28-.14c.14.27.38.54.39.82,0,1.44,0,2.87,0,4.27l-11.08,2.58c.17-.3.26-.66.48-.78a2.31,2.31,0,0,0,1-2.85c-.81-3.41-1.73-6.79-2.64-10.18C829.27,890.34,828.31,889.8,826.74,890Z"/><path d="M912.11,886.48l1.46.27c1.45.27,2.9.52,4.35.81a3.21,3.21,0,0,1,.81.4,3.25,3.25,0,0,1-.82.3A2.76,2.76,0,0,0,916,890c-.65,3-1.29,6-1.89,9-.21,1,1.14,3.15,2.14,3.5.52.19,1,.39,1.55.57a4.11,4.11,0,0,0,5.34-2.87c.62-2.4,1.24-4.79,1.85-7.19.36-1.38.3-2.65-1.12-3.47-.09-.06-.14-.2-.11-.55l5.1,1.34.25.35a3.08,3.08,0,0,1-.57.17c-1.36.07-1.8,1-2.15,2.13-1,2.93-1.9,5.87-2.93,8.78-.5,1.4-2.87,2.68-4.33,2.76-2,.11-3.59-.75-5.27-1.52-.12-.06-.29-.13-.33-.24-.54-1.5-1.76-2.74-1.3-4.61.65-2.67,1-5.4,1.54-8.11a2.38,2.38,0,0,0-1.31-2.92C912.34,887,912.29,886.81,912.11,886.48Z"/><path d="M993.36,944.55a3.31,3.31,0,0,1-.34-.3c-4.29-5.55-9.6-10-15.13-14.25a213.67,213.67,0,0,0-23.08-15.2l-1-.63,1.05-1.84c1.78,1.13,3.52,2.21,5.24,3.33,8.64,5.68,17.07,11.63,24.57,18.77,3,2.83,5.59,6.06,8.36,9.11a6,6,0,0,1,.56.86Z"/><path d="M797.87,912.05l1,1.8a229.23,229.23,0,0,0-21.09,13.55c-6.76,4.93-13.27,10.15-18.46,16.81l-.22-.16c.2-.3.39-.62.61-.92A74.18,74.18,0,0,1,771.49,931a212.72,212.72,0,0,1,25.75-18.58C797.41,912.28,797.6,912.2,797.87,912.05Z"/><path d="M927.83,901.68a6.12,6.12,0,0,0,1.21,4.46,3.82,3.82,0,0,0,3.28,1.05c1.58-.4,1.95-1.55,2.06-2.9a1.77,1.77,0,0,0-.3-1c-1-1.58-1.93-3.18-3-4.67a3.68,3.68,0,0,1-.25-3.81c1.51-3.57,5.27-3.48,7.8-1.59.22.17.39.4.62.55a1,1,0,0,1,.35,1.56c-.41.76-.73,1.57-1.08,2.36l-.27-.07c0-.69,0-1.38,0-2.07a2.84,2.84,0,0,0-2-2.6c-1.9-.35-2.2-.2-3.27,1.57a3.77,3.77,0,0,0,.54,3.18,16.83,16.83,0,0,1,3.33,5.4,5.82,5.82,0,0,1-.82,3.65c-2.55,2.16-5.27,2-7.88.09a2.46,2.46,0,0,1-1.11-2.95,20.38,20.38,0,0,0,.37-2.21Z"/></g></g></svg>