<?xml version="1.0" encoding="utf-8"?>
<!-- Generator: Adobe Illustrator 23.0.2, SVG Export Plug-In . SVG Version: 6.00 Build 0)  -->
<svg version="1.1" id="Layer_1" xmlns="http://www.w3.org/2000/svg" xmlns:xlink="http://www.w3.org/1999/xlink" x="0px" y="0px"
	 viewBox="0 0 1925.9 1701.2" style="enable-background:new 0 0 1925.9 1701.2;" xml:space="preserve">
<style type="text/css">
	.st0{fill:#FFFFFF;}
</style>
<title>GHM Logo</title>
<g>
	<g id="Layer_1-2">
		<path class="st0" d="M554.6,1625c-21.1-1.1-40.6-2.2-60-3.2c-61-3.4-122-6.7-183.1-3.4c-79.8,4.3-156.5,22.5-231,50.7
			c-26.5,10-52.6,21-80.5,32.2c8.3-7.9,15.3-15.1,22.8-21.6c28.1-24.4,55.3-49.9,84.7-72.5c40.4-31,86.1-51.2,137.2-58.6
			c-78.2-16.9-155.4-39.8-237.2-37.2c2-1.2,4-2.5,6.1-3.7c36.6-20.7,76.4-31.7,117.7-38.3c64.5-10.2,129.3-9.5,194.2-6.4
			c1.6,0.1,3.2,0,5.4,0c-1.6-19.9-19.1-33.4-20.2-53.8c18.4-3,36.2-6.1,54.1-8.7c55.5-8.1,110.8-16.7,166.4-23.7
			c49-6.1,98.1-11.2,147.3-15c61.3-4.7,122.8-8.5,184.3-11.1c51.2-2.1,102.6-2.7,153.9-2.4c82.3,0.5,164.6,4.9,246.3,14.6
			c102.1,12.2,203.9,26,305.8,39.1c9.9,1.3,19.8,3,30.4,4.7c0.5,18.4-12.7,33.3-13.3,52.2h11.3c40.8,0.1,81.6-1.4,122.3,0.7
			c50.3,2.6,97.2,18.4,140.3,44.7c1.2,0.7,2.2,1.8,2.8,3c-68.3-8.2-129,17.8-191.9,40.7c14.8,3.3,28.3,5.6,41.4,9.2
			c47.2,13.1,88.9,37.1,126.7,67.5c29.7,23.9,58,49.6,86.8,74.5l-1.3,1.9c-12-5.1-23.9-10.2-35.9-15.2
			c-59.6-24.6-120.5-45-184.1-56.7c-50.7-9.4-102.3-13.4-153.8-12c-57.7,1.7-115.3,5-173,7.6c-1.4,0.1-2.8,0-5.9,0
			c1.7-3.9,2.5-7.6,4.6-10.3c6-7.7,12.8-14.8,18.9-22.4c4.8-5.9,9.8-11.8,13.3-18.5c5-9.3,1.8-15.2-8.4-16.3
			c-53.1-6-106.2-12.4-159.3-17.6c-48.4-4.8-96.9-8.8-145.4-12.1c-37.1-2.6-74.3-4.4-111.5-5.4c-77.1-2-154,3.3-230.8,9.9
			c-72.7,6.3-145.4,13.6-218,20.5c-12.4,1.2-18.8,10.4-13.9,21.9c3.4,7.9,9.1,15,14.3,22c4.3,6,9.5,11.3,13.8,17.3
			C551.5,1616.8,552.5,1620.4,554.6,1625z M344.7,1565.4c3.6-0.4,5.7-0.6,7.8-0.9c23.9-3.1,47.8-6.4,71.7-9.2
			c51.6-6.1,103.3-12.4,155-17.6c57.4-5.8,114.9-11.4,172.5-15.1c64.5-4.1,129.1-6.4,193.7-8.6c80.2-2.7,160.3,1,240.2,8.8
			c55.5,5.4,111,11.8,166.5,17.9c63.3,7,126.6,14.2,189.9,21.2c12.7,1.4,25.5,2.3,40.1,3.7c-25-51.1-20.5-100.5,3.4-149.4
			c-2.7-0.7-4-1.1-5.4-1.3c-37.4-6-74.8-12.9-112.3-17.6c-62.5-7.8-125.1-14.9-187.7-20.8c-50.1-4.8-100.3-8-150.6-10.7
			c-59.1-3.2-118.2-7.3-177.3-6.9c-68.9,0.5-137.8,4.2-206.6,8.8c-61.4,4.1-122.6,10.5-183.7,17.6c-60.2,7-120.1,16-180.1,24.2
			c-13.4,1.8-26.7,4.2-40.8,6.5c10.5,24.3,19,48.4,20.1,74.2C362.2,1516.1,355.1,1540.5,344.7,1565.4L344.7,1565.4z M1881.5,1675.9
			c0.2-0.4,0.3-0.7,0.5-1.1c-1.3-1.3-2.7-2.6-4.1-3.7c-25.8-18.9-50.8-38.9-77.5-56.3c-40.1-26.1-83.2-46.6-130.7-55.9
			c-11.7-2.3-23.6-3.2-35-4.6c15-6.5,30.4-12.8,45.4-19.8c37.1-17.5,75.4-30.8,116.6-34.4c10.4-0.9,20.9-1.5,32.6-2.3
			c-46.1-27.3-155.1-38.3-247.3-25.6c-3,35.7,7,69.7,15.3,104.3c-56.6,10.8-110.9,29.4-167.9,35.6c3.1,0.5,6.2,0.6,9.3,0.5
			c39.1-1.4,78.1-3.1,117.2-4.1c48.5-1.2,96.8,0.5,144.7,9.1c59.7,10.7,116.5,30.4,171.9,54.7
			C1875.5,1673.5,1878.5,1674.7,1881.5,1675.9L1881.5,1675.9z M49.5,1500.2c20.6,2.7,41.2,4.7,61.7,8.1s40.7,7.7,60.9,12.4
			c20.4,4.8,40.7,10.3,60.9,15.9c19.7,5.4,39.2,11.3,58.8,17.1c-93.4,1.2-204.5,78.3-241.2,115.2c13.1-5.4,25.3-10.6,37.6-15.7
			c78.8-32.3,160.6-49.9,246.1-47.5c34.1,1,68.1,2.9,102.2,4.4l60,2.7c-60.2-7.5-118.1-25.5-177.5-37.1c-0.1-1.6-0.1-3.3,0-4.9
			c3.8-19.4,7.9-38.7,11.5-58.1c2.1-11,3.4-22.2,5-33.1C237.3,1466,143,1478,49.5,1500.2L49.5,1500.2z"/>
		<path class="st0" d="M1757.4,829.7c-14.1,10-15.9,24-15.1,39.1c2.7,52.7,5.4,105.3,8.1,157.9c0.2,3.3,0.2,6.7,0.3,10
			c0.3,7.6,3.3,13.4,10.9,15.9s10.3,7.7,9.6,15.4c-1.2,13.8-2,27.6-3.2,41.4c-0.2,2-1,4.8-2.4,5.4s-4.1-0.8-5.5-2.1
			c-17.3-16.4-34.7-14.7-53.3-2.5c-14.5,9.5-31,13.7-48,14.8c-16.6,1.1-30.7-5.8-40.2-19.3c-8.9-12.7-16.7-26-23.4-40
			c-9.5-20.1-33.4-28.7-53.5-19.2c-0.7,0.3-1.4,0.7-2,1c2.3,2.6,4.4,5,6.7,7.4c45.6,48.6,46.3,116,1.6,164.7
			c-46,50.2-133.3,52.3-182.2,4.6c-18.5-18.1-30.7-39.4-34.8-65c-0.9-5.8-3.3-7.7-9.1-6.4c-30.5,6.7-61.4,8.3-92.5,8.1
			c-98.6-0.7-197,3.2-295.4,8.7c-67.6,3.8-135.2,7.8-202.9,11.4c-22.9,1.2-45.8,1.9-68.7,1.7c-28.5-0.3-52.8-9.8-68.7-35.2
			c-0.2-0.3-0.8-0.4-2-1.1c-0.9,50.6-21.4,90-65.5,115.4c-31.5,18.1-65.3,23.1-100.8,14.4c-25-6.1-46.3-18.7-64.1-37.2
			c-17.5-17.8-29.2-40.6-33.4-65.2c-4.5-25.4-0.4-49.8,8.9-74c-14.1-0.4-26.6,3.3-38.7,8.5c-2,0.9-3.4,3.8-4.5,6
			c-3.8,7.4-6.8,15.3-11,22.4c-6,10-14.9,16-27,16.1c-8.3,0.1-16.7,0-25-0.2c-7.2-0.2-13.8-3.2-16.6-9.6
			c-4.4-10.1-7.3-20.9-10.4-31.6c-1-3.6-0.2-7.6-0.5-11.3c-1-11.1,1.3-20.7,11-27.8c5.4-3.9,4.3-18-1.8-19.5
			c-18-4.1-19.4-19.1-20.8-32.6c-1.3-11.9,0.6-24.2,1.7-36.3c0.5-3.2,2.2-6.1,4.8-8.2c5.9-4.3,7.6-9.9,7.6-16.8
			c0.1-10-0.1-20.1,1.2-29.9c2.1-15.4,10.6-27,24.5-34.1c5.9-3,7.7-6.7,6.9-13c-2.1-15.9-1-32,3-47.5c5.5-21.1,19.1-33.4,40.7-35.6
			c42-4.3,84-8.5,126.1-11.5c68-4.8,136.2-8.4,204.2-12.7c25-1.6,49.9-4,74.9-5.8c10.2-0.7,16.5-6,20.8-15
			c18-37.6,36.4-75,54.3-112.7c9.9-20.7,25.7-33.8,47.5-40.2c31.4-9.1,63.5-13.4,96-14.2c38-0.9,76-1.3,113.1,8.5
			c13.3,3.6,26.3,8.4,38.7,14.4c15.8,7.7,23.5,21.5,24.5,39.2c3,55,6.3,110,9.2,165c0.3,6.5,3.2,8,9,7.8c38.4-1.1,76.8-2.1,115.2-3
			c50.8-1.2,101.6-2.2,152.4-3.2c55.8-1,111.6-1.8,167.5-3c10.2-0.2,18.3,1.5,22.1,12.5c2.3,6.6,8.4,8.1,14.7,7.9
			c28.4-0.7,56.7-1.6,85.1-2.3c32.4-0.8,64.9-1.3,97.3-1.9C1755.5,829.1,1756.4,829.4,1757.4,829.7z M720.1,1101.1
			c2.5,14.6,1.5,26.9-7.5,36.1c-7.5,7.7-16.8,13.8-25.9,19.5c-5.1,3.2-11.6,4.2-17.5,6.1c-5.6,1.8-8.5,5.3-7.5,11.2s5.5,5.7,10,5.3
			c4.8-0.3,9.5-0.6,14.3-0.9c64.3-3.5,128.6-7.1,192.9-10.4c65-3.3,130-7.1,195.1-9.2c60.6-2,121.2-1.7,181.8-3.3
			c20.7-0.6,41.3-3.8,61.9-6.1c8.5-1,15.5-5.2,19-13.4c7-16.4,14.2-32.8,20.4-49.5c6.8-18,15.2-35,27.9-49.6
			c14.8-17,33.2-28.4,55.8-30.6c23-2.2,46.2-3.8,69.2-3.2c43.4,1.1,72.3,24.1,90.3,62.8c5.9,12.5,12.9,24.4,21,35.6
			c12.1,17,29.5,23.2,49.2,16.9c18.1-5.7,35.2-14.3,52.9-21.3c6-2.4,8.1-6.8,8.7-12.7c2.8-31.2,3.7-62.4,0.1-93.6
			c-4.5-38.3-24.2-64.6-61.4-77.6c-50.1-17.4-101.9-22-154.3-22.3c-33.6-0.2-67.2,1.3-100.8,2.8c-30.7,1.4-61.4,4-91.5,11.1
			c-40.1,9.5-65.8,32.9-72.7,74.8c-2,12-5.4,23.8-7,35.8c-2.6,19.6-5.6,39.3-5.8,58.9c-0.2,24.4,10.1,36.2,33,44.4
			c8.5,3,16.8,6.8,24.6,11.2c8.5,4.9,8.9,11.4,1.5,20.8c3.2-13.6-4.7-18.4-14.2-22.2c-7.3-2.9-14.6-5.8-21.9-8.7
			c-14.2-5.6-22.9-15.8-25.9-30.8c-2-9.8-3.4-10.9-13.4-10.8c-33.2,0.5-66.3,1.2-99.5,1.6c-12.9,0.2-14-0.8-14.3-13.5
			c-1.7-54.8-3.3-109.7-4.8-164.5c-0.4-14.3-0.6-28.6-1-42.9c-0.2-6-1.3-11.5-10-11.9c2.3,76.9,4.6,153.6,6.9,230l-2.4,0.5
			c-0.8-2.4-2.1-4.7-2.1-7.1c-1.5-40.5-2.8-81-4.2-121.5c-2.2-65.5-4-131.1-6.9-196.6c-1.6-36.4-4.9-72.8-7.5-109.2
			c-0.6-8.7-4.1-16.7-11.2-21.6c-9-6.1-18.5-11.9-28.6-15.6c-29.2-10.8-59.8-13.8-90.7-14.5c-45-1-89.6,1.7-133.3,14
			c-21.2,6-36.7,18.3-46.3,38.4c-18.5,38.7-37.4,77.2-55.8,115.9c-4.2,8.8-9.9,13.2-19.7,13.6c-9.1,0.3-18.2,2-28.9,3.3
			c12.2,11.2,18.6,23.8,20.2,38.5c2.3,20.8,1.2,41.5-4.4,61.7c-4.6,16.9-12.6,30.9-32.5,34.7c6.7,3.5,12.8,6.1,18.2,9.8
			c15.5,10.6,22.6,26.7,27.5,43.9c13,45.8,19.2,92.9,24.3,140.1c0.1,0.6,0.3,1.3,0.5,1.9L720.1,1101.1z M243.9,1085.6
			c-9,4.1-12.7,3.3-21.7-3.4c-7.9-5.9-11.2-4.9-13.1,4.8c-3.6,18.5-1,36.2,8.7,52.4c2.6,3.9,6.4,7,10.8,8.6
			c22.2,8.2,45.4-1.7,55.4-23.6c5.6-12.3,10.6-25,15.6-37.6c21.5-53.8,61.2-84.4,118.8-89.4c48.5-4.2,90.9,10.1,123.7,48
			c20.8,23.8,36.7,51.4,46.8,81.2c9.2,27.2,27.8,43.8,56.5,48.4c4.4,0.7,10,2,11.2-4.2c1.7-9.2,7.9-12.1,15.9-14
			c11.7-2.8,22.4-8.4,31.4-16.4c7-6.3,9.3-13.9,8-23.2c-2.1-14.6-3.5-29.3-5.3-44c-4.8-40-10.9-79.8-24.1-118.2
			c-6.1-17.8-17.8-29.8-35.7-36.4c-45-16.5-91.9-23.2-139.2-27.9c-75.3-7.5-150.5-5.1-225.7,3.3c-1.7,0.2-3.5-0.6-5.3-0.9
			c0-0.7,0-1.4,0-2c2.1-0.7,4.2-1.8,6.4-2c26.1-2.1,52.3-4.4,78.5-5.9c57.2-3.4,114.6-1.5,171.4,5.8c30.2,4,60,10.9,90,16.3
			c21,3.8,42.4-0.7,49.3-28.8c1.9-7.6,4.1-15.3,5.1-23c2.3-17.9,2.3-35.8-3.7-53c-6.1-17.5-16.5-24.2-34.6-23.2
			c-17.2,0.9-34.3,2.1-51.4,3.2c-58.3,3.7-116.6,6.9-174.9,11.1c-42.8,3.1-85.5,7.2-128.2,11.5c-23,2.4-33.5,12.8-39.4,35.3
			c-4.1,15.8-3.8,31.7-2.2,47.6c0.5,4.5,0.5,8.3-4.7,10.6c-20.5,8.9-29.8,25.7-28.4,46.9c2.4,36.4,6.7,72.6,10.3,108.9
			C221.6,1067.7,224,1082.2,243.9,1085.6z M1746.1,833.5c-5.2,0-8.8-0.1-12.3,0l-204.6,5.2c-56,1.4-112,2.9-168.1,4.3
			c-81.1,2-162.1,3.9-243.2,5.8c-9.6,0.2-11.2,1.8-11,11.4c1,33.8,1.9,67.7,2.9,101.6c1.1,34.8,2.3,69.6,3.3,104.4
			c0.2,6.1,2.2,9.4,8.8,9.3c34.6-0.6,69.2-1.1,103.8-1.4c5.3-0.1,7.5-2.5,7.9-7.9c0.7-12.1,0.9-24.4,3.2-36.3
			c4.8-25,9.8-50.1,16.8-74.6c7.6-26.9,28.7-42.2,54-49.8c20.4-6.1,41.8-9.5,63-12.1c64.6-8,129.4-8.2,194.3-4.8
			c38,2,75.3,8,111.1,21.9c34,13.2,54.8,37.2,59.7,73.8c4.4,33.5,4,67.1,1,100.7c-0.2,2.5-0.5,6.3,0.8,7.3
			c8.1,5.9,16.6,11.2,25.6,17.1c1.3-14.2,2.5-26.8,3.7-39.3c0.7-6.9-2.4-11.7-8.7-14c-8.1-3-11.3-8.6-11.7-16.9
			c-2.4-46.9-5.2-93.8-7.5-140.7C1737.7,876.8,1733.2,854.9,1746.1,833.5z M484.8,1048.9c-63.1-0.1-116.7,57.3-112.6,120.3
			c3.5,53.4,43.7,93.3,97.6,91.9c62.5-1.6,111-53.5,110.8-116.4C580.4,1092.2,537.1,1048.9,484.8,1048.9z M1363.3,1142.8
			c2.7,11.8,4.2,23.9,8.1,35.3c16.3,46.9,65.7,74.8,111.8,64.1c65.8-15.3,98.4-91.9,64.6-151.5c-20.1-35.5-59.4-56.1-96-50.4
			C1400.9,1048.2,1364.8,1090.7,1363.3,1142.8z M1554.1,833.5c-1.4-10.3-6.2-15.3-15-16c-4-0.2-8.1-0.3-12.2-0.1
			c-64.4,1.2-128.8,2.5-193.2,3.7c-39.3,0.8-78.7,1.3-118,2.3c-38.6,0.9-77.2,2.2-115.8,3.5c-2.6,0.1-7.4,2-7.3,2.8
			c0.3,3.9,0.8,9.2,3.4,11.2c3.4,2.6,8.8,3.7,13.4,3.7c29.6-0.4,59.1-1.3,88.7-2c34.8-0.8,69.6-1.5,104.4-2.4
			c68.2-1.7,136.4-3.4,204.5-5.2C1522.6,834.5,1538.3,834,1554.1,833.5L1554.1,833.5z M538.7,1050.9
			c-15.5-28.1-74.3-58.8-133.6-46.9c-60,12-96.6,55.7-104.6,97.1c8.4-1.9,16.7-5.2,25-5.3c11.2-0.1,17.6-5.2,23.8-13.9
			c43.8-62.4,116.9-64.7,163.1-45C521.3,1040.9,529.7,1046.1,538.7,1050.9z M1575.2,1038.7c-5.3-10.6-19.9-22-36.2-25.9
			c-38.1-9.3-76.2-6.9-114,1.8c-5.3,1.2-10,4.9-15,7.5c1.5,1.5,2.2,1.6,2.9,1.4c40.7-12.3,79.1-7.5,115,15.8
			c2.2,1.5,4.7,2.3,7.3,2.3C1548.7,1040.8,1562,1039.6,1575.2,1038.7z M205.8,975.1c-6.2,4.7-10.4,7.7-4.8,13.6
			c1.2,1.5,2,3.3,2.3,5.1c3.4,14.5,5.3,29,1.9,43.8c-1.7,7.4,0.3,9.4,9.3,8.8C211.6,1023.3,208.8,1000,205.8,975.1z M199.8,1034.5
			l2.6-0.2c-1.1-14.9-2.2-29.8-3.3-44.6l-2.4,0.2C194.1,1005,194.6,1019.9,199.8,1034.5L199.8,1034.5z"/>
		<path class="st0" d="M358.6,339.3c-0.5,2.3-0.2,4.8-1.3,5.9c-7.3,7.4-7.8,19.2-1,27c18.3,20.8,36.6,41.6,54.9,62.4
			c6.8,7.7,14.9,9.6,24.5,5.8c1.7-0.7,3.9-0.3,6.3,1.3c-1.2,1-2.3,2.1-3.6,3c-13.7,9.8-27.4,19.7-41.3,29.4
			c-1.8,1.3-4.5,1.3-6.9,1.9c2.7-6.3,5.4-10.9,6.8-15.8c2.4-8.3-0.9-14.6-6.8-20.9c-17.6-18.7-34.6-38.1-51.8-57.2l-2.3,0.8
			c9.7,39.4,19.5,78.8,29.2,118.4l-113.8-43.3c0.8,1.3,1.7,2.6,2.6,3.9c15.5,19.1,30.9,38.2,46.4,57.3c6.2,7.6,13.6,9.2,22.5,5
			c3.1-1.5,7-5.7,8.8-1c-12,12.1-23.2,23.6-34.8,34.8c-1.3,1.2-4.4,0.5-7.2-0.4c6.4-5.8,8.2-12.3,6.3-19.8c-0.8-3.1-1.6-6.5-3.4-9
			c-15.7-21.9-31.6-43.7-47.4-65.5c-6.2-8.5-19.1-11.6-28.2-6.3c-3.8,2.2-6.5,2.8-8-2.2l37.6-32.1c6.3,1.4,2.7,5.5,1.3,9.3
			L349.6,475c-2.8-9-6.4-18.5-8.5-28.3c-4.7-22.1-8.8-44.4-12.8-66.7c-0.8-4.6-2.1-8-7-9.6c-1.8-0.7-3.3-2.2-3.9-4.1
			c-0.3-0.9,2-2.9,3.5-3.8C332.7,355,344.7,347.8,358.6,339.3z"/>
		<path class="st0" d="M233,606.7c-139.5,259.4-150.6,523.8-33.4,793.1c-5.1,2-7.8-0.7-10.1-5.8c-53.5-118.5-79.8-247.4-77-377.4
			c2.9-125.2,30.9-244.6,85.4-357.5c7.7-15.9,16.3-31.3,24.2-47C224.6,606.9,227.8,604.9,233,606.7z"/>
		<path class="st0" d="M1728.6,606.8c5.4-2.1,8.3,0.6,10.9,5.4c51.3,92.7,85.1,191.3,100.5,296.2c6.2,41.8,9.3,83.9,9.3,126.2
			c-0.3,125.4-25.6,245.6-77.6,360c-2.3,5.2-5.2,6.8-9.8,5.2C1878.8,1130.2,1867.7,865.8,1728.6,606.8z"/>
		<path class="st0" d="M205.3,607.1C137.7,729.8,101.1,860.7,95.4,999.9c-5.5,139,20.4,272.2,77.6,399.4c-5.9,2.3-8.6,0.3-10.8-4.7
			c-33.9-77.6-57.3-158.2-67.1-242.3c-4.4-37.8-7.5-76-7.7-114.1c-0.8-136.4,28.4-266.2,87.5-389.4c6-12.5,12.7-24.5,18.7-37
			C196,606.6,199.2,605.1,205.3,607.1z"/>
		<path class="st0" d="M1757.4,606.8c4.6-1.6,7.8-0.4,10.4,4.6c48.5,90.8,81,187,96.4,288.8c10.7,71.1,13,143.2,6.7,214.8
			c-8.5,97.3-32.6,190.6-71.7,280c-2.2,5-5.1,6.4-9.7,4.8C1902.9,1130.4,1892.2,866.1,1757.4,606.8z"/>
		<path class="st0" d="M701.2,323.8c-15,8.9-29.6,9.7-44.5,5.2c-2.2-0.8-4.1-2.1-5.6-3.9c-6.2-6.6-12.4-13.3-18.3-20.1
			c-13.8-16.1-23.8-16.4-42.8-6.8c4.8,11.7,9.2,23.7,14.7,35.2c4,8.4,11.9,9.8,20.6,9c2.8-0.3,5.7,1.3,10.2,2.4l-59.7,24.2
			c1.2-2.3,1.8-5,3.5-6.4c10.7-9,11.9-13.4,6.3-26.2c-10.9-24.9-21.8-49.8-32.6-74.7c-3.7-8.4-11.6-12.3-20.6-10
			c-3,0.9-6.1,1.2-9.2,0.7c1.3-1.8,2.2-4.5,3.9-5.2c22.3-9,44.4-18.5,67.1-26.2c6.6-2.2,14.8,1,22.4,1.1
			c12.7,0.3,19.3,6.5,22.6,18.7c2.9,11,0.3,23.9-8.6,30.9c-3.2,2.4-6.2,5.1-8.9,8c9.9-2.6,15,3.5,20.7,9.4
			c9.9,10.4,20.1,20.4,30.5,30.3c1.9,1.6,4.4,2.5,6.9,2.6c5,0.3,10-0.5,15-0.3C696.7,321.7,698.9,323.1,701.2,323.8z M562.4,237.1
			c1.8,2.4,4.1,4.3,5.1,6.7c6.9,16.1,13.5,32.4,20.3,49c10.3-5.6,20.2-9.3,27.1-19.6c6.3-9.4,7.4-17.1,2-26.4
			c-1.8-3.2-2.5-7.8-5.2-9.8C597.3,226.6,576,227.3,562.4,237.1z"/>
		<path class="st0" d="M847.5,294.6c-21.7,5-39.2,2.1-56.1-9.1c-18.4-12.2-38-22.6-58.4-34.6c2.4,18.2,6.2,33.8,16.2,46.9
			c2.1,2.7,7.4,3,11.4,4.1c3.6,1,8,0.6,7.3,5.3l-59.3,14.2c2.7-2.5,4-4.2,5.7-5.2c7.9-4.1,11.9-13.2,9.6-21.8
			c-7.2-25.5-14.3-50.9-21.5-76.4c-3.3-11.7-10.5-17.6-22.3-18.7c-1.8-0.2-3.5-1.2-5.2-1.9c0-0.7,0.1-1.5,0.1-2.2
			c3.3-0.8,6.7-1.4,9.9-2.3c13.7-3.9,27.3-8,41.1-11.8c2-0.6,4.5,0.5,7.5,0.9c-5.4,5.2-9.9,8.6-13,12.9c-1.6,2.2-1.6,6.3-0.9,9.2
			c2.5,10.4,5.8,20.6,8.5,31c0.9,3.5,0.9,7.2,1.4,11.9c8-9.2,16.7-18,24-27.8c6.8-9.1,12-19.4,18-29.2c3.7-6.1,1.5-10.6-5.7-11.7
			c-1.6-0.2-3.2-0.8-5.9-1.5c10.2-5.1,48.6-10.3,53-7.1c-34.6,11.4-46.5,43.8-65.8,68.3c4.4,1.7,8.7,2.6,12.1,4.9
			c14.2,9.7,27.6,20.5,42.1,29.6c12.5,7.9,25,16.8,40.6,18.2C843.3,290.8,844.6,292.6,847.5,294.6z"/>
		<path class="st0" d="M1694.1,527.1c3.4,3.5,3.7,6.1-0.4,8.3c-10.2,5.7-20.3,11.5-30.6,16.9c-1.3,0.7-4.2,0.2-5.4-0.9
			c-25.6-23.6-50.6-47.9-80.3-66.5l0.2-2.5c2.6,0,5.4-0.7,7.8,0.1c12,4.1,20.6,1.8,28.7-8.1c16.5-20.1,33-40.2,49.6-60.3
			c9.2-11.1,8.4-19.8-3.1-29.1l3.8-4.9l90.8,77.5l-24.9,20.6c-0.3-1.6-0.8-3.3-1.1-5.1c-0.1-0.4,0.4-0.8,0.6-1.3
			c2.5-5.9,9.7-10.7,4.1-18.4c-4-5.5-7-12-11.8-16.6c-9-8.5-19-15.8-28.8-23.7l-35.8,41.2c13.3,7.7,21.4,22.6,38,24.1
			c5.3,0.5,10.7-1.5,17.8-2.7c-0.3,1.6,0,4.7-1.4,6c-9.4,8.9-19.3,17.5-29.9,27c-0.4-1.5-1.8-3.9-1.7-6.2c0.2-2.9,3-6.1,2.3-8.3
			c-1.8-5.3-4-11.1-7.8-15c-7.5-7.6-16.1-14.1-23.9-20.7c-1.4,3-2.2,6.1-4.1,8.3c-6.2,7.2-12.8,14.1-19.3,21.2
			c-4.5,4.9-5.3,19.3-1.4,24.6c7.4,10.3,17.2,18.8,28.5,23.2c8.8,3.5,19.9,5.2,29.3-1.7C1687,531.8,1690.4,529.6,1694.1,527.1z"/>
		<path class="st0" d="M963.6,243.2c1.2,1.9,3.7,4.2,3.3,5.8c-2.3,11.4-5.1,22.7-8.1,33.9c-0.4,1.4-3.4,2.9-5.2,3
			c-20.2,1.1-40.5,1.6-60.7,3.1c-12.5,0.9-25,3.2-38.9,3.9c1.7-1.8,3-4.3,5-5.4c11.3-6,15.2-12.6,13.6-25.6
			c-3.2-27-6.4-54-10.3-80.9c-0.6-4.3-4.5-9.1-8.2-11.8c-3.3-2.4-8.4-2.4-14.1-3.7c-1.5-3,0.7-4,4.8-4.3c24.7-1.8,49.4-3.8,74.2-5.5
			c11.6-0.8,23.2-1.3,34.2-1.8c-0.7,10.3-1.3,19.9-2,30.4c-1.4-0.6-2.7-1.2-4-2c-0.5-0.3-0.4-1.3-0.7-2c-2.5-5.6-1-13.9-10-15.4
			c-6.5-1.1-12.9-3.6-19.3-3.4c-11.6,0.2-23.2,2-35.3,3.1c1.7,17.8,3.4,35,5.2,53.4c14.1-3.2,29.3,1.2,41.3-8.8
			c4-3.4,6.4-8.6,10.5-14.5c0.9,1.9,2.7,3.9,2.7,6c0.3,12.3,0.1,24.6,0.1,37.8c-2.4,1-4.9,1.9-6.5-2.8c-2.3-6.6-11.8-12.7-19.4-12.3
			c-10,0.5-19.9,1.5-29.6,2.3c0.9,3.2,2.2,6.1,2.5,9c0.9,9,1.1,18.1,2.4,27.1c0.5,3.6,2.6,7.2,4.8,10.3c6.3,9.3,16.2,10.5,26.1,9.5
			c11.7-1.2,23.5-2.4,31.6-13.5c3.5-4.8,6.3-9.2,6.8-15.1c0.2-3,1-6,1.5-9L963.6,243.2z"/>
		<path class="st0" d="M1623.7,402.4c-4.9-2.3-6.2-5-3.8-9.3c1.5-2.7,2.7-5.6,3.4-8.6c2.3-9.7,3.2-18-4.4-27.5
			c-12.3-15.5-29.5-20.4-46.3-26.5c-4.9-1.8-11.5,1.3-17.4,2.1c-23.8,3.2-35.8,19.9-46.9,39c-9.7,16.8-5.5,33.3,1.1,47.7
			c7.3,16,19.6,31.5,38.6,34.2c13.6,2,28.6,0.8,40.7-9c4-3.2,4.4-2.7,7.3,1.6c-9.4,6.5-18.8,13-28.3,19.4c-1.5,1-3.4,1.4-5.2,1
			c-20.9-7.4-40.8-15.8-56.4-33.1c-11.7-12.8-20.3-28.2-25-44.9c-0.7-2.4-1.3-5.2-0.7-7.6c2.3-9.3,4.2-18.7,7.9-27.4
			c2.3-5.4,7.8-9.4,11.3-14.4c10.7-15.4,27.9-18.2,44-22.6c4.8-1.3,10.6,1.8,16,2.4c24.3,2.6,43.5,16.6,62.4,30
			c7.7,5.4,11.8,15.9,17.3,24.2c0.6,0.9,0.3,2.8-0.3,3.8C1634.1,385.4,1628.9,393.9,1623.7,402.4z"/>
		<path class="st0" d="M1154.7,242.5c-2.1,11.7-5.5,22.7-5.5,33.7c0,7.8,3.4,16.3,13,19.3c1.9,0.6,3.1,3.1,4.7,4.7
			c-2.1,0.2-4.3,1-6.2,0.4c-15-4.1-30.2-6.7-45.8-6.3c-3.5,0.1-7.8,0-5-6.5c7.3,1.5,13.3-1.6,17.4-7.7c2-3,4.2-6.3,4.7-9.8
			c4.3-27.3,8.2-54.7,12.3-82c1.1-7.6-6-17.9-13.7-19.6c-1.9-0.6-3.4-2-4.2-3.8c28.4,4.6,57.9,2.5,84,15.4
			c8.5,4.2,15.6,12.4,21.6,20.2c2.2,2.8-0.9,9.6-0.9,14.5c-0.1,16-13.4,22.8-24,27c-11.4,4.6-25.7,2.4-38.7,2.7
			C1164.5,244.7,1160.3,243.4,1154.7,242.5z M1155.9,236.6c15.2,7.9,28.9,1.6,42.7-1.2c1.1-0.4,2-1.2,2.6-2.2
			c5.9-10.2,13.5-20.1,7.2-33c-1.5-3.1-1.9-7.4-4.3-9.2c-12.1-9-25.1-16.3-39.5-17.3c0.3,3.2,1.4,6.6,0.9,9.7
			C1162.5,201.2,1159.1,219,1155.9,236.6L1155.9,236.6z"/>
		<path class="st0" d="M1075.8,115.9l-45.4-2.4c2.1-1.7,3.1-3.2,4.5-3.6c6.7-1.8,12.7-8,13.2-15.1c0.9-11.4,1.2-22.8,1.8-34.9
			l-60.1-2.6c0.6,11.1,1,21.9,1.7,32.8c0.8,12.3,1,12.3,13.4,22.5h-46.2c3.2-2.3,4.6-4.1,6.4-4.5c8.2-1.8,10.5-8.4,10.6-14.9
			c0.5-23.6,0.3-47.2,0.2-70.8c-0.2-7.3-4.7-13.9-11.4-16.7c-1.5-0.6-2.5-2.8-4.8-5.6c17,0,32,0,46.8,0.2c0.4,0,0.7,2.3,1.1,3.6
			c-9.7,1.7-15.7,8.9-16.1,18.6c-0.4,8.3-0.8,16.7-1.2,25c0.1,0.9,0.2,1.9,0.5,2.8l60.1,2.2c-0.1-6.5-0.2-13.1-0.2-19.6
			c0-3.1,0.4-6.2,0.4-9.3c0-12.5-1.7-14.7-14.6-19.4c2-2.3,2-2,22.2,0.4c7.9,1,16.1,0.2,25.5,0.2c-1.4,1.4-2.2,3.1-3.3,3.3
			c-6.2,1.4-12.7,7.9-13.3,14.4c-2.3,24-4.6,47.9-6.3,71.9c-0.7,6.6,2.5,13,8.2,16.3C1071.6,111.9,1073.2,113.7,1075.8,115.9z"/>
		<path class="st0" d="M440.1,277.7c34.1,28.4,67.8,56.6,101.6,84.5c7.6,6.3,16.3,9.5,27.9,7.2c-1.2,1.8-1.9,4.4-3.6,5.3
			c-12.1,6.2-24.3,12.1-36.6,17.7c-1.9,0.9-4.7-0.1-6.4-0.2c2.3-4.8,4.3-8.3,5.6-12c1.8-5.5-3.1-7.4-6.2-10
			c-6.7-5.8-13.6-11.3-20.2-17.1c-2-1.7-3.3-4.1-5.5-6.8l-44.1,24.1c2.6,11.6,4.4,22.9,7.8,33.6c1.5,4.8,5.7,9.1,9.6,12.6
			c1.2,1.1,5.4-1.2,8.3-2s5.5-1.3,8.3-2c0.1,0.6,0.3,1.2,0.4,1.7l-41.2,24.8c0-1.8-0.8-4.9,0.1-5.5c8.5-5.7,6.9-14.2,5.8-21.9
			c-4.2-29.7-9-59.4-13.4-89.1c-1.6-10.8-2.3-21.8-3.9-32.6C433.4,284.3,435,280.4,440.1,277.7z M449.8,363.3l41.9-21.3l-49.3-36.2
			C444.9,324.5,447.3,343.3,449.8,363.3z"/>
		<path class="st0" d="M1468.8,408.8c-2.1-0.1-4.6,0.3-6.4-0.5c-12.1-6.1-24.2-12.3-36.1-18.8c-1.9-1-2.8-3.7-4.3-5.8
			c4.9-0.4,8.4-0.2,11.7-1c5-1.2,6.9-4.9,7.2-10c0.6-9,1.7-18,2.8-27c0.3-2.6,1.3-5.2,2.2-8.8L1401,316c-8.1,8.4-16,15.8-22.8,24.2
			c-3.3,4.1-5.2,9.9-6.3,15.2c-0.3,1.5,4.2,4.1,6.5,6.2c2,1.8,4,3.7,4.7,6.5l-43.5-18c1.3-1,3.2-3.4,4.2-3.1
			c11.3,3.5,17.9-4.2,24.7-10.5c20.8-19,41.2-38.4,61.9-57.4c8.8-8.1,18.2-15.5,27-23.5c4.1-3.8,8.3-5.2,14.8-2.9
			c-0.9,8.5-1.7,17.4-2.7,26.3c-3.6,34.4-7.3,68.8-10.8,103.1c-1,9.7,1.9,18.3,10.2,24.3L1468.8,408.8z M1449.5,270.8l-44.1,39
			l41.8,20.8C1448,310.5,1448.7,291.4,1449.5,270.8L1449.5,270.8z"/>
		<path class="st0" d="M1035.1,162.6c-14.9-2.7-29.7-0.7-44.5,2c-1.6,0.3-3.2,2.6-4.2,4.3c-3,5.1-5.7,10.4-8.6,15.9
			c-4.5-0.2-6.5-1.5-5.4-6.5c2-9.7,3.2-19.6,5-30.8c11.3,11.3,24.7,7,37,7.9c28.1,2.1,56.2,3.5,84.3,4.7c5.2,0.2,10.6-1.9,16.5-3
			c-0.5,10-0.9,21.1-1.7,32.2c-0.1,1.3-2,2.4-3.1,3.7c-0.9-1.1-2.4-2-2.7-3.3c-4.2-14.1-14.1-22.4-29.2-24.1
			c-7.3-0.8-14.6-1.5-22.9-2.3c-0.6,6.6-1.2,12.6-1.7,18.7c-2.1,25.7-4.2,51.3-6.1,77c-0.8,10.8,4.4,18.3,14.3,22.2
			c3.7,1.5,7.1,3.5,10.7,5.3l-1,1.7l-69-4.1c-0.2-0.4-0.3-0.8-0.5-1.3c3.8-1.3,7.6-2.6,11.5-3.7c10-2.8,16.3-10.5,16.7-20.8
			c1.1-29.3,2.2-58.6,3.4-87.9C1034.2,167.7,1034.6,165.1,1035.1,162.6z"/>
		<path class="st0" d="M1328,209.3c-2.5,0.5-5,1.5-7.4,1.4c-4.4-0.2-9.1-2.2-13.2-1.3c-6.8,1.5-11.5,5.4-13.8,13.3
			c-8.1,27.1-17.5,53.9-26.3,80.9c-3.3,10-0.5,15.2,9.4,18.1c6.4,1.9,13.1,3.2,19.1,5.9c17.3,7.6,31.9,4.6,44-9.8
			c3.7-4.4,6.6-3.4,10,0.4c-7.4,8.8-14.7,17.7-22.2,26.2c-1,1.2-4,2.1-5.3,1.5c-31.4-14.1-64.3-23.6-98.2-30.1
			c-0.2-0.8-0.4-1.7-0.6-2.5c1.9-0.8,3.9-2.5,5.7-2.3c9,0.9,17.5-4.3,19.9-12.8c7.8-27.7,15.6-55.5,23.4-83.3
			c2.8-10-1.9-18-12.1-20.8c-1.6-0.4-3.2-1-5-1.6c0.8-2.2,1.4-4.2,1.9-5.6l70,20.4L1328,209.3z"/>
		<path class="st0" d="M1148.4,125.8c-24,0-40.7-11.3-52-30.1c-3.6-6-2.5-14.8-4.3-22.2c-5-19.5,6.4-34.3,14-50.2
			c0.2-0.4,0.5-1,0.8-1.1c11.8-4.6,22.2-13.3,35.9-12.4c5.9,0.4,11.9,1.6,17.8,1.7c9.6,0.1,16.1,6.4,23.4,11.1
			c17.3,11.3,19.8,28.7,19,47.2c-0.5,15.1-6.5,29.6-16.9,40.6c-2.5,2.7-5.4,5.5-8.7,6.8C1167.7,121.1,1158.9,128.9,1148.4,125.8z
			 M1107.5,66.7l1.7,0.5c0.1,1.2,0.2,2.4,0.2,3.6c-1,15.1,6.1,27.5,13.6,39.7c0.8,1.4,2,2.6,3.5,3.3c10.4,3.4,20.2,8.5,32.1,2.4
			c6.5-3.4,11.8-6.3,15.9-12.8c5.7-8.9,8.4-18.4,10.3-28.6c3.5-18.2,0.3-34.8-10.2-50.1c-0.8-1.4-1.9-2.7-3.2-3.8
			c-14.4-10.6-42.4-6.8-51.2,9C1113.9,41,1111.6,54.3,1107.5,66.7z"/>
		<path class="st0" d="M853.9,30c2,19.9,4.2,39.8,5.9,59.7c0.5,6.5,2,12.3,7.1,16.5c2.3,1.9,5.1,3.1,7.6,4.8c1.8,1.4,3.6,3,5.2,4.6
			l-42.2,5.8l-2.2-2.7c1.5-0.5,3.1-0.9,4.6-1.5c12.5-4.3,14.8-14.8,14-25.8c-1.4-20.7-3.7-41.3-5.7-62c-0.8-7.8-10.5-16.5-18.3-16.7
			c-1.9-0.1-3.7-0.3-7.3-0.6c2.1-1.9,2.9-3.5,4-3.7c7-1.4,14-3.2,21.1-3.5c2.8-0.1,6.3,2.7,8.6,5.1c24.9,25.3,49.7,50.7,74.7,76.2
			c-0.3-6.8-0.7-14.2-1-21.6c-0.7-13.3-1.4-26.7-2.3-40c-0.4-3-1-6-2-8.9C923.3,6.5,916,4.6,907.3,5c-0.1-0.6-0.2-1.2-0.3-1.7
			c1.1-1,2.3-2.7,3.4-2.8c13.2-0.2,26.4-0.1,40.1,1.4c-7.9,1.7-12.8,5.7-14.8,13c-0.4,1.6-1.2,3.2-1.2,4.7
			c0.6,28.4,1.3,56.8,2.1,85.1c0.1,4.2,1.1,8.4,1.8,13.2L853.9,30z"/>
		<path class="st0" d="M571.7,125.3c3.1,10,5.7,19.6,9.1,29c2.5,6.8,7.1,11.6,15.3,11.3c2.5,0.1,4.9,1.3,6.4,3.3l-44.8,15.2
			c2.2-3,3.2-5.3,4.9-6.4c7-4.2,8-10.5,5.8-17.3c-7.8-23.8-15.9-47.4-23.9-71c-2.1-5.9-8.2-9.6-14.5-8.6c-1.6,0.2-3.2,0.3-7.3,0.8
			c2.6-3,3.5-5.1,5.1-5.6c15.3-5.2,30.5-10.8,46.1-15c10.4-2.9,21.2,1.5,28.8,7.3c10.7,8.3,8,30.2-2.5,39c-1.6,1.3-3,2.8-3.3,3.1
			c4,3.3,8.2,5.8,11.3,9.4c7.3,8.5,14.4,17.2,21.1,26.2c3.3,4.5,7,6.3,12.6,6.1c4-0.2,9.1-1.6,11.5,4.1c-10.7,4.9-21,5.7-31.4,1
			c-2.3-1.1-4.4-2.7-5.9-4.7c-5-6.4-9.7-13-14.4-19.6C593.5,121.2,585.7,118.3,571.7,125.3z M570.1,119.7
			c14-2.7,22.3-12.1,24.2-23.9c1.1-6.8-1.2-16.5-8.9-22c-10.8-7.7-21.9-9.7-31.8-3.2L570.1,119.7z"/>
		<path class="st0" d="M499.3,162.4c2.2-2.9,3.2-5.4,4.9-6.1c10-3.8,20.1-7.1,31-10.8c2.5,6-10.1,10.5-3.5,18.2
			c4.5,5.3,7.4,12,11.5,19c-5.7,8.4-15.4,15.1-26.8,19.4c-9.5,3.5-18.4,8-29.1,8.7c-15.2,1-27.3-5.1-39.5-11.9
			c-1.8-1.1-3.3-2.6-4.5-4.3c-2.1-3.2-3.5-6.8-5.8-9.8c-9.4-12.3-12.6-26.1-9.4-40.9c1.5-6.8,4.9-13.1,7.7-19.5
			c4.8-11.3,13.9-17.6,24.5-23.5c14.7-8.1,30.4-10,45.8-12.4c3,9.8,5.7,19,9.1,30.4c-3.3-2.6-5.6-3.7-6.6-5.5
			c-5.8-10.3-15.7-15-26.1-14.2c-9.6,0.8-18.9,4.1-26.8,9.7c-15.6,11.5-18.1,28-11.6,45.9c2,5.6,3.9,11.2,6.1,16.7
			c5.4,13.3,16.2,21.3,29,25.8c13.8,4.8,28.3,3.8,41.8-2.1c4-1.6,5.9-6.2,4.3-10.2c-0.1-0.2-0.2-0.5-0.3-0.7
			c-1.2-2.3-1.9-4.9-2.8-7.3C517.3,164.1,514.6,162.3,499.3,162.4z"/>
		<path class="st0" d="M1392.8,185.2c2.4-0.8,4.5-2.3,6.3-2.1c9.4,1.4,14-5,16.6-11.6c9-22.8,17.2-45.9,25.4-69.1
			c2.3-6.4-0.7-13.3-6.1-16.9c-1-0.7-1.3-2.4-2-3.7c1.2-0.2,2.6-0.9,3.7-0.6c3.4,1.1,6.7,2.5,10,3.9c19,7.7,38,15.3,57,23
			c2.1,0.9,4.2,1.9,5.9,2.7c-4.1,7.9-8,15.3-11.8,22.8l-1.5,0.1c0-2.4-0.3-4.9,0.1-7.3c1.6-8.9-2.4-17-10.7-20.5
			c-6.4-2.7-13-4.8-19.5-7.1c-2-0.7-4-1.2-6.7-2c-5.4,14.1-10.7,28-16,41.9c20.4,8.5,28.6,14.1,42.3-0.7c0,1.8,0.6,3.8-0.1,5.3
			c-3.8,8.9-7.9,17.8-12.1,26.5c-0.6,1.2-2,2.1-3.1,3.1c-0.7-1.5-2.1-3.2-1.8-4.5c1.5-7.6-3.4-12-8.5-15c-6.2-3.7-13.5-5.6-19.2-7.9
			c-4,9.9-7.9,19.2-11.3,28.6c-1.2,3.2-1.4,6.7-0.7,10.1c3.9,14.6,22.6,22.2,36.9,16.9c9.1-3.4,12.4-11.1,19.2-17.4
			c0,1.9,0.8,4.3-0.1,5.6c-5.3,7.9-10.9,15.5-16.8,23c-0.9,1.2-3.9,1.9-5.4,1.3C1439.8,204.6,1416.9,195.1,1392.8,185.2z"/>
		<path class="st0" d="M750,133c1.3-1.7,2.2-4.2,3.9-4.9c8.8-4,9.5-11.9,8.3-19.3c-3.8-24-8.3-47.9-12.8-71.8
			c-1.4-7.3-8.3-11.8-18.7-11.1c2.5-2.5,3.5-4.6,4.8-4.8c25.4-3.9,50.8-7.6,76.2-11.3c0.4,9,0.8,17.5,1.2,26l-1.4,0.7
			c-1.2-1.9-2.2-3.9-3.1-6C805,21.2,798.3,17,788.3,18c-1.4,0.1-2.8,0.3-4.3,0.6c-7,1.3-14,2.7-21.9,4.2c2.4,15,4.8,29.6,7.2,44.3
			c21.5-2.6,30.1-1.2,36-21.5c0.7,1.9,1.9,3.7,2.1,5.7c1.1,9.2,2.1,18.4,3,27.6c0.1,1.5-0.9,3.1-1.4,4.7c-1.2-0.9-2.8-1.6-3.4-2.7
			c-3.8-7.1-10-10.4-17.8-9.1l-17.3,2.7c1.5,9.7,3.8,19.2,4.3,28.7c0.7,12.2,14.2,20.5,26.5,17.1c17.3-4.8,23.3-12.1,23.8-30.1
			c0-1.4,0.3-2.8,0.7-6.1c1.9,2.6,3.7,3.9,3.6,5.1c-0.7,10.2-1.7,20.4-3,30.5c-0.2,1.2-3,2.6-4.7,2.9
			C798.4,126.2,774.9,129.5,750,133z"/>
		<path class="st0" d="M630.8,48.2c2.2-2.7,3.1-4.9,4.5-5.3c25-5.8,50.1-11.3,75.2-16.9c1.2,9.1,2.3,17.5,3.3,26l-1.5,0.8
			c-1.4-2.1-2.6-4.3-3.8-6.5c-3.5-7.9-11.3-12.4-19.8-10.6c-7.2,1.5-14.3,3.7-21.4,5.6c-1.6,0.4-3.1,1-5.2,1.7
			c3.6,14.7,7.1,29.2,10.8,44.4c13.6-5.3,32.2-2.4,32.3-26c2.2,1.9,3.9,2.7,4.1,3.7c1.9,11.2,3.5,22.4,5.5,35.8
			c-6.3-4.8-10.5-12.9-18.6-11.9c-7.7,1-15.3,3.2-21.8,4.7c2.3,9.5,4.5,18.3,6.5,27.2c2.8,12.7,10.4,18.3,23.2,17
			c15.9-1.7,28.8-13.7,26.4-30.6c-0.1-1.9-0.1-3.7,0-5.6l2-1c0.9,1.9,2.6,3.8,2.7,5.7c0.3,9.9,0.1,19.9,0.1,29.6l-76.8,17.9
			c1.2-2.1,1.8-4.6,3.3-5.4c8.3-4.6,8.8-12.4,7.1-19.8c-5.6-23.6-12-47.1-18.3-70.5C648.3,50.5,641.6,46.7,630.8,48.2z"/>
		<path class="st0" d="M1222.3,23.7c4.2,0.8,7.2,1.3,10.1,1.9c10.1,1.8,20.1,3.6,30.2,5.6c2,0.4,3.8,1.8,5.6,2.8
			c-1.9,0.7-3.8,2-5.7,2c-4.1,0.2-11.9,6.6-13.1,12.1c-4.6,20.7-9,41.4-13.1,62.2c-1.4,7.3,7.9,21.8,14.8,24.3
			c3.6,1.3,7.1,2.7,10.7,3.9c14.8,5.2,31-2.6,36.2-17.4c0.3-0.8,0.5-1.7,0.8-2.5c4.3-16.6,8.6-33.2,12.9-49.8
			c2.4-9.6,2.1-18.3-7.8-24.1c-0.7-0.4-1-1.4-0.8-3.8l35.3,9.3l1.7,2.4c-1.3,0.5-2.6,0.9-4,1.1c-9.4,0.5-12.5,7.3-14.9,14.8
			c-6.7,20.3-13.1,40.7-20.3,60.8c-3.5,9.7-19.8,18.6-30,19.2c-13.6,0.8-24.9-5.3-36.5-10.6c-0.8-0.4-2-0.9-2.3-1.6
			c-3.8-10.4-12.2-19-9-32c4.5-18.5,7.2-37.4,10.7-56.1c1.8-9.9-0.4-14.8-9.1-20.3C1223.9,27.5,1223.6,26,1222.3,23.7z"/>
		<path class="st0" d="M1785.4,426.1c-0.8-0.6-1.6-1.3-2.3-2.1c-29.8-38.5-66.6-69.5-104.9-98.8c-50.8-38.8-104.5-73.4-159.9-105.3
			c-2.2-1.3-4.4-2.7-7.1-4.4c2.4-4.2,4.6-8,7.3-12.7c12.3,7.8,24.4,15.3,36.3,23.1c59.8,39.3,118.3,80.6,170.3,130
			c20.7,19.6,38.7,42,57.9,63.1c1.6,1.7,2.6,4,3.9,6L1785.4,426.1z"/>
		<path class="st0" d="M430.6,200.9l7.3,12.4c-50.5,29.1-99.5,59.8-146.2,93.9s-91.9,70.4-127.9,116.5l-1.5-1.1
			c1.4-2.1,2.8-4.4,4.3-6.4c23.3-31.7,51.5-58.8,81.3-84.3c55.9-47.9,116.1-89.9,178.5-128.8C427.5,202.5,428.8,202,430.6,200.9z"/>
		<path class="st0" d="M1331.3,129.1c-1.5,11.6,1.9,21.7,8.4,30.9c3.9,5.6,16.3,8.8,22.7,7.2c11-2.8,13.5-10.7,14.3-20
			c0.1-2.5-0.7-5.1-2.1-7.2c-6.8-10.9-13.4-22-21.1-32.3c-6.6-8.8-5.1-18.3-1.7-26.4c10.4-24.8,36.5-24.1,54-11
			c1.5,1.1,2.7,2.7,4.3,3.8c4.4,2.9,4.9,6.2,2.4,10.8c-2.8,5.3-5,10.9-7.5,16.3l-1.9-0.5c0-4.8-0.2-9.6,0-14.4
			c0.4-7.3-6.8-16.7-13.9-18c-13.2-2.4-15.3-1.4-22.7,10.9c-2.7,4.4-0.6,16.6,3.7,22c9.1,11.6,18.7,22.8,23.1,37.4
			c1.5,5.1-1.7,21.9-5.7,25.3c-17.7,15-36.5,13.6-54.6,0.6c-7.7-5.5-10-11.6-7.6-20.5c1.3-5,1.7-10.2,2.5-15.3L1331.3,129.1z"/>
		<path class="st0" d="M915.5,1587.1c1.3,21.5-16.9,37.3-39.5,37c-20.9-0.4-38.9-17-37.1-37.6c2.1-23.4,13.3-37.4,45.4-36.3
			C900.6,1550.7,915.8,1562.5,915.5,1587.1z M903.7,1588.8c0.7-11-3.3-20.3-9.6-29.1c-6.1-8.6-20.7-7.7-28.5-2.9
			c-15.5,9.7-16.6,34-10.3,46.8c2.8,5.6,7.9,11.8,13.4,13.9c13.5,5.3,29-0.2,33.2-16.8C902.9,1596.8,903.1,1592.8,903.7,1588.8z"/>
		<path class="st0" d="M681.5,1629.2c-6.5-16.7-12.5-31.9-18.7-47.7l-21.5,48.9c-1.9-4.4-3.4-7.6-4.7-10.9
			c-4.5-11.1-8.6-22.2-13.4-33.2c-1.7-3.9-4.8-7.3-7.5-11.2l25.4-3.8c-10.1,6.4-10.1,6.4-6.1,16.7c3.2,8.1,6.3,16.3,10.1,26.3
			c7.2-16.6,13.7-31.7,20.2-46.7l2.2-0.2c5.5,14.2,10.9,28.5,16.9,44.1c4.9-13.4,9.7-25.5,13.4-37.9c0.7-2.2-2.9-5.7-4.5-8.7l22-2.7
			c-16.5,10.7-16.9,28.2-23.8,42.2C688,1612,685.3,1619.9,681.5,1629.2z"/>
		<path class="st0" d="M1096.7,1554.1c-0.4,5.6-0.7,10.5-1.1,15.4c-3.3-5.2-5.2-12.1-12.6-12.7c-6.3-0.6-12.7-0.1-19.4-0.1v27.5
			c9.8,0.2,20.3,3.8,26.2-8.6v22.8c-4.3-3.3-7.6-7.2-11.7-8.5s-9.3-0.3-14.9-0.3c0,6.6-0.9,13.4,0.4,19.8c0.8,3.7,4.4,8.5,7.9,9.7
			c14.3,5.1,24.4-1,27.7-15.5c0.1-0.6,0.7-1,2.1-3c1.9,9.4-1.5,16.2-4,22.7h-54.2c-0.5-0.7-0.9-1.4-1.4-2.1c1.1-0.5,2.2-0.9,3.3-1.2
			c7.2-1.4,8.5-6.7,8.5-12.9c0-11.9,0-23.9,0-35.8c0-7.9,0.6-16-10.5-18.4l1.3-1.8L1096.7,1554.1z"/>
		<path class="st0" d="M1109.8,1555.1l26.3,2c-8,3.7-4.3,8-2,12.2c2.5,4.6,5,9.1,7.5,13.7c11.2-11.2,13.3-17.9,7-24.7l21.7,1.7
			c-12.6,3.2-16.7,14.5-23.2,23.4c-1.2,1.6-1.6,5.1-0.6,6.8c4.6,8.6,9.6,17,15.1,25.1c2.3,3.4,6.3,5.6,10.4,9h-25.3
			c6.3-4.4,3.5-8.6,0.7-13c-3.2-5-6.1-10.2-9.6-16.2c-3.8,6.1-7.9,11.7-10.7,17.8c-1.1,2.4,1.1,6.2,1.9,9.9H1108
			c14.4-5.3,19.9-18.9,28.3-31.2C1126.8,1580.5,1125.7,1563,1109.8,1555.1z"/>
		<path class="st0" d="M834.9,1601.8c-1.6,5.6-3.2,11.3-5,16.8c-0.5,1.2-1.5,2.2-2.8,2.8c-20,7.7-41.8,4.1-55.8-11.4
			c-4-4.4-6-12.6-5.3-18.7c2.2-20.5,10.2-30.9,30.5-36.2c8.8-2.3,18.4-4.4,28-0.2c4.9,2.2,7.2,4.5,6.9,9.9c-0.2,3.2,0.5,6.4,0.8,9.7
			l-1.9,0.7c-1.1-1.9-2.1-3.9-2.9-5.9c-3.1-9.9-5.8-12.2-16-13c-13-1-28.1,9.9-30.6,22.6c-1.1,5.7-2.2,11.8-1.4,17.4
			c2.3,16.3,17.5,27.1,33.8,24.8c8.5-1.2,12.7-7.5,16.8-13.9c1.1-2,2-4,2.7-6.1L834.9,1601.8z"/>
		<path class="st0" d="M973.1,1547.3c8.5,4.4,57.4,5,64.2,1c0.5,6.7,1,13.1,1.5,19.6l-1.5,1.3c-4.6-13-14.2-15.8-27.2-14
			c0,4.2,0,8.6,0,13c-0.1,11.2-0.4,22.4-0.5,33.6c-0.1,11.9,1,13.3,11.6,17.9c0.7,0.3,1.3,1,2.9,2.4h-38.9c3.3-1.6,4.6-2.7,6.1-3
			c7-1.4,9-6.5,9.1-12.7c0.2-17.2,0-34.3,0-52.8c-6.1,0.6-12.2-0.2-17.1,1.9c-4.3,1.8-7.3,6.8-12.1,11.7
			C971.9,1560.3,972.5,1554.2,973.1,1547.3z"/>
		<path class="st0" d="M745.2,1623.6c12.4-9.8-2.4-16.9-0.5-25.3c-8.1,0-15.2-0.1-22.2,0.1c-1.3,0.1-2.5,0.9-3.1,2
			c-2.1,4.8-3.9,9.7-5.4,14.8c-2,7.2,4.4,7.1,8.4,9.6H699c7.6-3.1,9.6-10.2,12.3-16.8c6.4-15.7,12.8-31.3,19.3-46.9
			c1-2.4,2.8-4.4,5.3-8.4c4.5,12,8.1,22,12,31.9s8.2,19.3,12.5,28.8c2,4.3,4.4,8.4,6.7,12.6l3.7-2.5L745.2,1623.6z M720.9,1594h21.8
			c-4-8.7-7.5-16.5-11.5-25.3C727.6,1577.6,724.3,1585.6,720.9,1594z"/>
		<path class="st0" d="M1244.5,1626h-23.7c2-3.1,5.5-6.1,5-8c-1.7-6.1-3.4-14.5-7.9-16.9c-5.8-3.1-14.3-2-21.6-1.6
			c-3.4,0.2-8.7,18.9-6.2,21.3c1.8,1.7,4.8,2.1,9.1,3.8H1174c9.3-3.9,10.9-12.8,14.3-20.3c5.9-13,11.6-26.1,17.6-39
			c1.1-2.3,3.3-4,5.1-6c1.4,2.2,3.2,4.3,4.2,6.8c6.3,15.4,12.1,31,18.8,46.2C1236.3,1617.5,1241,1621.6,1244.5,1626z M1218.2,1597.1
			l-11.4-25.9l-10.7,23.8L1218.2,1597.1z"/>
		<path class="st0" d="M1250.2,1609.8c4,4.1,7.5,8.9,12,12.2c6.2,4.5,13.1,4.8,19.9,0.4c5-3.3,5.4-8.9,0.3-12.6
			c-6.2-4.5-12.5-8.8-19-12.8c-6-3.7-8.7-8.8-7.2-15.4c1.6-7,7.6-11.3,15.3-11.3c4.3,0,8.6,0.6,12.7,1.7c10.8,3,11.3,4.2,8.6,17
			c-1.1-1.7-2.1-3.4-3-5.2c-3-7.6-12-12.7-19.4-9.9c-2.3,0.8-5.1,4.5-5,6.8c0.1,3.1,2.1,6.8,4.4,9c3,2.9,7.2,4.6,10.8,6.9
			s6.8,5.2,10.4,7.4c9.9,6.2,7.2,17.5-3.7,21.7c-11,4.3-22.4,4-32.4-1.8c-3.6-2.1-4.4-8.9-6.5-13.6L1250.2,1609.8z"/>
		<path class="st0" d="M916.7,1641.8c2.9-4.1,8-8.3,9-13.4c1.8-8.2-9.8-5.1-12.2-12.1l7.6-5.8c8.2,4.6,12.4,12.6,10.1,20.3
			C929.5,1637.3,923.5,1641.9,916.7,1641.8z"/>
		<path class="st0" d="M548.3,1475.2c3.1-15.6,5.8-29.2,8.6-43.3l10.7-1c-5.6,10.1,0,45,8.5,52l-16.4,2.3c4.9-8.8,4.9-8.8-2.2-40
			c-2.9,13.9-5.7,27.9-8.9,43.2l-18.5-35.5c0.7,11.8-4.3,24.5,5.7,34.3c-4.9,1.1-10.1,2.5-15.3,3.4c-6.7,1.1-11.6-1.3-14.2-7.9
			c-1.3-3.3-2.8-6.6-4.4-9.8c-2-3.9-4.9-5.8-9.3-3.6c0,14.9,0.8,16.9,9,22.4l-18.5,2.9c7.7-9.3,3.3-45.7-7.2-52.5
			c8.4-1,15.8-3.6,22.5-2.4c12.2,2.2,13.9,18.2,5.3,24.2c3.3,6.3,6.1,12.8,10,18.7c1.5,2.3,5.4,4.8,7.7,4.3s4.8-4.6,4.9-7.2
			c0.5-10.7,0.3-21.5-0.5-32.2c-0.3-3.9-3.6-7.5-5.6-11.5l9.8-1C535.9,1448.4,541.7,1460.9,548.3,1475.2z M491.7,1466.2
			c9.2-2.8,11.8-7.3,10-15.7c-1.2-5.8-6-8.8-13.1-7.9L491.7,1466.2z"/>
		<path class="st0" d="M1442.6,1441.6c6.8-1.7,10.8,1.3,13.8,8c5.6,12,12.1,23.6,19,36.9c1.5-11.3,3.4-20.8,3.8-30.4
			c0.2-3.5-2.9-7.1-4.4-10.7l12.6,2.1c-2,4.8-4.7,9.4-5.7,14.4c-2.4,12.6-4,25.3-6.2,39.8c-8.5-15.8-16.2-30.2-24.1-44.9
			c-5.4,16.6-5.4,29.6,0.5,39.6l-31.5-4.4c7.7-7.1,2.3-14.3,2.2-21.9l-12.6-1.9c-7.4,12.7-7.9,16.8-2,21.9l-13-1.7
			c2.5-3.8,5.2-7.2,7-11.1c5.6-12.1,10.8-24.4,16.2-36.6c0.9-2.1,2-4,3.1-6l2.1,0.2c1.1,8.7,2.1,17.4,3.4,26.1
			c1.2,8,2.3,16.1,4.3,23.9c0.7,2.7,3.8,4.8,5.8,7.2c2.1-2,5.6-3.8,6.1-6.1c2.3-11.4,4-22.9,5-34.5
			C1448.4,1448.3,1444.7,1445,1442.6,1441.6z M1419.3,1448l-1.7-0.1l-7.4,16.9l12.5,1.8C1421.5,1459.8,1420.4,1453.9,1419.3,1448z"
			/>
		<path class="st0" d="M897.7,1462.2c8.4-8,8.2-45-0.6-52.3c13.4-1.3,26.3-4.2,36.9,7.1c8.3,8.8,8.5,19.5,5.2,29.3
			c-2.9,9.2-11.3,15.6-21,15.8C911.6,1462.4,905,1462.2,897.7,1462.2z M909.3,1412c0,13-0.4,26,0.3,39c0.2,3.1,3.4,7.7,6.1,8.4
			c3.2,0.8,8.3-0.8,10.7-3.2c8.8-8.5,7.7-19.3,4.9-30C928.8,1416.8,919.8,1411.2,909.3,1412z"/>
		<path class="st0" d="M873.3,1462.8h-17.7c8.2-7.7,7.6-44.6-2.4-52.8c8.5,0,15.6-0.9,22.3,0.4c3.4,0.7,7.6,4.8,8.7,8.2
			c2.1,6.6,1,13.4-5.6,16.4c2.1,5.3,3.6,10.5,6.1,15.3c2.3,4.4,5.6,8.3,8.3,12.2c-5.6,1.6-10.6-0.5-12.8-6.5
			c-1.4-3.8-2.3-7.8-3.8-11.5s-3.6-6.8-9.4-5.3C867.7,1447.2,862.9,1456.5,873.3,1462.8z M866.6,1435.7c9.5-1.4,12.9-5.8,11.7-14.3
			c-0.9-6.5-5.5-9.9-11.7-8.9V1435.7z"/>
		<path class="st0" d="M1074.4,1411.2c7.7,0,14.7-1,21.2,0.4c3.5,0.8,7.6,5.4,8.6,9.1c1.8,6.5-0.6,12.7-7.6,16.2
			c6.9,8.2,2.7,22.1,15.5,27c-7.3,2.5-12.3,0.1-14.4-6.5c-1.2-3.8-1.8-7.9-3.1-11.7c-1.3-4.2-3.7-7.3-8.8-6
			c-2.6,13.8-1.9,17.2,5,23.6h-17.9C1081.2,1454.1,1082.7,1418.3,1074.4,1411.2z M1086.1,1435.9c7.2,0.5,11.3-2.9,11.7-9.6
			c0.6-8.7-2.9-12.9-11.7-13.5V1435.9z"/>
		<path class="st0" d="M1289.4,1449.8c5.9,8.8,1.4,22,13.4,27.3c-6.4,2.4-11.7-0.2-13.5-6.5c-1.1-4.1-1.7-8.4-2.7-12.6s-3-7-8.8-6
			c-0.6,8.1-5.3,16.7,5.5,24.1l-19.8-1.8c9.2-7,12.8-44.2,4-52.6c8.5,0.8,16.3-0.1,22.6,2.6
			C1300.7,1428.6,1300.9,1442.5,1289.4,1449.8z M1280,1425c-0.7,8.2-1.4,15.9-2,23.7c9.9-0.8,13.2-4.3,13.1-13
			C1291,1429.4,1287.3,1425.5,1280,1425z"/>
		<path class="st0" d="M992.5,1424.3c2.7,12.2-4.7,25.8,6.6,37.5l-18.4,0.8c8.1-4.3,9.5-10,9.4-16.6c-0.2-7.1,0-14.3,0.2-21.4
			c0.2-6.5-0.6-12.4-9.2-14.2c7.7-3.3,12.2-1.9,16.2,4.6c7,11.3,15,21.9,22.8,33.1c4.6-12.6,1.5-33.5-5.9-38.7h14.1
			c-1.3,4.7-3.6,9.3-3.7,13.9c-0.5,13.3-0.2,26.6-0.2,39.9l-1.8,0.5l-28.3-39.7L992.5,1424.3z"/>
		<path class="st0" d="M629,1454.2c1.2,7.6-2.3,16.8,9.8,22.1l-19.7,2.2c7.7-8.3,4.6-45-4.7-52.6c7.5-0.7,14.5-2.9,21-1.7
			c10.9,1.9,15.4,15,4.8,25.5c7.3,7.4,5.4,21.3,18.9,24.9c-8.3,2.7-13,0.8-15.8-5.7c-1.5-3.5-2.3-7.4-4.4-10.5
			c-1.8-2.7-4.9-4.4-7.4-6.6L629,1454.2z M628.6,1450.5c10-1.9,12-8.2,10.6-15.5c-1.1-5.8-5.8-8.9-12.8-8.1
			C627.1,1434.6,627.9,1442.3,628.6,1450.5L628.6,1450.5z"/>
		<path class="st0" d="M803.7,1414.5v14.8c-1.4-3.1-1.7-4.5-2.5-5.4c-3.1-3.2-6.2-8.4-9.8-8.8c-4.5-0.5-10.8,1.7-13.8,5
			c-9.3,9.9-4.5,34.8,7.8,40.9c3.8,1.9,9.7,2.3,13.5,0.6c3.3-1.4,0.1-11.2-4.7-15c-0.3-0.2-0.2-0.8-0.3-1.7l12.5-0.9
			c-0.3,5.6-0.5,11.2-0.9,18.5c-5.9,5.7-21.1,6.7-29.8,0.1c-9-6.7-13.7-24-6.3-37.8C774.8,1414.8,785.5,1408.4,803.7,1414.5z"/>
		<path class="st0" d="M613.3,1463.9c-0.3,4.4-0.7,8.8-1.4,13.2c-0.3,1.3-2.4,3-3.8,3.2c-9.2,1.1-18.4,1.8-27.7,2.7
			c7.1-10.2,3.6-45.7-5.7-53.1l31.2-3v11.4c-4.9-8.8-7.6-9.7-19-5.9c0.7,6.4,1.4,12.9,2.1,19.6c7.2,0.7,12.4-0.6,14.7-8.1
			c0.5,5.5,0.9,11,1.4,16.4c-4.2-5.9-9.4-5.8-15.5-3.5c0.3,3.6,0.9,7.3,1,11.1c0.2,5.7,2.2,10,8.4,10.4s10.3-3.1,11.7-9.2
			c0.3-1.8,0.6-3.6,0.7-5.4L613.3,1463.9z"/>
		<path class="st0" d="M1065.9,1410.6c-0.5,4-0.9,7.2-1.2,9.7c-2.1-2.3-3.9-6-6.8-7.1c-3.2-1.3-7.3-0.3-11.5-0.3v20.6
			c6,0.4,12,1.5,15.2-6.2c-0.3,5.4-0.5,10.9-0.7,15.2l-14.3-7c-0.5,6-0.9,9.7-1,13.4c-0.2,5.2,0.3,10.3,6.8,11.6s11.3-2.1,13.3-8.9
			c0.4-1.3,0.6-2.7,0.9-4l1.8,0.3c-1,5.1-2,10.2-2.9,15.1h-33.3c11.6-7.3,7.6-17.8,7.9-26.5s4.3-19-5.8-27.4L1065.9,1410.6z"/>
		<path class="st0" d="M945.7,1462.1c8.7-8.1,9-45.6,0.8-53.1h30.3v10.4c-2.6-2.7-4.5-6.3-7.4-7.4c-3.2-1.3-7.3-0.3-11.1-0.3v21.2
			c6.5,0.1,12.3,0.5,14.8-6.9v14.7l-15.1-6.1c0,5.8,0.3,9.5-0.1,13.2c-0.5,5.5,0.5,10.1,6.6,11.4c6.3,1.4,11.1-1.7,13.2-7.9
			c0.6-1.7,0.8-3.5,2.9-5c-0.7,4.2-1.1,8.5-2.3,12.6c-0.4,1.4-2.9,3-4.5,3C964.8,1462.3,955.7,1462.1,945.7,1462.1z"/>
		<path class="st0" d="M1393.2,1448.8c-0.5-2.3-1-3.9-1.2-5.5c-0.7-5.2-3.5-9.5-8.6-7.3c-2.8,1.2-4.9,6.8-5,10.6
			c-0.1,2.8,3.1,6,5.3,8.7c4.6,5.7,10.2,10.7,9.1,19.2c-0.8,6.4-4.3,11.4-10.3,11.8c-5.1,0.4-11.4-1-15.4-4
			c-2.4-1.9-1.5-8.2-0.9-12.7c1.1,3.2,2.4,6.3,3.9,9.4c2.6,4.8,6.4,7,11.7,3.9c4.6-2.7,5.7-8.9,2.4-13.6c-3-4.3-6.6-8.1-9.8-12.3
			c-4.7-6.2-3.3-12.8,0.1-18.7c2.6-4.6,7.1-6.7,12.8-5.6C1396,1434.4,1397,1436.7,1393.2,1448.8z"/>
		<path class="st0" d="M441.3,1500.8c1.5-7.9,3.2-15.6,4.4-23.4c1.7-10.3,3-20.8,4.5-31.1c0.2-1.5,1-2.9,2.2-6.3
			c1.7,3.6,2.7,5.6,3.6,7.6c4.8,10.9,9.3,21.9,14.4,32.7c2.4,5.2,5.9,9.9,9,15l-13.8,2c6.1-9.1-2.7-14.3-3.2-22.4
			c-5.2,3.2-12.4-1.9-14.3,6.3c-2.4,10.2-1.4,14.3,4.6,17.7c-2.5,0.3-4.5,0.5-6.5,0.8S442.1,1500.6,441.3,1500.8z M461.3,1473
			c-3.3-6.8-6-12.2-8.6-17.6l-1.5,0.4l-2.6,18L461.3,1473z"/>
		<path class="st0" d="M1245.2,1414.3c6,20.9,4.8,41.6,15.4,59.9l-14.6-0.9c7.1-7.6,1.2-14.6,0.8-22.3l-13.9-0.8
			c0.1,7.4-9.4,13.8,0.1,21.7l-12.7-1c2.2-3.9,4.8-7.4,6.4-11.3c5.1-12.6,9.8-25.3,14.7-38
			C1242.2,1419.6,1243.3,1417.8,1245.2,1414.3z M1241.8,1426.8c-2.9,7.7-5,13.3-7.5,19.9l12.5,1.5
			C1245.1,1441.1,1243.7,1435,1241.8,1426.8z"/>
		<path class="st0" d="M437.8,1485.4c-5.1-8.1-5.6-8.3-15.8-6.1c1.9,7.8-0.4,17.3,11.7,22.5l-18.8,3.4c6.2-9.4,0-46.7-9.1-52.2
			l30.5-5.5c0.4,4.4,0.8,8.3,1.1,12.5c-2.7-2.9-4.8-6.8-7.9-8s-7.3,0.4-11.4,0.8c1.2,7.8,2.3,14.8,3.4,21.9c6.5,0.7,11.8,0.2,14-7.3
			C436.2,1472.8,436.9,1478.2,437.8,1485.4z"/>
		<path class="st0" d="M1516.3,1465.5c-0.3-1-0.5-2-0.6-3c0.1-4.7-1.1-8.8-6.2-9.9c-2.2-0.3-4.5,0.5-6,2.2
			c-3.1,4.3-3.6,9.3-0.2,13.9s7.3,8.8,10.2,13.6c3.9,6.4,1.4,15.2-4.7,19.5c-5.4,3.8-15.9,3-19.5-2.5c-2.1-3.3-1.6-8.1-2.3-12.3
			l1.7-0.3c1.3,3.1,2.3,6.3,3.9,9.2c2.6,5.1,6.7,6.8,11.7,3.4s5.4-8.2,2.4-13c-2.9-4.6-6.7-8.7-9.7-13.3c-4.1-6.2-2.7-12.8,1.2-18
			c2.3-3,7.5-5.3,11.4-5.3C1518.9,1449.8,1521,1455,1516.3,1465.5z"/>
		<path class="st0" d="M829.1,1407.2c9.3,18.4,10.8,39.2,23.2,56.3h-14.2c6.2-7.7-1.4-13.8-1.7-21.1h-13c-5.3,13-5.2,17.4,1.4,22.1
			h-12.8c7.8-13.7,8.8-29.8,13.5-44.7C826.8,1415.6,827.9,1411.4,829.1,1407.2z M835.7,1439l-6.7-17.9l-1.5,0.2
			c-1.4,5.8-2.8,11.5-4.4,17.7H835.7z"/>
		<path class="st0" d="M660.3,1459.1c2.4,3.7,3.9,6.7,6,9c4.7,5,8.9,5.2,12.7,1c3.5-3.9,3.1-9.9-1.3-13.8c-3.9-3.5-8.2-6.6-12-10.1
			c-5.5-5-5.6-11.8-3-17.7c1.5-3.4,6-6.9,9.8-7.8c9-2.1,12.1,2.2,10.3,14.2c-1-2.4-1.6-3.8-2.1-5.2c-1.5-4.8-4.5-7.5-9.6-5.8
			c-5.3,1.7-5.4,6.9-3.8,10.6s5.5,6.1,8.2,9.3c4,4.7,9.7,9,11.5,14.5c3.2,10.3-5.1,18.7-15.8,17.6
			C663.1,1474,661.7,1472.1,660.3,1459.1z"/>
		<path class="st0" d="M1116.3,1450.3c1.3,2.7,2.2,5.6,3.8,8.1c3,4.7,6.9,7.5,12.4,3.6c4.9-3.5,5.1-9.7,0.6-14.8
			c-3.3-3.7-7.1-7.1-10.2-11c-4.6-5.7-4.1-12.5-0.6-18c2.1-3.3,7.3-5.9,11.4-6.3c9.2-0.8,10.8,2.7,7.6,14.9
			c-0.7-2.4-1.3-4.1-1.7-5.8c-1-5.3-4.6-8.1-9-6c-2.6,1.2-5.1,6.6-4.5,9.4c0.9,4,4.3,7.6,7.3,10.8c5,5.3,11.2,10.3,9,18.2
			c-1.3,4.6-5.2,10.3-9.3,11.8s-11,0.1-15-2.6c-2.7-1.8-2.5-8-3.6-12.2L1116.3,1450.3z"/>
		<path class="st0" d="M1343.2,1441.3c-2.5-7.6-7-10.9-15.9-10.3c-1.2,13.8-2.6,27.6-3.2,41.5c-0.1,2.4,3.2,5.1,5.3,8.1l-21.3-1.9
			c11.8-3.8,9.9-12.6,10.8-20.2c1-9.2,1.7-18.5,2.5-27.6c-8.7-3-10.5-2.3-17.4,6c0.8-4.2,1.6-8.5,2.1-11.5l37.9,3.6
			C1343.8,1432.3,1343.5,1436.8,1343.2,1441.3z"/>
		<path class="st0" d="M1360.1,1484.4l-16.3-2.5c1.5-4.8,3.7-9.7,4.7-14.9c1.4-7.2,2.2-14.6,2.5-21.9c0.2-5.1-1.2-10.2-1.8-15.1
			l16,2.3c-10.2,5.8-7.7,16.4-8.5,25.4C1355.7,1466.4,1349.3,1476.1,1360.1,1484.4z"/>
		<path class="st0" d="M1175,1440.8c0-6.8,4-12,9.4-11.6c6.8,0.6,7.5,6.1,7.8,11.3c0.3,5.8-3.9,11-8.4,11
			C1177.5,1451.6,1175,1448.5,1175,1440.8z"/>
		<path class="st0" d="M717.9,1441.3c-0.2-6,3.5-10.8,8.5-10.9c4.6-0.2,8.6,5.2,8.8,11.7c0.2,6-3.5,10.4-8.8,10.6
			C720.8,1452.9,718.1,1449.4,717.9,1441.3z"/>
		<path class="st0" d="M887.4,779.9c-26.5,0.8-52.9,2.3-79.4,2.2c-12.7,0-25.7-2.1-38.2-5c-20.8-4.8-28.3-19.1-20.2-38.9
			c9.4-22.9,19.8-45.4,30.2-67.9c4.2-9.1,12.3-14.3,21.5-17.8c20.8-7.7,42.5-11,64.5-11.2c39.6-0.3,79.2-0.1,118.8,0.8
			c19.4,0.4,26,7.1,29.9,26.1c5.8,28.5,6.1,57.3,3.2,86.2c-1.1,11.3-7,19.1-17.9,21.5c-11.3,2.7-22.9,4.3-34.5,4.8
			c-26,0.7-52,0.2-78,0.2C887.4,780.6,887.4,780.3,887.4,779.9z M890,776.7v-0.2c14.8,0,29.6-0.2,44.4,0.1
			c12.9,0.2,17.1-2.7,20.2-15.2c5.9-23.8,3.5-47.4-3.1-70.6c-3.7-12.9-13.2-20.3-26.3-20.7c-24.7-0.8-49.5-0.7-74.3-0.3
			c-11,0.2-12.8,2.7-13.2,13.3c-1.2,28.8-2.3,57.6-3.6,86.5c-0.2,5,1.6,7.1,6.5,7.1C857,776.6,873.5,776.6,890,776.7L890,776.7z
			 M956.1,776.5c15.3,0.5,31.4,0.1,46.7-6.5c5.6-2.4,9.4-6.7,10.1-12.9c3.5-30.3,3.6-60.5-3.5-90.3c-3.5-14.8-9.2-19.3-24.5-19.7
			c-17.4-0.5-34.8-1.6-52.2-1.5c-28.8,0.3-57.7,1.4-86.5,2.1c-6.8,0.2-9,3.9-8.5,10.3c0.5,6.8,4.5,8.3,10.3,7.7
			c2.4-0.2,4.7-0.5,7.1-0.8c26.5-2.8,52.8-3.3,79,2.3c7.6,1.6,14.1,4.9,17.3,12.4c7.5,17.8,12.1,36.3,10.7,55.7
			C961.3,748.9,958.3,762.4,956.1,776.5L956.1,776.5z M814.3,731.1c1-18.6,1.9-32.6,2.6-46.6c0.4-8.3-0.9-9.1-9-6.2
			c-9.4,3.3-17.2,9-21.3,18c-8,17.4-15.4,35.2-22.5,53c-4,9.9-1.8,14.5,7.7,20c10.9,6.3,23,7.1,35.2,7.5c5.5,0.2,7.6-1.7,7.4-7.4
			C814,755.1,814.3,740.8,814.3,731.1z M756.8,764.1c0.5-4,0.2-7.9,1.4-11.4c5.7-16.2,11.1-32.5,17.8-48.2
			c7.6-17.9,21.3-29.6,40.5-34.1c3-0.7,6.2-0.9,9.1-1.9c6.4-2.1,9.6-6.7,9.8-13.4c0.2-3.9-1.5-5.9-5.6-5c-8.4,1.8-17.2,2.6-25,5.9
			c-6.7,2.8-14,7.4-17.8,13.3c-15,24.1-26.2,50.2-35.2,77.2C749.8,753.3,751.4,759.1,756.8,764.1L756.8,764.1z M832.4,673.3
			c-12.1-0.4-12.7,0.2-12.3,11.8c0.1,5,0.6,10,0.4,15c-0.6,23.1-1.4,46.2-2.1,69.3c-0.2,4.3,0.3,7.4,6.1,7.1c5-0.3,7-1.6,7-7.2
			c-0.2-11.9,0.8-23.8,1-35.7C832.5,713.7,832.4,693.7,832.4,673.3L832.4,673.3z"/>
		<path class="st0" d="M903.6,1090.5c42.4-0.8,84.8-1.7,127.2-2.5c9.5-0.2,10.7-1.5,10.8-9.3c0.3-26.2,0.9-52.4,0.9-78.7
			c0-42.5,0.2-84.9-0.6-127.4c-0.9-47.2-2.4-94.4-4.5-141.6c-0.8-19.1-2.8-38-5.9-56.9c-4.6-27.8-17-40.2-44.7-44.6
			c-19.9-3.1-40.1-3.9-55.5-5.4c14.2-2.6,33.2-2.4,52.1,1.2c43.5,8.4,49.3,20,53.7,54.6c3.9,30.6,4.6,61.7,6,92.7
			c1.9,42.4,3.8,84.8,4.3,127.3c0.5,42.2-0.8,84.4-1.3,126.7c-0.3,18.4-0.7,36.7-1.1,55.1c-0.2,8.6-0.8,9.3-9.6,9.3H903.6V1090.5z"
			/>
		<path class="st0" d="M733.3,737.6c-3.7,18.7-9.1,37.2-10.6,56c-2.4,31.6-3,63.3-3.1,95c-0.1,62.3,0.8,124.5,1.3,186.8
			c0,2.4-0.1,4.8,0.1,7.2c0.5,8,3.1,10.5,11.2,10.7c2.4,0,4.8-0.4,7.1-0.4c23.1,0,46.2,0,69.3,0c0,0.9,0,1.8,0,2.6
			c-14.7,0-29.5,0-44.2,0c-11.2,0-22.4,0.2-33.6,0.2c-10.5,0-12.3-1.7-12.7-12.5c-0.6-16.4-1.5-32.9-1.7-49.3
			c-0.6-56.1-1.1-112.1-1.5-168.2c-0.2-33.4,0-66.8,8.8-99.4c2.7-9.8,5.7-19.5,8.5-29.3L733.3,737.6z"/>
		<path class="st0" d="M750.6,1156.6c154.9-12.5,309.9-23,451.9-21.1L750.6,1156.6z"/>
		<path class="st0" d="M1681.2,942.8c-22.1-4.5-44.7-11.2-67.7-13.5c-32.7-3.2-65.7-5.1-98.5-4.1c-51.2,1.6-102.3,6.2-153.4,9.4
			c-1.6,0.1-3.3,0-4.9,0c-0.1-0.6-0.1-1.2-0.2-1.8c33.7-3.6,67.4-8.6,101.2-10.4c38.3-2.1,76.7-2.2,115.1-1.6
			c33.2,0.5,66,5.4,97.5,16.8C1674.3,939.3,1678.2,941.5,1681.2,942.8z"/>
		<path class="st0" d="M783.7,1116.2l397.2-16.2l0.1,3.1l-397,16.2C783.9,1118.3,783.8,1117.3,783.7,1116.2z"/>
		<path class="st0" d="M1668.3,973l-319.1,13.2c0-1.1-0.1-2.2-0.1-3.3l319.2-13.5C1668.3,970.6,1668.3,971.8,1668.3,973z"/>
		<path class="st0" d="M743.5,806.6c88.5-4.4,177-5.8,265.6-3.6v2.4l-265.6,3.5C743.6,808.1,743.5,807.3,743.5,806.6z"/>
		<path class="st0" d="M333.1,858.3c99-7.9,198.1-9.6,297.2-3.6C531.4,861.4,432.2,862.6,333.1,858.3z"/>
		<path class="st0" d="M629.3,948.4c-17.5-4.2-34.8-9.2-52.5-12.5c-39.1-7.3-78.6-8.5-118.3-7.4c-31.5,0.9-62.9,1.8-94.3,3.7
			c-27.8,1.6-55.6,4.5-83.4,6.8c-2.7,0.4-5.4,0.1-7.9-0.9c14.4-1.9,28.8-4,43.2-5.7c60.9-7.2,122.2-10.1,183.5-8.5
			C539,925,578,928.9,615.6,942c4,1.4,7.9,3.2,11.8,4.9C628.1,947.4,628.7,947.8,629.3,948.4z"/>
		<path class="st0" d="M593.8,799.1l-266.9,23.2C392.3,810.2,568.2,795.2,593.8,799.1z"/>
		<path class="st0" d="M1721.6,870.5c-0.3-4.6-0.7-9.3-0.8-13.9c-0.2-8.6-2-10.4-10.7-10.1c-17.2,0.6-34.3,1.4-51.4,1.9
			c-44.3,1.3-88.7,2.6-133,3.8c-70.5,1.8-141.1,3.9-211.6,5.1c-46,0.8-92,0.2-134.7,0.2c6.8-0.3,16.9-0.8,27.1-1.2
			c61.9-1.9,123.9-3.7,185.8-5.5c47.9-1.3,95.8-2.3,143.7-3.4c59.3-1.3,118.7-2.6,178.1-3.8c9-0.2,9.3,0.1,9.4,9c0,6,0,11.9,0,17.9
			L1721.6,870.5z"/>
		<path class="st0" d="M470.3,1230.7c-37.5-1.4-63.2-26.4-68.4-65c-5.2-38.8,19.8-78.5,57.1-90.6c39.1-12.7,78.3,10.6,87.4,51.8
			c10.2,46.5-18.8,92.7-64.2,102.4C478.2,1230,474.3,1230.5,470.3,1230.7z M543.5,1148.3l1.9-0.5c-3.2-11.4-5-23.3-9.7-34
			c-14.1-32.6-49.6-46-81.8-31.8c-38.6,17-58,64.1-42.6,103.3c9.5,24.3,32.2,40.3,57.1,40.5C508.5,1226.1,543.7,1189.8,543.5,1148.3
			L543.5,1148.3z"/>
		<path class="st0" d="M1461,1211.7c-38.4,0-69.4-31.6-69.4-70.7s31-70.6,69.5-70.6s69.2,31.2,69.2,70.7
			C1530.3,1180.3,1499.5,1211.7,1461,1211.7z M1461,1207.1c35.2,0,64.5-29.7,64.7-65.7c0.2-36.4-28.9-66.6-64.3-66.8
			s-65,29.9-65.1,66.1C1396.3,1177.2,1425.4,1207.1,1461,1207.1z"/>
		<path class="st0" d="M525.3,1154.9c-0.8,25.6-18.1,47.4-41.1,52.1c-29.3,5.9-55.3-14.6-57-45.1c-2-36.1,28.4-64,61.7-56.5
			C510.3,1110.2,526,1131.6,525.3,1154.9z"/>
		<path class="st0" d="M1461.4,1093.7c25.1,0.1,44.7,20.7,44.6,46.9s-19.8,46.7-45,46.6s-45-20.5-45.1-46.7
			C1415.8,1114.2,1435.8,1093.7,1461.4,1093.7z"/>
		<path class="st0" d="M787.5,932c-0.1,0.3,0,0.7-0.2,0.8c-1.1,1.1-1.1,2.8-0.1,3.9l7.9,9c0.8,1.1,2.3,1.4,3.5,0.8
			c0.3-0.1,0.7,0,0.9,0.2c-0.2,0.1-0.3,0.3-0.5,0.4c-2,1.4-4,2.8-6,4.2c-0.3,0.1-0.7,0.2-1,0.3c0.4-0.7,0.7-1.5,1-2.3
			c0.3-1.1-0.1-2.3-1-3c-2.5-2.7-5-5.5-7.5-8.3l-0.3,0.1c1.4,5.7,2.8,11.4,4.2,17.1l-16.4-6.3c0.1,0.2,0.2,0.4,0.4,0.6l6.7,8.3
			c0.7,1.1,2.1,1.4,3.3,0.7c0.5-0.2,1-0.8,1.3-0.2c-1.7,1.8-3.3,3.4-5,5c-0.2,0.2-0.6,0.1-1,0c0.8-0.7,1.2-1.8,0.9-2.9
			c-0.1-0.5-0.2-0.9-0.5-1.3c-2.3-3.2-4.6-6.3-6.8-9.5c-1-1.3-2.7-1.6-4.1-0.9c-0.5,0.3-0.9,0.4-1.2-0.3l5.4-4.6
			c0.9,0.2,0.4,0.8,0.2,1.3l14.7,6.3c-0.4-1.3-0.9-2.7-1.2-4.1c-0.7-3.2-1.3-6.4-1.8-9.6c0-0.6-0.4-1.2-1-1.4
			c-0.3-0.1-0.5-0.3-0.6-0.6c0-0.1,0.3-0.4,0.5-0.5L787.5,932z"/>
		<path class="st0" d="M836.9,929.8c-1.9,1.2-4.3,1.5-6.4,0.8c-0.3-0.1-0.6-0.3-0.8-0.6c-0.9-1-1.8-1.9-2.6-2.9
			c-2-2.3-3.4-2.4-6.2-1c0.7,1.7,1.3,3.4,2.1,5.1c0.6,1.2,1.7,1.4,3,1.3c0.5,0.1,1,0.2,1.5,0.3l-8.6,3.5c0.2-0.3,0.3-0.7,0.5-0.9
			c1.5-1.3,1.7-1.9,0.9-3.8l-4.7-10.8c-0.5-1.2-1.8-1.8-3-1.5c-0.4,0.1-0.9,0.2-1.3,0.1c0.2-0.3,0.3-0.7,0.6-0.8
			c3.2-1.3,6.4-2.7,9.7-3.8c0.9-0.3,2.1,0.1,3.2,0.2c1.6-0.1,3,1.1,3.3,2.7c0.5,1.6,0,3.3-1.3,4.5c-0.5,0.4-0.9,0.7-1.3,1.2
			c1.4-0.4,2.2,0.5,3,1.3c1.4,1.5,2.9,2.9,4.4,4.4c0.3,0.2,0.6,0.4,1,0.4c0.7,0,1.4-0.1,2.2,0C836.3,929.5,836.6,929.6,836.9,929.8z
			 M816.9,917.3c0.3,0.3,0.5,0.6,0.7,1c1,2.3,2,4.7,2.9,7.1c1.5-0.8,2.9-1.3,3.9-2.8c0.9-1.1,1-2.6,0.3-3.8
			c-0.3-0.5-0.4-1.1-0.8-1.4C821.9,915.8,819,915.8,816.9,917.3L816.9,917.3z"/>
		<path class="st0" d="M858,925.6c-2.8,0.8-5.7,0.3-8.1-1.3c-2.7-1.8-5.5-3.3-8.4-5c0.2,2.4,1,4.8,2.3,6.8c0.3,0.4,1.1,0.4,1.7,0.6
			s1.2,0.1,1,0.8l-8.5,2c0.2-0.3,0.5-0.5,0.8-0.8c1.1-0.6,1.7-1.9,1.4-3.2c-1-3.7-2.1-7.3-3.1-11c-0.3-1.5-1.7-2.7-3.2-2.7
			c-0.3-0.1-0.5-0.1-0.7-0.3v-0.3c0.5-0.1,1-0.2,1.4-0.3c2-0.6,4-1.2,5.9-1.7c0.4,0,0.7,0,1.1,0.1c-0.7,0.6-1.3,1.2-1.9,1.9
			c-0.2,0.4-0.3,0.9-0.1,1.3c0.4,1.5,0.8,3,1.2,4.5c0.1,0.6,0.2,1.1,0.2,1.7c1.2-1.3,2.4-2.6,3.5-4s1.7-2.8,2.6-4.2
			c0.5-0.9,0.2-1.5-0.8-1.7c-0.2,0-0.5-0.1-0.9-0.2c1.5-0.7,7-1.5,7.7-1c-5,1.7-6.7,6.3-9.5,9.8c0.6,0.2,1.2,0.4,1.8,0.7
			c2,1.4,4,3,6.1,4.3c1.8,1.1,3.6,2.4,5.8,2.6C857.4,925,857.6,925.3,858,925.6z"/>
		<path class="st0" d="M980.2,959.1c0.5,0.5,0.5,0.9-0.1,1.2c-1.5,0.8-2.9,1.7-4.4,2.4c-0.3,0.1-0.6,0-0.8-0.1
			c-3.7-3.4-7.3-6.9-11.6-9.6v-0.4c0.4-0.1,0.8-0.1,1.1,0c1.5,0.7,3.2,0.2,4.1-1.2l7.2-8.7c1.3-1.6,1.2-2.9-0.4-4.2l0.5-0.7
			l13.1,11.2l-3.6,3c0-0.2-0.1-0.5-0.2-0.7c0-0.1,0.1-0.1,0.1-0.2c0.3-0.8,1.4-1.5,0.6-2.7c-0.5-0.8-1.1-1.6-1.7-2.4
			c-1.3-1.2-2.8-2.3-4.2-3.4l-5.2,6c1.9,1.1,3.1,3.3,5.5,3.5c0.9,0,1.7-0.2,2.6-0.4c0,0.2,0,0.7-0.2,0.9c-1.4,1.3-2.8,2.5-4.3,3.9
			c-0.1-0.3-0.2-0.6-0.2-0.9c0-0.4,0.4-0.9,0.3-1.2c-0.2-0.8-0.6-1.5-1.1-2.2c-1.1-1.1-2.3-2-3.4-3c-0.2,0.4-0.4,0.8-0.6,1.2
			c-0.9,1-1.8,2-2.8,3c-0.7,1.1-0.7,2.4-0.2,3.5c1,1.5,2.5,2.6,4.1,3.3c1.4,0.7,3,0.6,4.2-0.2C979.2,959.8,979.7,959.5,980.2,959.1z
			"/>
		<path class="st0" d="M874.8,918.2c0.2,0.3,0.5,0.6,0.5,0.8c-0.3,1.6-0.7,3.3-1.2,4.9c0,0.2-0.5,0.4-0.8,0.4
			c-2.9,0.2-5.8,0.2-8.8,0.5c-1.8,0.1-3.6,0.5-5.6,0.6c0.2-0.3,0.4-0.6,0.7-0.8c1.5-0.5,2.4-2.1,2-3.7c-0.5-3.9-0.9-7.8-1.5-11.7
			c-0.2-0.7-0.6-1.3-1.2-1.7c-0.6-0.3-1.3-0.5-2-0.5c-0.2-0.4,0.1-0.6,0.7-0.6c3.6-0.3,7.1-0.5,10.7-0.8c1.7-0.1,3.3-0.2,4.9-0.3
			c-0.1,1.5-0.2,2.9-0.3,4.4c-0.2-0.1-0.4-0.2-0.6-0.3c-0.1,0-0.1-0.2-0.1-0.3c-0.4-0.8-0.2-2-1.5-2.2c-0.9-0.2-1.9-0.4-2.8-0.5
			c-1.7,0-3.3,0.3-5.1,0.5c0.3,2.6,0.5,5,0.8,7.7c2-0.5,4.2,0.2,6-1.3c0.6-0.6,1.1-1.3,1.5-2.1c0.1,0.3,0.4,0.6,0.4,0.9
			c0,1.8,0,3.5,0,5.5c-0.3,0.2-0.7,0.3-1-0.4c-0.5-1.1-1.6-1.8-2.8-1.8c-1.4,0.1-2.9,0.2-4.3,0.3c0.2,0.4,0.3,0.9,0.4,1.3
			c0.1,1.3,0.2,2.6,0.3,3.9c0.4,2,2.4,3.3,4.4,2.9c0,0,0,0,0.1,0c1.7-0.2,3.4-0.3,4.6-2c0.5-0.6,0.9-1.4,1-2.2
			c0-0.4,0.2-0.9,0.2-1.3L874.8,918.2z"/>
		<path class="st0" d="M970,941.1c-0.7-0.3-0.9-0.7-0.5-1.3c0.2-0.4,0.4-0.8,0.5-1.3c0.5-1.4,0.3-2.9-0.6-4c-1.8-2.2-4.3-3-6.7-3.8
			c-0.7-0.3-1.7,0.2-2.5,0.3c-3.4,0.5-5.2,2.9-6.8,5.6c-1.4,2.4-0.8,4.8,0.2,6.9c1,2.3,2.8,4.5,5.6,4.9c2.1,0.4,4.2-0.1,5.9-1.3
			c0.6-0.5,0.6-0.4,1,0.2c-1.3,0.9-2.7,1.9-4.1,2.8c-0.2,0.1-0.5,0.2-0.8,0.1c-3-1.1-5.9-2.3-8.1-4.8c-1.7-1.9-2.9-4.1-3.6-6.5
			c-0.1-0.3-0.2-0.7-0.1-1.1c0.3-1.4,0.7-2.7,1.1-4c0.5-0.7,1-1.4,1.6-2.1c1.5-2.2,4-2.6,6.3-3.3c0.7-0.2,1.5,0.3,2.3,0.3
			c3.5,0.4,6.3,2.4,9,4.3c1.1,0.8,1.7,2.3,2.5,3.5c0.1,0.2,0.1,0.4,0,0.5C971.5,938.7,970.8,939.9,970,941.1z"/>
		<path class="st0" d="M902.3,918c-0.4,1.6-0.7,3.2-0.8,4.9c-0.1,1.2,0.7,2.4,1.9,2.8c0.3,0.1,0.5,0.4,0.7,0.7
			c-0.3,0.1-0.6,0.1-0.9,0.1c-2.1-0.6-4.4-0.9-6.6-0.9c-0.5,0-1.1,0-0.7-0.9c1,0.2,2-0.2,2.5-1.1c0.3-0.4,0.6-0.9,0.7-1.4
			c0.6-3.9,1.2-7.9,1.8-11.8c0-1.3-0.8-2.4-2-2.8c-0.3-0.1-0.5-0.3-0.6-0.6c4.1,0.7,8.4,0.4,12.1,2.2c1.2,0.7,2.3,1.7,3.1,2.9
			c0.3,0.4-0.1,1.4-0.1,2.1c0,2.3-1.9,3.3-3.5,3.9s-3.7,0.3-5.6,0.4C903.7,918.3,903,918.2,902.3,918z M902.5,917.2
			c2.2,1.1,4.2,0.2,6.2-0.2c0.2-0.1,0.3-0.2,0.4-0.3c0.8-1.5,1.9-2.9,1-4.8c-0.2-0.5-0.3-1.1-0.6-1.3c-1.6-1.4-3.6-2.2-5.7-2.5
			c0.1,0.5,0.2,0.9,0.1,1.4C903.5,912.1,903,914.7,902.5,917.2L902.5,917.2z"/>
		<path class="st0" d="M891,899.8l-6.5-0.4c0.3-0.2,0.5-0.5,0.7-0.5c1-0.3,1.8-1.1,1.9-2.2c0.1-1.6,0.2-3.3,0.3-5l-8.7-0.4
			c0.1,1.6,0.1,3.2,0.2,4.7c0.1,1.8,0.1,1.8,1.9,3.2h-6.7c0.5-0.3,0.7-0.6,0.9-0.7c1-0.2,1.6-1.2,1.5-2.2c0.1-3.4,0-6.8,0-10.2
			c0-1.1-0.7-2-1.7-2.4c-0.2-0.1-0.4-0.4-0.7-0.8c2.5,0,4.6,0,6.8,0c0,0,0.1,0.3,0.2,0.5c-1.3,0.2-2.3,1.3-2.3,2.7
			c-0.1,1.2-0.1,2.4-0.2,3.6c0,0.1,0,0.3,0.1,0.4l8.7,0.3c0-1,0-1.9,0-2.8c0-0.4,0-0.9,0-1.3c0-1.8-0.2-2.1-2.1-2.8
			c0.3-0.3,0.3-0.3,3.2,0.1c1.2,0.1,2.5,0.1,3.7,0c-0.2,0.2-0.3,0.4-0.5,0.5c-1,0.3-1.7,1.1-1.9,2.1c-0.3,3.5-0.7,6.9-0.9,10.4
			c-0.1,0.9,0.4,1.9,1.2,2.3C890.4,899.2,890.7,899.5,891,899.8z"/>
		<path class="st0" d="M799.2,923.1c4.9,4.1,9.8,8.2,14.7,12.2c1.1,1,2.6,1.3,4,1c-0.2,0.3-0.3,0.6-0.5,0.8
			c-1.7,0.9-3.5,1.8-5.3,2.6c-0.3,0.1-0.7,0-0.9,0c0.3-0.6,0.6-1.1,0.8-1.7c0.3-0.8-0.5-1.1-0.9-1.4c-1-0.8-2-1.6-2.9-2.5
			c-0.3-0.3-0.6-0.6-0.8-1l-6.4,3.5c0.4,1.7,0.6,3.3,1.1,4.8c0.3,0.7,0.8,1.3,1.4,1.8c0.2,0.2,0.8-0.2,1.2-0.3l1.2-0.3l0.1,0.3
			l-6,3.6c0-0.3-0.1-0.7,0-0.8c1.2-0.8,1-2,0.8-3.2c-0.6-4.3-1.3-8.6-1.9-12.8c-0.2-1.6-0.3-3.2-0.6-4.7
			C798.1,924.2,798.5,923.4,799.2,923.1z M800.6,935.5l6-3.1l-7.1-5.2C799.9,929.9,800.3,932.6,800.6,935.5z"/>
		<path class="st0" d="M947.7,942c-0.3,0-0.6,0-0.9-0.1c-1.8-0.9-3.5-1.8-5.2-2.7c-0.3-0.2-0.4-0.5-0.6-0.8c0.6,0,1.1-0.1,1.7-0.1
			c0.6-0.2,1.1-0.8,1-1.5c0.1-1.3,0.2-2.6,0.4-3.9c0.1-0.4,0.2-0.9,0.3-1.3l-6.5-3c-1.2,1.2-2.3,2.3-3.3,3.5
			c-0.5,0.7-0.8,1.4-0.9,2.2c0,0.2,0.6,0.6,0.9,0.9c0.3,0.2,0.5,0.6,0.7,0.9l-6.2-2.5c0.2-0.1,0.5-0.5,0.6-0.5
			c1.6,0.5,2.6-0.6,3.6-1.5c3-2.7,5.9-5.5,8.9-8.3c1.3-1.2,2.6-2.2,3.9-3.4c0.5-0.6,1.4-0.7,2.1-0.4c-0.1,1.2-0.3,2.5-0.4,3.8
			c-0.5,5-1,9.9-1.5,14.9c-0.2,1.4,0.4,2.7,1.5,3.5L947.7,942z M944.9,922.1l-6.4,5.6l6,3C944.7,927.8,944.8,925.1,944.9,922.1
			L944.9,922.1z"/>
		<path class="st0" d="M885.1,906.5c-2.1-0.3-4.3-0.2-6.4,0.3c-0.2,0-0.5,0.4-0.6,0.6c-0.4,0.7-0.8,1.5-1.2,2.3
			c-0.7,0-0.9-0.2-0.8-0.9c0.3-1.4,0.5-2.8,0.7-4.4c1.6,1.6,3.6,1,5.3,1.1c4,0.3,8.1,0.5,12.2,0.7c0.8-0.1,1.6-0.2,2.4-0.4
			c-0.1,1.5-0.1,3-0.3,4.7c0,0.2-0.3,0.3-0.4,0.5c-0.1-0.2-0.3-0.3-0.4-0.5c-0.5-2-2.2-3.4-4.2-3.5c-1.1-0.1-2.1-0.2-3.3-0.3
			c-0.1,1-0.2,1.8-0.2,2.7c-0.3,3.7-0.6,7.4-0.9,11.1c-0.2,1.4,0.7,2.8,2.1,3.2c0.5,0.2,1,0.5,1.5,0.8l-0.1,0.2l-10-0.6l-0.1-0.2
			c0.5-0.2,1.1-0.4,1.7-0.5c1.4-0.3,2.4-1.6,2.4-3c0.2-4.2,0.3-8.5,0.5-12.7C884.9,907.3,885,906.9,885.1,906.5z"/>
		<path class="st0" d="M927.3,913.3c-0.3,0.1-0.7,0.2-1.1,0.2c-0.6-0.1-1.3-0.2-1.9-0.2c-1,0.2-1.8,0.9-2,1.9
			c-1.2,3.9-2.5,7.8-3.8,11.7c-0.5,1.5-0.1,2.2,1.3,2.6c0.9,0.2,1.9,0.5,2.8,0.8c2.2,1.2,4.9,0.6,6.3-1.4c0.5-0.6,1-0.5,1.4,0.1
			c-1.1,1.3-2.1,2.5-3.2,3.8c-0.2,0.2-0.5,0.3-0.8,0.2c-4.5-2-9.3-3.5-14.2-4.3l-0.1-0.4c0.3-0.1,0.6-0.4,0.8-0.3
			c1.3,0.2,2.5-0.6,2.9-1.8c1.1-4,2.3-8,3.4-12c0.4-1.2-0.2-2.5-1.4-2.9c-0.1,0-0.3-0.1-0.4-0.1c-0.2-0.1-0.5-0.2-0.7-0.2l0.3-0.8
			l10.1,3L927.3,913.3z"/>
		<path class="st0" d="M901.4,901.2c-3.1,0.1-6-1.6-7.5-4.3c-0.5-0.9-0.4-2.1-0.6-3.2c-0.7-2.8,0.9-5,2-7.3c0-0.1,0.1-0.1,0.1-0.2
			c1.7-0.7,3.2-1.9,5.2-1.8c0.9,0.1,1.7,0.2,2.6,0.2c1.4,0,2.3,0.9,3.4,1.6c2.5,1.6,2.8,4.1,2.7,6.8c-0.1,2.2-0.9,4.3-2.4,5.9
			c-0.3,0.4-0.8,0.8-1.3,1C904.2,900.5,903,901.7,901.4,901.2z M895.5,892.7l0.2,0.1c0,0.2,0,0.3,0,0.5c-0.1,2.2,0.9,4,2,5.7
			c0.1,0.2,0.3,0.4,0.5,0.5c1.5,0.5,2.9,1.2,4.6,0.3c0.9-0.4,1.7-1,2.3-1.8c0.8-1.3,1.3-2.7,1.5-4.1c0.5-2.5,0-5.1-1.5-7.2
			c-0.1-0.2-0.3-0.4-0.5-0.5c-2.1-1.5-6.1-1-7.4,1.3C896.6,889.1,896,890.9,895.5,892.7z"/>
		<path class="st0" d="M858.9,887.4c0.3,2.9,0.6,5.7,0.8,8.6c0,0.9,0.3,1.8,1,2.4c0.3,0.3,0.7,0.4,1.1,0.7c0.3,0.2,0.5,0.4,0.8,0.7
			l-6.1,0.8l-0.3-0.4l0.7-0.2c1.8-0.6,2.1-2.1,2-3.7c-0.2-3-0.5-6-0.8-8.9c-0.3-1.3-1.3-2.2-2.6-2.4c-0.3,0-0.5,0-1-0.1
			c0.3-0.3,0.4-0.5,0.6-0.5c1-0.2,2-0.4,3-0.5c0.5,0.1,0.9,0.4,1.2,0.7c3.6,3.6,7.2,7.3,10.8,11c0-1-0.1-2-0.2-3.1
			c-0.1-1.9-0.2-3.8-0.3-5.8c0-0.4-0.1-0.9-0.3-1.3c-0.4-1.3-1.4-1.6-2.7-1.5v-0.3c0.2-0.1,0.3-0.4,0.5-0.4c1.9-0.1,3.9,0,5.8,0.2
			c-1,0.1-1.9,0.9-2.1,1.9c-0.1,0.2-0.1,0.4-0.2,0.7c0.1,4.1,0.2,8.2,0.3,12.3c0.1,0.6,0.1,1.3,0.3,1.9L858.9,887.4z"/>
		<path class="st0" d="M818.2,901.1c0.4,1.4,0.8,2.8,1.3,4.2c0.3,1,1.2,1.7,2.2,1.6c0.4,0,0.7,0.2,0.9,0.5l-6.5,2.2
			c0.3-0.4,0.5-0.8,0.7-0.9c0.9-0.5,1.2-1.6,0.8-2.5c-1.1-3.4-2.3-6.8-3.5-10.3c-0.3-0.9-1.2-1.4-2.1-1.3l-1.1,0.1
			c0.4-0.4,0.5-0.7,0.7-0.8c2.2-0.8,4.4-1.6,6.6-2.2c1.5-0.3,3,0.1,4.2,1.1c1.5,1.2,1.2,4.4-0.4,5.6c-0.2,0.1-0.3,0.3-0.5,0.5
			c0.6,0.4,1.1,0.9,1.6,1.4c1.1,1.2,2.1,2.5,3,3.8c0.4,0.6,1.1,0.9,1.8,0.9c0.6,0,1.3-0.2,1.7,0.6c-1.4,0.7-3.1,0.8-4.5,0.2
			c-0.3-0.2-0.6-0.4-0.9-0.7c-0.7-0.9-1.4-1.9-2.1-2.8C821.4,900.5,820.2,900.1,818.2,901.1z M818,900.3c1.8-0.3,3.2-1.6,3.5-3.4
			c0.2-1.2-0.3-2.4-1.3-3.2c-1.6-1.1-3.2-1.4-4.6-0.5L818,900.3z"/>
		<path class="st0" d="M807.8,906.5c0.3-0.4,0.5-0.8,0.7-0.9c1.4-0.5,2.9-1,4.5-1.6c0.4,0.9-1.5,1.5-0.5,2.6
			c0.6,0.9,1.2,1.8,1.7,2.7c-1,1.3-2.3,2.3-3.9,2.8c-1.3,0.6-2.7,1-4.2,1.3c-2,0-4-0.6-5.7-1.7c-0.3-0.2-0.5-0.4-0.6-0.6
			c-0.3-0.5-0.5-1-0.8-1.4c-1.3-1.7-1.8-3.8-1.3-5.9c0.3-1,0.7-1.9,1.1-2.8c0.7-1.5,2-2.7,3.5-3.4c2.1-1,4.3-1.6,6.6-1.8l1.3,4.4
			c-0.5-0.4-0.8-0.5-1-0.8c-0.7-1.4-2.2-2.1-3.8-2c-1.4,0.1-2.7,0.6-3.9,1.4c-2.3,1.7-2.6,4-1.7,6.6c0.3,0.8,0.6,1.6,0.9,2.4
			c0.8,1.8,2.3,3.2,4.2,3.7c2,0.7,4.1,0.6,6-0.3c0.6-0.2,0.8-0.9,0.6-1.5c0,0,0-0.1-0.1-0.1c-0.2-0.3-0.3-0.7-0.4-1.1
			C810.4,906.7,810,906.5,807.8,906.5z"/>
		<path class="st0" d="M936.7,909.8c0.3-0.1,0.7-0.3,0.9-0.3c1.1,0.1,2.2-0.6,2.4-1.7c1.3-3.3,2.5-6.6,3.7-10
			c0.3-0.9-0.1-1.9-0.9-2.4c-0.2-0.1-0.2-0.3-0.3-0.5c0.2,0,0.4-0.1,0.5-0.1c0.5,0.2,1,0.4,1.4,0.6l8.2,3.3c0.3,0.1,0.6,0.3,0.8,0.4
			l-1.7,3.3h-0.2c0-0.3,0-0.7,0-1c0.3-1.2-0.4-2.5-1.5-3c-0.9-0.4-1.9-0.7-2.8-1c-0.3-0.1-0.6-0.2-1-0.3l-2.3,6
			c2.9,1.2,4.1,2,6.1-0.1c0,0.3,0,0.5,0,0.8c-0.6,1.3-1.1,2.6-1.7,3.8c-0.1,0.2-0.3,0.3-0.5,0.5c-0.1-0.2-0.3-0.5-0.3-0.7
			c0.1-0.9-0.4-1.8-1.2-2.2c-0.9-0.5-1.8-0.8-2.8-1.1c-0.6,1.4-1.1,2.8-1.6,4.1c-0.2,0.5-0.2,1-0.1,1.5c0.6,2.1,3.3,3.2,5.3,2.4
			c1.3-0.5,1.8-1.6,2.8-2.5c0,0.3,0.1,0.6,0,0.8c-0.8,1.1-1.6,2.2-2.4,3.3c-0.2,0.2-0.5,0.3-0.8,0.2
			C943.5,912.6,940.2,911.2,936.7,909.8z"/>
		<path class="st0" d="M843.9,902.3c0.2-0.3,0.3-0.6,0.6-0.7c1-0.5,1.5-1.7,1.2-2.8c-0.5-3.5-1.2-6.9-1.8-10.4
			c-0.2-1-1.2-1.7-2.7-1.6c0.4-0.4,0.5-0.7,0.7-0.7c3.7-0.6,7.3-1.1,11-1.6c0.1,1.3,0.1,2.5,0.2,3.8l-0.2,0.1
			c-0.2-0.3-0.3-0.6-0.5-0.9c-0.4-1.3-1.6-2-2.9-1.8c-0.2,0-0.4,0-0.6,0.1l-3.2,0.6l1,6.4c3.1-0.4,4.3-0.2,5.2-3.1
			c0.1,0.3,0.2,0.5,0.3,0.8c0.2,1.3,0.3,2.7,0.4,4c0,0.2-0.1,0.5-0.2,0.7c-0.2-0.1-0.4-0.2-0.5-0.4c-0.5-1-1.5-1.5-2.6-1.3l-2.5,0.4
			c0.2,1.4,0.5,2.8,0.6,4.2c0.2,1.6,1.7,2.8,3.4,2.6c0.2,0,0.3-0.1,0.5-0.1c2.5-0.7,3.4-1.8,3.4-4.3c0-0.2,0-0.4,0.1-0.9
			c0.3,0.4,0.5,0.6,0.5,0.7c-0.1,1.5-0.2,2.9-0.4,4.4c0,0.2-0.4,0.4-0.7,0.4C850.9,901.3,847.5,901.7,843.9,902.3z"/>
		<path class="st0" d="M826.7,890c0.3-0.4,0.5-0.7,0.7-0.8c3.6-0.8,7.2-1.6,10.8-2.4c0.2,1.3,0.3,2.5,0.5,3.8l-0.2,0.1
			c-0.2-0.3-0.4-0.6-0.5-0.9c-0.5-1.1-1.7-1.8-2.8-1.5c-1,0.2-2.1,0.5-3.1,0.8c-0.2,0.1-0.5,0.2-0.8,0.3l1.6,6.4
			c2-0.8,4.6-0.3,4.7-3.8c0.3,0.3,0.6,0.4,0.6,0.5c0.3,1.6,0.5,3.2,0.8,5.2c-0.9-0.7-1.5-1.9-2.7-1.7s-2.2,0.5-3.2,0.7
			c0.3,1.4,0.7,2.6,0.9,3.9c0.1,1.5,1.5,2.6,3,2.5c0.1,0,0.2,0,0.3,0c2.3-0.3,4.2-2,3.8-4.4c0-0.3,0-0.5,0-0.8l0.3-0.1
			c0.1,0.3,0.4,0.5,0.4,0.8c0,1.4,0,2.9,0,4.3l-11.1,2.6c0.2-0.3,0.3-0.7,0.5-0.8c1-0.6,1.4-1.8,1-2.8c-0.8-3.4-1.7-6.8-2.6-10.2
			C829.3,890.3,828.3,889.8,826.7,890z"/>
		<path class="st0" d="M912.1,886.5l1.5,0.3c1.5,0.3,2.9,0.5,4.3,0.8c0.3,0.1,0.6,0.2,0.8,0.4c-0.3,0.1-0.5,0.2-0.8,0.3
			c-0.9,0.2-1.6,0.9-1.9,1.7c-0.7,3-1.3,6-1.9,9c-0.2,1,1.1,3.2,2.1,3.5c0.5,0.2,1,0.4,1.5,0.6c2.1,0.7,4.5-0.4,5.2-2.5
			c0-0.1,0.1-0.2,0.1-0.3c0.6-2.4,1.2-4.8,1.8-7.2c0.4-1.4,0.3-2.7-1.1-3.5c-0.1-0.1-0.1-0.2-0.1-0.5l5.1,1.3l0.3,0.3
			c-0.2,0.1-0.4,0.1-0.6,0.2c-1.4,0.1-1.8,1-2.2,2.1c-1,2.9-1.9,5.9-2.9,8.8c-0.5,1.4-2.9,2.7-4.3,2.8c-2,0.1-3.6-0.8-5.3-1.5
			c-0.1-0.1-0.3-0.1-0.3-0.2c-0.5-1.5-1.8-2.7-1.3-4.6c0.7-2.7,1-5.4,1.5-8.1c0.4-1.2-0.2-2.4-1.3-2.9
			C912.3,887,912.3,886.8,912.1,886.5z"/>
		<path class="st0" d="M993.4,944.5c-0.1-0.1-0.2-0.2-0.3-0.3c-4.3-5.5-9.6-10-15.1-14.3c-7.4-5.6-15.1-10.6-23.1-15.2l-1-0.6l1-1.8
			c1.8,1.1,3.5,2.2,5.2,3.3c8.6,5.7,17.1,11.6,24.6,18.8c3,2.8,5.6,6.1,8.4,9.1c0.2,0.3,0.4,0.6,0.6,0.9L993.4,944.5z"/>
		<path class="st0" d="M797.9,912l1,1.8c-7.3,4.1-14.3,8.7-21.1,13.5c-6.8,4.9-13.3,10.2-18.5,16.8l-0.2-0.2
			c0.2-0.3,0.4-0.6,0.6-0.9c3.5-4.5,7.4-8.5,11.8-12.1c8.1-6.8,16.7-13,25.8-18.6C797.4,912.3,797.6,912.2,797.9,912z"/>
		<path class="st0" d="M927.8,901.7c-0.2,1.6,0.2,3.2,1.2,4.5c0.9,0.9,2.1,1.2,3.3,1c1.6-0.4,2-1.5,2.1-2.9c0-0.4-0.1-0.7-0.3-1
			c-1-1.6-1.9-3.2-3-4.7c-0.8-1.1-0.9-2.6-0.3-3.8c1.5-3.6,5.3-3.5,7.8-1.6c0.2,0.2,0.4,0.4,0.6,0.5c0.5,0.2,0.7,0.8,0.5,1.3
			c0,0.1-0.1,0.2-0.2,0.2c-0.4,0.8-0.7,1.6-1.1,2.4l-0.3-0.1c0-0.7,0-1.4,0-2.1c0-1.2-0.8-2.2-2-2.6c-1.9-0.3-2.2-0.2-3.3,1.6
			c-0.3,1.1-0.1,2.3,0.5,3.2c1.4,1.6,2.6,3.4,3.3,5.4c0.1,1.3-0.2,2.6-0.8,3.7c-2.5,2.2-5.3,2-7.9,0.1c-1-0.6-1.5-1.8-1.1-3
			c0.2-0.7,0.3-1.5,0.4-2.2H927.8z"/>
	</g>
</g>
</svg>
